G04 Created by GerbView*
%FSLAX26Y26*%
%MOIN*%
G75*
%ADD10C,0.0010*%
%ADD11C,0.1613*%
%ADD12C,0.0316*%
%ADD13C,0.0257*%
%ADD14C,0.0354*%
%ADD15R,0.0473X0.0512*%
%ADD16R,0.0473X0.0513*%
%ADD17R,0.0399X0.0399*%
%ADD18R,0.1654X0.2835*%
%ADD19R,0.0473X0.0866*%
%ADD20R,0.1654X0.2834*%
%LNEXPORT*%
D02*
D10*
D11*
X2132598Y1242244D02*
X1769251D01*
X1330000Y802992D01*
X2289999Y897992D02*
X1750000D01*
X1675000Y822992D01*
D12*
X2334999Y400472D02*
Y337480D01*
X2284999Y400472D02*
Y337480D01*
X2234999Y400472D02*
Y337480D01*
X2184999Y400472D02*
Y337480D01*
X2135000Y400472D02*
Y337480D01*
X2085000Y400472D02*
Y337480D01*
X2035000Y400472D02*
Y337480D01*
X1985000Y400472D02*
Y337480D01*
X2334999Y618464D02*
Y555472D01*
X2284999Y618464D02*
Y555472D01*
X2234999Y618464D02*
Y555472D01*
X2184999Y618464D02*
Y555472D01*
X2135000Y618464D02*
Y555472D01*
X2085000Y618464D02*
Y555472D01*
X2035000Y618464D02*
Y555472D01*
X1985000Y618464D02*
Y555472D01*
D13*
X351614Y872992D02*
X304370D01*
X351614Y841496D02*
X304370D01*
X351614Y810000D02*
X304370D01*
X351614Y778464D02*
X304370D01*
X351614Y747086D02*
X304370D01*
X351614Y715590D02*
X304370D01*
X351614Y684094D02*
X304370D01*
X351614Y652598D02*
X304370D01*
X390000Y614606D02*
Y567362D01*
X421496Y614606D02*
Y567362D01*
X452992Y614606D02*
Y567362D01*
X484488Y614606D02*
Y567362D01*
X515866Y614606D02*
Y567362D01*
X547362Y614606D02*
Y567362D01*
X578897Y614606D02*
Y567362D01*
X610393Y614606D02*
Y567362D01*
X696614Y652992D02*
X649370D01*
X696614Y684488D02*
X649370D01*
X696614Y715984D02*
X649370D01*
X696614Y747480D02*
X649370D01*
X696614Y778897D02*
X649370D01*
X696614Y810393D02*
X649370D01*
X696614Y841889D02*
X649370D01*
X696614Y873385D02*
X649370D01*
X610000Y958582D02*
Y911377D01*
X578464Y958582D02*
Y911377D01*
X546968Y958582D02*
Y911377D01*
X515472Y958582D02*
Y911377D01*
X484094Y958582D02*
Y911377D01*
X452598Y958582D02*
Y911377D01*
X421062Y958582D02*
Y911377D01*
X389566Y958582D02*
Y911377D01*
D14*
X850511Y122992D02*
X791456D01*
X850511Y172992D02*
X791456D01*
X850511Y222992D02*
X791456D01*
X850511Y272992D02*
X791456D01*
X1088503Y122992D02*
X1029448D01*
X1088503Y172992D02*
X1029448D01*
X1088503Y222992D02*
X1029448D01*
X1088503Y272992D02*
X1029448D01*
X935511Y1177992D02*
X876456D01*
X935511Y1227992D02*
X876456D01*
X935511Y1277992D02*
X876456D01*
X935511Y1327992D02*
X876456D01*
X1173503Y1177992D02*
X1114448D01*
X1173503Y1227992D02*
X1114448D01*
X1173503Y1277992D02*
X1114448D01*
X1173503Y1327992D02*
X1114448D01*
X850511Y447992D02*
X791456D01*
X850511Y497992D02*
X791456D01*
X850511Y547992D02*
X791456D01*
X850511Y597992D02*
X791456D01*
X1088503Y447992D02*
X1029448D01*
X1088503Y497992D02*
X1029448D01*
X1088503Y547992D02*
X1029448D01*
X1088503Y597992D02*
X1029448D01*
D10*
G36*
X2295472Y139881D02*
Y202992D01*
X2366496D01*
Y139881D01*
X2295472D01*
G37*
G36*
X2043464Y139881D02*
Y202992D01*
X2114488D01*
Y139881D01*
X2043464D01*
G37*
G36*
X2307480Y45866D02*
Y105078D01*
X2372598D01*
Y45866D01*
X2307480D01*
G37*
G36*
X2037480Y45866D02*
Y105078D01*
X2102598D01*
Y45866D01*
X2037480D01*
G37*
G36*
X2210590Y34094D02*
Y116889D01*
X2293385D01*
Y34094D01*
X2210590D01*
G37*
G36*
X2116574Y34094D02*
Y116889D01*
X2199370D01*
Y34094D01*
X2116574D01*
G37*
G36*
X2244173Y149881D02*
Y210984D01*
X2267874D01*
Y149881D01*
X2244173D01*
G37*
G36*
X2142165Y149881D02*
Y210984D01*
X2165866D01*
Y149881D01*
X2142165D01*
G37*
G36*
X2219173Y149881D02*
Y210984D01*
X2242874D01*
Y149881D01*
X2219173D01*
G37*
G36*
X2167165Y149881D02*
Y210984D01*
X2190866D01*
Y149881D01*
X2167165D01*
G37*
G36*
X2193188Y149881D02*
Y210984D01*
X2216889D01*
Y149881D01*
X2193188D01*
G37*
G36*
X608976Y1099763D02*
Y1206181D01*
X636574D01*
Y1099763D01*
X608976D01*
G37*
G36*
X656181Y1117480D02*
Y1188464D01*
X683779D01*
Y1117480D01*
X656181D01*
G37*
G36*
X703385Y1099763D02*
Y1206181D01*
X730984D01*
Y1099763D01*
X703385D01*
G37*
D15*
X1816023Y77992D03*
D10*
D15*
X1760943Y77992D03*
D10*
D16*
X1816023Y147992D03*
D10*
D16*
X1760943Y147992D03*
D10*
G36*
X1737598Y191889D02*
Y243188D01*
X1785000D01*
Y191889D01*
X1737598D01*
G37*
G36*
X1792677Y191889D02*
Y243188D01*
X1840078D01*
Y191889D01*
X1792677D01*
G37*
D16*
X1377519Y152992D03*
D10*
D16*
X1322440Y152992D03*
D10*
D16*
X1377519Y222992D03*
D10*
D16*
X1322440Y222992D03*
D10*
G36*
X1298779Y57283D02*
Y108661D01*
X1346062D01*
Y57283D01*
X1298779D01*
G37*
G36*
X1353897Y57283D02*
Y108661D01*
X1401181D01*
Y57283D01*
X1353897D01*
G37*
G36*
X870275Y24291D02*
Y71692D01*
X909763D01*
Y24291D01*
X870275D01*
G37*
G36*
X970275Y24291D02*
Y71692D01*
X1009763D01*
Y24291D01*
X970275D01*
G37*
G36*
X1738779Y402283D02*
Y453661D01*
X1786062D01*
Y402283D01*
X1738779D01*
G37*
G36*
X1793897Y402283D02*
Y453661D01*
X1841181D01*
Y402283D01*
X1793897D01*
G37*
G36*
X1738779Y332283D02*
Y383661D01*
X1786062D01*
Y332283D01*
X1738779D01*
G37*
G36*
X1793897Y332283D02*
Y383661D01*
X1841181D01*
Y332283D01*
X1793897D01*
G37*
G36*
X2038779Y717283D02*
Y768661D01*
X2086062D01*
Y717283D01*
X2038779D01*
G37*
G36*
X2093897Y717283D02*
Y768661D01*
X2141181D01*
Y717283D01*
X2093897D01*
G37*
G36*
X1973779Y1067283D02*
Y1118661D01*
X2021062D01*
Y1067283D01*
X1973779D01*
G37*
G36*
X2028897Y1067283D02*
Y1118661D01*
X2076181D01*
Y1067283D01*
X2028897D01*
G37*
D16*
X2242519Y742992D03*
D10*
D16*
X2187440Y742992D03*
D10*
D16*
X2177519Y1092992D03*
D10*
D16*
X2122440Y1092992D03*
D10*
D16*
X1817518Y492992D03*
D10*
D16*
X1762440Y492992D03*
D10*
D16*
X1852518Y682992D03*
D10*
D16*
X1797440Y682992D03*
D10*
D16*
X1027519Y892992D03*
D10*
D16*
X972440Y892992D03*
D10*
D16*
X608582Y295433D03*
D10*
D16*
X553464Y295433D03*
D10*
G36*
X84291Y706889D02*
Y754173D01*
X135669D01*
Y706889D01*
X84291D01*
G37*
G36*
X84291Y651771D02*
Y699094D01*
X135669D01*
Y651771D01*
X84291D01*
G37*
D16*
X1352519Y1182992D03*
D10*
D16*
X1297440Y1182992D03*
D10*
D16*
X1352519Y1317992D03*
D10*
D16*
X1297440Y1317992D03*
D10*
D16*
X1352519Y1247992D03*
D10*
D16*
X1297440Y1247992D03*
D10*
G36*
X950275Y1059291D02*
Y1106692D01*
X989763D01*
Y1059291D01*
X950275D01*
G37*
G36*
X1050275Y1059291D02*
Y1106692D01*
X1089763D01*
Y1059291D01*
X1050275D01*
G37*
D16*
X1377519Y402992D03*
D10*
D16*
X1322440Y402992D03*
D10*
D16*
X1377519Y542992D03*
D10*
D16*
X1322440Y542992D03*
D10*
D16*
X1377519Y472992D03*
D10*
D16*
X1322440Y472992D03*
D10*
G36*
X870275Y349291D02*
Y396692D01*
X909763D01*
Y349291D01*
X870275D01*
G37*
G36*
X970275Y349291D02*
Y396692D01*
X1009763D01*
Y349291D01*
X970275D01*
G37*
G36*
X256062Y1091968D02*
Y1160000D01*
X364094D01*
Y1091968D01*
X256062D01*
G37*
G36*
X456062Y1091968D02*
Y1160000D01*
X564094D01*
Y1091968D01*
X456062D01*
G37*
G36*
X84291Y776771D02*
Y824094D01*
X135669D01*
Y776771D01*
X84291D01*
G37*
G36*
X84291Y831889D02*
Y879173D01*
X135669D01*
Y831889D01*
X84291D01*
G37*
G36*
X670590Y330078D02*
Y401062D01*
X741574D01*
Y330078D01*
X670590D01*
G37*
G36*
X670590Y440275D02*
Y511299D01*
X741574D01*
Y440275D01*
X670590D01*
G37*
D16*
X742874Y1258385D03*
D10*
D16*
X687755Y1258385D03*
D10*
G36*
X543897Y1276889D02*
Y1324291D01*
X595196D01*
Y1276889D01*
X543897D01*
G37*
G36*
X543897Y1221771D02*
Y1269173D01*
X595196D01*
Y1221771D01*
X543897D01*
G37*
D17*
X470905Y1324527D03*
D10*
D17*
X410905Y1324527D03*
D10*
G36*
X271574Y264291D02*
Y311692D01*
X358385D01*
Y264291D01*
X271574D01*
G37*
G36*
X271496Y340275D02*
Y387677D01*
X358188D01*
Y340275D01*
X271496D01*
G37*
G36*
X271574Y414291D02*
Y461692D01*
X358385D01*
Y414291D01*
X271574D01*
G37*
D18*
X95000Y1227992D03*
D10*
D19*
X240000Y62992D03*
D10*
D19*
X540000Y62992D03*
D10*
D19*
X465000Y62992D03*
D10*
D19*
X390000Y62992D03*
D10*
D19*
X315000Y62992D03*
D10*
D20*
X95000Y152992D03*
D10*
D20*
X95000Y152992D03*
D10*
G36*
X1208408Y735762D02*
X1209032Y736187D01*
X1209629Y736635D01*
X1210199Y737107D01*
X1210742Y737602D01*
X1211258Y738121D01*
X1211746Y738663D01*
X1212208Y739229D01*
X1212642Y739818D01*
X1213190Y740678D01*
X1213631Y741540D01*
X1213965Y742403D01*
X1214191Y743268D01*
X1214310Y744135D01*
X1214323Y745004D01*
X1214228Y745874D01*
X1214026Y746747D01*
X1213712Y747638D01*
X1213282Y748567D01*
X1212737Y749532D01*
X1212075Y750535D01*
X1211297Y751574D01*
X1210404Y752651D01*
X1209394Y753764D01*
X1208268Y754915D01*
X1184233Y778642D01*
X1180446Y773233D01*
X1179853Y776153D01*
X1182717Y780243D01*
X1182456Y780533D01*
X1181036Y782120D01*
X1179775Y783761D01*
X1178675Y785457D01*
X1177733Y787208D01*
X1176951Y789013D01*
X1176329Y790873D01*
X1175866Y792788D01*
X1175562Y794757D01*
X1175424Y796731D01*
X1175456Y798659D01*
X1175659Y800541D01*
X1176033Y802378D01*
X1176577Y804168D01*
X1177292Y805913D01*
X1178177Y807612D01*
X1179234Y809266D01*
X1179602Y809778D01*
X1179976Y810271D01*
X1180355Y810746D01*
X1180741Y811202D01*
X1181133Y811640D01*
X1181530Y812059D01*
X1181933Y812459D01*
X1182343Y812841D01*
X1183578Y806859D01*
X1182859Y806526D01*
X1182181Y806160D01*
X1181544Y805759D01*
X1180948Y805324D01*
X1180393Y804855D01*
X1179878Y804352D01*
X1179404Y803814D01*
X1178972Y803243D01*
X1178394Y802347D01*
X1177923Y801463D01*
X1177559Y800590D01*
X1177302Y799728D01*
X1177152Y798878D01*
X1177108Y798039D01*
X1177172Y797212D01*
X1177342Y796396D01*
X1177628Y795556D01*
X1178039Y794659D01*
X1178573Y793704D01*
X1179232Y792691D01*
X1180015Y791620D01*
X1180923Y790491D01*
X1181954Y789304D01*
X1183110Y788059D01*
X1186033Y784979D01*
X1192328Y793969D01*
X1193096Y790533D01*
X1192476Y789828D01*
X1191868Y789115D01*
X1191270Y788393D01*
X1190683Y787663D01*
X1190107Y786924D01*
X1189542Y786176D01*
X1188987Y785420D01*
X1188443Y784655D01*
X1187567Y783404D01*
X1205752Y765466D01*
X1207724Y763422D01*
X1209493Y761373D01*
X1211059Y759319D01*
X1212422Y757262D01*
X1213582Y755200D01*
X1214538Y753134D01*
X1215292Y751063D01*
X1215843Y748988D01*
X1216186Y746929D01*
X1216317Y744907D01*
X1216236Y742922D01*
X1215942Y740974D01*
X1215437Y739062D01*
X1214719Y737187D01*
X1213788Y735349D01*
X1212646Y733547D01*
X1212311Y733079D01*
X1211962Y732612D01*
X1211599Y732146D01*
X1211223Y731681D01*
X1210832Y731216D01*
X1210427Y730752D01*
X1210009Y730289D01*
X1209577Y729827D01*
X1209593Y729815D01*
X1208408Y735762D01*
G37*
G36*
X1219609Y805210D02*
X1221613Y801280D01*
X1223198Y797658D01*
X1224365Y794345D01*
X1225114Y791340D01*
X1225445Y788643D01*
X1225358Y786255D01*
X1224853Y784175D01*
X1223929Y782403D01*
X1223229Y781554D01*
X1222472Y780924D01*
X1221657Y780512D01*
X1220785Y780320D01*
X1219856Y780346D01*
X1218869Y780590D01*
X1217824Y781054D01*
X1216722Y781736D01*
X1216393Y781976D01*
X1216052Y782241D01*
X1215700Y782532D01*
X1215335Y782850D01*
X1214959Y783193D01*
X1214571Y783563D01*
X1214171Y783958D01*
X1213760Y784380D01*
X1203631Y794920D01*
X1203063Y795510D01*
X1202542Y796040D01*
X1202070Y796511D01*
X1201645Y796923D01*
X1201268Y797277D01*
X1200939Y797571D01*
X1200658Y797806D01*
X1200425Y797982D01*
X1200062Y798203D01*
X1199714Y798348D01*
X1199382Y798416D01*
X1199065Y798408D01*
X1198764Y798323D01*
X1198478Y798161D01*
X1198207Y797923D01*
X1197952Y797608D01*
X1197597Y796925D01*
X1197352Y796051D01*
X1197218Y794986D01*
X1197195Y793729D01*
X1197283Y792280D01*
X1197482Y790640D01*
X1197792Y788809D01*
X1198212Y786786D01*
X1196310Y788777D01*
X1195891Y790998D01*
X1195626Y793063D01*
X1195515Y794972D01*
X1195558Y796725D01*
X1195755Y798322D01*
X1196106Y799763D01*
X1196611Y801048D01*
X1197270Y802177D01*
X1197898Y802954D01*
X1198562Y803544D01*
X1199261Y803947D01*
X1199997Y804161D01*
X1200770Y804189D01*
X1201578Y804029D01*
X1202422Y803681D01*
X1203302Y803146D01*
X1203621Y802909D01*
X1203980Y802617D01*
X1204379Y802271D01*
X1204818Y801869D01*
X1205296Y801413D01*
X1205815Y800903D01*
X1206373Y800338D01*
X1206970Y799718D01*
X1217106Y789112D01*
X1217436Y788772D01*
X1217744Y788461D01*
X1218030Y788181D01*
X1218295Y787930D01*
X1218538Y787708D01*
X1218760Y787517D01*
X1218960Y787355D01*
X1219139Y787222D01*
X1219609Y786926D01*
X1220049Y786716D01*
X1220460Y786593D01*
X1220841Y786557D01*
X1221192Y786607D01*
X1221514Y786743D01*
X1221805Y786967D01*
X1222068Y787276D01*
X1222334Y787802D01*
X1222505Y788481D01*
X1222580Y789313D01*
X1222560Y790298D01*
X1222445Y791437D01*
X1222233Y792729D01*
X1221926Y794175D01*
X1221524Y795773D01*
X1221045Y797455D01*
X1220509Y799150D01*
X1219915Y800858D01*
X1219264Y802578D01*
X1218555Y804312D01*
X1217789Y806058D01*
X1216965Y807818D01*
X1216084Y809590D01*
X1208682Y817324D01*
X1211966Y822642D01*
X1218108Y815701D01*
X1228305Y805063D01*
X1228874Y804473D01*
X1229395Y803941D01*
X1229868Y803469D01*
X1230293Y803056D01*
X1230670Y802702D01*
X1231000Y802407D01*
X1231282Y802172D01*
X1231515Y801995D01*
X1231885Y801769D01*
X1232238Y801621D01*
X1232575Y801550D01*
X1232895Y801555D01*
X1233199Y801639D01*
X1233487Y801799D01*
X1233759Y802036D01*
X1234015Y802351D01*
X1234374Y803039D01*
X1234621Y803917D01*
X1234757Y804985D01*
X1234780Y806242D01*
X1234692Y807690D01*
X1234491Y809328D01*
X1234179Y811155D01*
X1233754Y813172D01*
X1235656Y811181D01*
X1236072Y808955D01*
X1236334Y806886D01*
X1236444Y804975D01*
X1236400Y803221D01*
X1236204Y801625D01*
X1235855Y800187D01*
X1235352Y798905D01*
X1234697Y797782D01*
X1234069Y797005D01*
X1233404Y796416D01*
X1232701Y796015D01*
X1231963Y795802D01*
X1231187Y795777D01*
X1230374Y795941D01*
X1229524Y796292D01*
X1228638Y796832D01*
X1228313Y797073D01*
X1227950Y797367D01*
X1227549Y797716D01*
X1227110Y798118D01*
X1226632Y798574D01*
X1226116Y799084D01*
X1225562Y799648D01*
X1224970Y800265D01*
X1219882Y805600D01*
X1219609Y805210D01*
G37*
G36*
X1237805Y818543D02*
X1227619Y829173D01*
X1227051Y829763D01*
X1226531Y830294D01*
X1226058Y830766D01*
X1225633Y831179D01*
X1225257Y831532D01*
X1224928Y831827D01*
X1224646Y832062D01*
X1224413Y832238D01*
X1224050Y832460D01*
X1223702Y832605D01*
X1223369Y832673D01*
X1223052Y832665D01*
X1222751Y832580D01*
X1222465Y832418D01*
X1222194Y832180D01*
X1221939Y831865D01*
X1221583Y831182D01*
X1221338Y830309D01*
X1221202Y829245D01*
X1221177Y827989D01*
X1221262Y826543D01*
X1221457Y824906D01*
X1221762Y823078D01*
X1222177Y821059D01*
X1220279Y823030D01*
X1219865Y825253D01*
X1219604Y827320D01*
X1219497Y829231D01*
X1219544Y830986D01*
X1219744Y832585D01*
X1220098Y834029D01*
X1220606Y835317D01*
X1221267Y836449D01*
X1221892Y837223D01*
X1222554Y837810D01*
X1223252Y838210D01*
X1223986Y838423D01*
X1224756Y838449D01*
X1225562Y838289D01*
X1226405Y837941D01*
X1227283Y837407D01*
X1227608Y837167D01*
X1227970Y836873D01*
X1228372Y836527D01*
X1228811Y836128D01*
X1229290Y835676D01*
X1229807Y835170D01*
X1230362Y834612D01*
X1230956Y834001D01*
X1236028Y828673D01*
X1236283Y829038D01*
X1235323Y830843D01*
X1234454Y832620D01*
X1233677Y834368D01*
X1232993Y836088D01*
X1232400Y837780D01*
X1231900Y839444D01*
X1231492Y841079D01*
X1231176Y842686D01*
X1230959Y844231D01*
X1230846Y845678D01*
X1230838Y847027D01*
X1230936Y848279D01*
X1231138Y849433D01*
X1231445Y850491D01*
X1231858Y851450D01*
X1232375Y852312D01*
X1233087Y853184D01*
X1233849Y853838D01*
X1234661Y854274D01*
X1235524Y854493D01*
X1236437D01*
X1237400Y854275D01*
X1238413Y853840D01*
X1239477Y853186D01*
X1239835Y852926D01*
X1240204Y852639D01*
X1240583Y852326D01*
X1240973Y851987D01*
X1241373Y851621D01*
X1241784Y851229D01*
X1242205Y850810D01*
X1242637Y850365D01*
X1252681Y839857D01*
X1253254Y839263D01*
X1253777Y838729D01*
X1254251Y838256D01*
X1254676Y837842D01*
X1255052Y837489D01*
X1255378Y837196D01*
X1255655Y836964D01*
X1255883Y836791D01*
X1256252Y836566D01*
X1256605Y836418D01*
X1256941Y836347D01*
X1257262Y836354D01*
X1257566Y836438D01*
X1257855Y836599D01*
X1258127Y836837D01*
X1258383Y837153D01*
X1258748Y837848D01*
X1259000Y838733D01*
X1259140Y839807D01*
X1259167Y841071D01*
X1259082Y842524D01*
X1258885Y844166D01*
X1258576Y845998D01*
X1258154Y848019D01*
X1260058Y846006D01*
X1260470Y843781D01*
X1260729Y841712D01*
X1260834Y839799D01*
X1260786Y838041D01*
X1260584Y836440D01*
X1260228Y834994D01*
X1259719Y833705D01*
X1259057Y832571D01*
X1258430Y831796D01*
X1257766Y831208D01*
X1257066Y830808D01*
X1256328Y830596D01*
X1255554Y830572D01*
X1254743Y830735D01*
X1253895Y831086D01*
X1253010Y831625D01*
X1252691Y831862D01*
X1252333Y832154D01*
X1251935Y832502D01*
X1251499Y832904D01*
X1251022Y833362D01*
X1250507Y833876D01*
X1249952Y834444D01*
X1249358Y835068D01*
X1239315Y845679D01*
X1239030Y845982D01*
X1238751Y846267D01*
X1238480Y846533D01*
X1238215Y846781D01*
X1237957Y847010D01*
X1237707Y847220D01*
X1237463Y847411D01*
X1237226Y847584D01*
X1236756Y847880D01*
X1236315Y848088D01*
X1235903Y848209D01*
X1235521Y848242D01*
X1235167Y848188D01*
X1234842Y848047D01*
X1234547Y847818D01*
X1234280Y847502D01*
X1233666Y846143D01*
X1233427Y844355D01*
X1233563Y842140D01*
X1234074Y839496D01*
X1234960Y836424D01*
X1236222Y832925D01*
X1237858Y828997D01*
X1239870Y824641D01*
X1247189Y816877D01*
X1243939Y811608D01*
X1237805Y818543D01*
G37*
D02*
M02*
