G04 Created by GerbView*
%FSLAX26Y26*%
%MOIN*%
G75*
%ADD10C,0.0010*%
%ADD11C,0.0078*%
%ADD12C,0.0100*%
%ADD13C,0.0090*%
%ADD14C,0.0050*%
%ADD15C,0.0055*%
%ADD16C,0.0070*%
%ADD17C,0.0060*%
%ADD18C,0.0080*%
%ADD19C,0.0118*%
%ADD20C,0.0157*%
%LNEXPORT*%
D02*
D10*
G36*
X1530433Y798267D02*
X1527598Y798307D01*
X1523661Y798267D01*
X1518385Y798188D01*
X1502519Y797992D01*
X1499645Y782480D01*
X1499055Y779330D01*
X1498464Y776377D01*
X1497913Y773661D01*
X1497401Y771259D01*
X1496929Y769251D01*
X1496496Y767716D01*
X1496181Y766653D01*
X1495984Y766181D01*
X1494803Y765511D01*
X1492322Y764370D01*
X1488976Y762913D01*
X1485196Y761299D01*
X1481377Y759763D01*
X1477992Y758464D01*
X1475433Y757519D01*
X1474173Y757165D01*
X1473700Y757362D01*
X1472716Y757874D01*
X1471338Y758740D01*
X1469606Y759842D01*
X1467559Y761141D01*
X1465236Y762677D01*
X1462716Y764370D01*
X1460078Y766181D01*
X1447047Y775157D01*
X1435826Y763976D01*
X1433582Y761692D01*
X1431496Y759566D01*
X1429566Y757598D01*
X1427913Y755866D01*
X1426535Y754409D01*
X1425511Y753267D01*
X1424842Y752519D01*
X1424606Y752165D01*
X1424803Y751771D01*
X1425275Y750944D01*
X1426062Y749724D01*
X1427125Y748110D01*
X1428346Y746220D01*
X1429803Y744055D01*
X1431377Y741692D01*
X1433070Y739212D01*
X1434803Y736732D01*
X1436377Y734330D01*
X1437795Y732086D01*
X1439055Y730118D01*
X1440118Y728385D01*
X1440866Y727007D01*
X1441377Y726062D01*
X1441535Y725511D01*
X1441181Y724173D01*
X1440196Y721535D01*
X1438818Y717992D01*
X1437204Y714055D01*
X1435511Y710157D01*
X1433976Y706692D01*
X1432795Y704133D01*
X1432086Y702952D01*
X1430748Y702519D01*
X1427637Y701811D01*
X1423149Y700866D01*
X1417755Y699842D01*
X1414960Y699330D01*
X1412322Y698818D01*
X1409803Y698346D01*
X1407559Y697874D01*
X1405629Y697440D01*
X1404015Y697086D01*
X1402874Y696811D01*
X1402244Y696614D01*
X1401653Y696299D01*
X1401220Y695905D01*
X1400905Y695157D01*
X1400669Y693976D01*
X1400551Y692125D01*
X1400472Y689448D01*
X1400433Y685787D01*
Y680905D01*
X1400472Y675551D01*
X1400551Y671417D01*
X1400748Y668346D01*
X1401102Y666181D01*
X1401614Y664763D01*
X1402401Y663937D01*
X1403425Y663543D01*
X1404724Y663425D01*
X1406062Y663346D01*
X1408031Y663070D01*
X1410472Y662677D01*
X1413228Y662125D01*
X1416220Y661535D01*
X1419251Y660905D01*
X1422244Y660275D01*
X1425000Y659606D01*
X1427440Y659015D01*
X1429448Y658464D01*
X1430787Y657992D01*
X1431456Y657677D01*
X1431889Y656968D01*
X1432598Y655590D01*
X1433464Y653700D01*
X1434448Y651417D01*
X1435511Y648858D01*
X1436614Y646181D01*
X1437637Y643503D01*
X1438622Y640944D01*
X1439488Y638622D01*
X1440157Y636653D01*
X1440590Y635236D01*
X1440748Y634409D01*
X1440590Y633858D01*
X1440118Y632874D01*
X1439370Y631535D01*
X1438385Y629881D01*
X1437165Y627952D01*
X1435826Y625826D01*
X1434291Y623543D01*
X1432677Y621181D01*
X1429566Y616574D01*
X1427007Y612716D01*
X1425275Y609960D01*
X1424606Y608779D01*
X1424842Y608425D01*
X1425511Y607637D01*
X1426535Y606496D01*
X1427913Y605039D01*
X1429566Y603267D01*
X1431456Y601338D01*
X1433543Y599173D01*
X1446968Y585748D01*
X1458740Y593897D01*
X1461102Y595551D01*
X1463425Y597086D01*
X1465551Y598464D01*
X1467480Y599685D01*
X1469133Y600669D01*
X1470472Y601417D01*
X1471417Y601889D01*
X1471968Y602086D01*
X1472952Y601850D01*
X1474606Y601220D01*
X1476653Y600314D01*
X1478897Y599173D01*
X1484330Y596299D01*
X1485433Y598976D01*
X1485669Y599527D01*
X1486062Y600472D01*
X1486574Y601732D01*
X1487244Y603307D01*
X1487992Y605196D01*
X1488858Y607283D01*
X1489842Y609606D01*
X1490866Y612125D01*
X1491968Y614803D01*
X1493149Y617598D01*
X1494330Y620511D01*
X1495590Y623464D01*
X1496811Y626456D01*
X1497992Y629330D01*
X1499133Y632086D01*
X1500236Y634724D01*
X1501220Y637165D01*
X1502165Y639409D01*
X1502992Y641417D01*
X1503700Y643188D01*
X1504330Y644645D01*
X1505118Y646614D01*
X1505314Y647047D01*
X1505472Y648110D01*
X1504960Y649173D01*
X1503503Y650511D01*
X1500866Y652519D01*
X1498740Y654094D01*
X1496811Y655708D01*
X1495118Y657322D01*
X1493582Y659055D01*
X1492165Y660866D01*
X1490866Y662795D01*
X1489645Y664921D01*
X1488503Y667244D01*
X1487322Y670000D01*
X1486653Y672598D01*
X1486377Y675787D01*
X1486299Y680433D01*
X1486377Y685275D01*
X1486692Y688503D01*
X1487480Y691181D01*
X1488976Y694409D01*
X1490314Y696889D01*
X1491771Y699173D01*
X1493385Y701338D01*
X1495157Y703307D01*
X1497047Y705157D01*
X1499055Y706771D01*
X1501220Y708267D01*
X1503464Y709566D01*
X1505866Y710669D01*
X1508346Y711614D01*
X1510944Y712362D01*
X1513661Y712913D01*
X1515826Y713188D01*
X1517992Y713346D01*
X1520157D01*
X1522283Y713188D01*
X1524409Y712874D01*
X1526456Y712440D01*
X1528503Y711850D01*
X1530511Y711181D01*
X1532440Y710314D01*
X1534330Y709370D01*
X1536181Y708307D01*
X1537913Y707086D01*
X1539606Y705787D01*
X1541220Y704330D01*
X1542755Y702795D01*
X1544212Y701141D01*
X1545551Y699409D01*
X1546811Y697559D01*
X1547952Y695590D01*
X1549015Y693543D01*
X1550354Y690433D01*
X1551102Y687795D01*
X1551496Y684881D01*
X1551574Y680826D01*
X1551535Y678503D01*
X1551338Y676220D01*
X1551023Y674055D01*
X1550590Y671929D01*
X1550039Y669842D01*
X1549330Y667874D01*
X1548503Y665944D01*
X1547559Y664094D01*
X1546496Y662283D01*
X1545275Y660551D01*
X1543937Y658897D01*
X1542480Y657322D01*
X1540866Y655748D01*
X1539133Y654291D01*
X1537283Y652874D01*
X1535275Y651535D01*
X1533937Y650629D01*
X1532874Y649803D01*
X1532125Y649173D01*
X1531850Y648779D01*
X1532007Y648228D01*
X1532480Y647007D01*
X1533228Y645078D01*
X1534251Y642598D01*
X1535433Y639606D01*
X1536811Y636220D01*
X1538346Y632519D01*
X1539960Y628582D01*
X1541062Y625866D01*
X1542204Y623188D01*
X1543267Y620511D01*
X1544330Y617952D01*
X1545354Y615472D01*
X1546299Y613149D01*
X1547204Y610984D01*
X1547992Y609015D01*
X1548700Y607283D01*
X1549330Y605787D01*
X1549803Y604566D01*
X1550157Y603700D01*
X1551181Y601141D01*
X1552007Y599291D01*
X1552716Y598070D01*
X1553464Y597401D01*
X1554330Y597244D01*
X1555433Y597559D01*
X1556889Y598267D01*
X1558779Y599291D01*
X1560866Y600354D01*
X1562795Y601259D01*
X1564370Y601850D01*
X1565354Y602086D01*
X1565905Y601889D01*
X1566889Y601417D01*
X1568267Y600669D01*
X1569960Y599685D01*
X1571929Y598464D01*
X1574094Y597047D01*
X1576456Y595511D01*
X1578897Y593897D01*
X1590866Y585708D01*
X1604330Y599173D01*
X1606417Y601338D01*
X1608267Y603346D01*
X1609881Y605118D01*
X1611220Y606614D01*
X1612204Y607834D01*
X1612795Y608661D01*
X1612952Y609055D01*
X1612125Y610354D01*
X1611338Y611614D01*
X1610275Y613228D01*
X1609015Y615118D01*
X1607559Y617204D01*
X1606023Y619488D01*
X1604370Y621889D01*
X1596141Y633779D01*
X1600787Y645590D01*
X1602637Y650236D01*
X1604251Y654133D01*
X1605433Y656850D01*
X1606023Y658031D01*
X1606653Y658267D01*
X1608267Y658661D01*
X1610669Y659212D01*
X1613622Y659881D01*
X1617007Y660590D01*
X1624251Y662086D01*
X1627716Y662755D01*
X1630826Y663385D01*
X1633464Y663858D01*
X1635354Y664173D01*
X1636338Y664291D01*
X1636377Y664606D01*
X1636456Y665551D01*
X1636496Y667047D01*
X1636574Y669015D01*
X1636614Y671417D01*
Y674133D01*
X1636653Y677165D01*
Y685748D01*
X1636614Y689724D01*
X1636574Y692598D01*
X1636417Y694566D01*
X1636220Y695787D01*
X1635905Y696456D01*
X1635433Y696811D01*
X1634842Y696968D01*
X1634015Y697125D01*
X1632598Y697401D01*
X1630669Y697795D01*
X1628385Y698228D01*
X1625826Y698700D01*
X1623070Y699212D01*
X1620275Y699763D01*
X1617519Y700275D01*
X1614881Y700748D01*
X1612559Y701181D01*
X1610551Y701535D01*
X1609055Y701811D01*
X1607795Y702047D01*
X1606771Y702440D01*
X1605866Y703149D01*
X1604960Y704251D01*
X1603976Y705905D01*
X1602795Y708307D01*
X1601377Y711535D01*
X1599527Y715787D01*
X1595314Y725708D01*
X1599803Y732362D01*
X1600787Y733818D01*
X1603070Y737244D01*
X1604291Y739015D01*
X1605551Y740826D01*
X1606732Y742598D01*
X1607874Y744251D01*
X1608897Y745748D01*
X1613543Y752480D01*
X1602322Y763700D01*
X1600078Y765984D01*
X1597952Y768070D01*
X1595984Y770000D01*
X1594291Y771653D01*
X1592834Y773031D01*
X1591732Y774055D01*
X1590984Y774724D01*
X1590669Y774960D01*
X1590314Y774763D01*
X1589488Y774251D01*
X1588228Y773425D01*
X1586574Y772362D01*
X1584606Y771023D01*
X1582401Y769527D01*
X1579960Y767874D01*
X1577362Y766062D01*
X1574763Y764291D01*
X1572283Y762637D01*
X1569960Y761102D01*
X1567913Y759803D01*
X1566181Y758700D01*
X1564763Y757913D01*
X1563779Y757401D01*
X1563307Y757204D01*
X1562047Y757559D01*
X1559488Y758543D01*
X1555984Y759881D01*
X1552047Y761456D01*
X1548149Y763070D01*
X1544685Y764527D01*
X1542204Y765629D01*
X1541102Y766220D01*
X1540787Y767440D01*
X1539251Y775118D01*
X1538228Y780629D01*
X1537716Y783503D01*
X1537165Y786259D01*
X1536692Y788818D01*
X1536220Y791141D01*
X1535787Y793149D01*
X1535433Y794763D01*
X1535157Y795944D01*
X1534960Y796574D01*
X1534724Y797204D01*
X1534330Y797637D01*
X1533622Y797952D01*
X1532401Y798149D01*
X1530433Y798267D01*
G37*
G36*
X1215039Y1162795D02*
X1213700Y1162992D01*
X1212716Y1162913D01*
X1211535Y1162716D01*
X1210118Y1162401D01*
X1208543Y1161968D01*
X1206811Y1161417D01*
X1204960Y1160787D01*
X1202952Y1160039D01*
X1200826Y1159212D01*
X1198622Y1158267D01*
X1196377Y1157283D01*
X1194015Y1156259D01*
X1191614Y1155157D01*
X1189212Y1153976D01*
X1186811Y1152755D01*
X1184370Y1151535D01*
X1182007Y1150275D01*
X1179645Y1148976D01*
X1177362Y1147677D01*
X1175157Y1146338D01*
X1173031Y1145039D01*
X1171141Y1143818D01*
X1169212Y1142401D01*
X1167125Y1140866D01*
X1165000Y1139173D01*
X1162755Y1137362D01*
X1160511Y1135472D01*
X1156023Y1131456D01*
X1153818Y1129370D01*
X1151653Y1127244D01*
X1149527Y1125196D01*
X1147559Y1123110D01*
X1145629Y1121062D01*
X1143897Y1119133D01*
X1142283Y1117244D01*
X1140905Y1115472D01*
X1139803Y1113976D01*
X1138740Y1112440D01*
X1137716Y1110905D01*
X1136732Y1109330D01*
X1135748Y1107677D01*
X1134803Y1106023D01*
X1133937Y1104291D01*
X1133031Y1102559D01*
X1132204Y1100748D01*
X1131417Y1098897D01*
X1130629Y1097007D01*
X1129881Y1095118D01*
X1128464Y1091102D01*
X1127834Y1089055D01*
X1127204Y1086929D01*
X1126614Y1084763D01*
X1126062Y1082598D01*
X1125551Y1080354D01*
X1125039Y1078070D01*
X1124566Y1075708D01*
X1124133Y1073307D01*
X1123700Y1070866D01*
X1123346Y1068385D01*
X1122992Y1065866D01*
X1122677Y1063267D01*
X1122362Y1060629D01*
X1122125Y1057952D01*
X1121889Y1055196D01*
X1121692Y1052401D01*
X1121377Y1046653D01*
X1121141Y1040669D01*
X1121102Y1037598D01*
X1121062Y1034488D01*
X1120944Y1013267D01*
X1118188Y1012716D01*
X1116535Y1012244D01*
X1115236Y1011535D01*
X1114212Y1010511D01*
X1113464Y1009094D01*
X1112913Y1007125D01*
X1112598Y1004606D01*
X1112401Y1001377D01*
X1112362Y997322D01*
X1112283Y992992D01*
X1112086Y989055D01*
X1111771Y985984D01*
X1111377Y984173D01*
X1111023Y983070D01*
X1110866Y981771D01*
X1110826Y980236D01*
X1110944Y978503D01*
X1111181Y976614D01*
X1111535Y974566D01*
X1112047Y972322D01*
X1112677Y969960D01*
X1113464Y967440D01*
X1114330Y964842D01*
X1115354Y962125D01*
X1116496Y959291D01*
X1118307Y955118D01*
X1120000Y951614D01*
X1121614Y948858D01*
X1123188Y946732D01*
X1124724Y945196D01*
X1126259Y944251D01*
X1127874Y943858D01*
X1129527Y943937D01*
X1130629Y944173D01*
X1131456Y944212D01*
X1132047Y943897D01*
X1132559Y942913D01*
X1132952Y941141D01*
X1133346Y938385D01*
X1133858Y934330D01*
X1134527Y928858D01*
X1134842Y926338D01*
X1135196Y924015D01*
X1135629Y921929D01*
X1136102Y920000D01*
X1136653Y918149D01*
X1137244Y916377D01*
X1137992Y914566D01*
X1138818Y912795D01*
X1142007Y906259D01*
X1139645Y893188D01*
X1139015Y889488D01*
X1138464Y886141D01*
X1138070Y883188D01*
X1137755Y880511D01*
X1137559Y878149D01*
X1137440Y876023D01*
Y874173D01*
X1137559Y872519D01*
X1137795Y871023D01*
X1138110Y869685D01*
X1138543Y868503D01*
X1139055Y867362D01*
X1139842Y865748D01*
X1140236Y864409D01*
X1140196Y863228D01*
X1139803Y862086D01*
X1139488Y861102D01*
X1139251Y859921D01*
X1139173Y858779D01*
X1139291Y857716D01*
X1139370Y856535D01*
X1139133Y855669D01*
X1138503Y855000D01*
X1137401Y854409D01*
X1136259Y853779D01*
X1135472Y852795D01*
X1135039Y851377D01*
X1134763Y849212D01*
X1134488Y847401D01*
X1134094Y845826D01*
X1133464Y844606D01*
X1132795Y843858D01*
X1131968Y843149D01*
X1131653Y842440D01*
X1131811Y841456D01*
X1132401Y840078D01*
X1133031Y838543D01*
Y837480D01*
X1132362Y836496D01*
X1129330Y834015D01*
X1128622Y832992D01*
Y831771D01*
X1129251Y830000D01*
X1129842Y828228D01*
X1129960Y827007D01*
X1129448Y825905D01*
X1128307Y824645D01*
X1127125Y823346D01*
X1126692Y822322D01*
X1126929Y821141D01*
X1127834Y819370D01*
X1129015Y817283D01*
X1130472Y815118D01*
X1132125Y812834D01*
X1133976Y810472D01*
X1135984Y808031D01*
X1138149Y805629D01*
X1140393Y803228D01*
X1142716Y800905D01*
X1144960Y798858D01*
X1147086Y797125D01*
X1149133Y795708D01*
X1151141Y794645D01*
X1153228Y793858D01*
X1155354Y793307D01*
X1157677Y792992D01*
X1160118Y792913D01*
X1163385Y793070D01*
X1166929Y793503D01*
X1170511Y794212D01*
X1173976Y795078D01*
X1177047Y796062D01*
X1179645Y797125D01*
X1181496Y798188D01*
X1182401Y799212D01*
X1182913Y799763D01*
X1183897Y800196D01*
X1185236Y800433D01*
X1186929Y800511D01*
X1188700Y800669D01*
X1190433Y801023D01*
X1191968Y801614D01*
X1193228Y802322D01*
X1194566Y803425D01*
X1195078Y804173D01*
X1194763Y805000D01*
X1193700Y806141D01*
X1192834Y807204D01*
X1192440Y808031D01*
X1192559Y808779D01*
X1193110Y809566D01*
X1193700Y810157D01*
X1194370Y810590D01*
X1195078Y810905D01*
X1195669Y811023D01*
X1196850Y811456D01*
X1197480Y812559D01*
X1197401Y813897D01*
X1196614Y815236D01*
X1195787Y816535D01*
X1195748Y817992D01*
X1196417Y819133D01*
X1197637Y819606D01*
X1198228Y819724D01*
X1198937Y820039D01*
X1199606Y820472D01*
X1200196Y821023D01*
X1200748Y821850D01*
X1200905Y822559D01*
X1200669Y823267D01*
X1200000Y824133D01*
X1199094Y825748D01*
X1198937Y827362D01*
X1199488Y828622D01*
X1200629Y829133D01*
X1201259Y829251D01*
X1201929Y829566D01*
X1202637Y830039D01*
X1203228Y830590D01*
X1203818Y831456D01*
X1204015Y832244D01*
X1203818Y833149D01*
X1203228Y834370D01*
X1202637Y835748D01*
X1202519Y837165D01*
X1202874Y839055D01*
X1203818Y841732D01*
X1204803Y843976D01*
X1205748Y845629D01*
X1206732Y846653D01*
X1207755Y847125D01*
X1208661Y847362D01*
X1209685Y847795D01*
X1210708Y848346D01*
X1211574Y848976D01*
X1212204Y849409D01*
X1213070Y849763D01*
X1214212Y850039D01*
X1215669Y850236D01*
X1217598Y850393D01*
X1220039Y850472D01*
X1223070Y850551D01*
X1226732D01*
X1230905Y850590D01*
X1234212Y850629D01*
X1236811Y850787D01*
X1238937Y850984D01*
X1240669Y851338D01*
X1242283Y851811D01*
X1243937Y852440D01*
X1245787Y853267D01*
X1247244Y854015D01*
X1248740Y854881D01*
X1250275Y855866D01*
X1251850Y857047D01*
X1253464Y858307D01*
X1255118Y859724D01*
X1256811Y861299D01*
X1260039Y864527D01*
X1261377Y865984D01*
X1262637Y867440D01*
X1263818Y868976D01*
X1265039Y870669D01*
X1266259Y872559D01*
X1267598Y874685D01*
X1269055Y877204D01*
X1270708Y880157D01*
X1272559Y883622D01*
X1274685Y887637D01*
X1277125Y892283D01*
X1278976Y895787D01*
X1280669Y899055D01*
X1282244Y902125D01*
X1285039Y907716D01*
X1286299Y910275D01*
X1287440Y912677D01*
X1288464Y914921D01*
X1289448Y917086D01*
X1290314Y919133D01*
X1291102Y921062D01*
X1291850Y922952D01*
X1292519Y924803D01*
X1293110Y926574D01*
X1293661Y928307D01*
X1294173Y930078D01*
X1295039Y933543D01*
X1295393Y935314D01*
X1295748Y937125D01*
X1296062Y939015D01*
X1296377Y940944D01*
X1296692Y942992D01*
X1296968Y945157D01*
X1297559Y948582D01*
X1298307Y951377D01*
X1299448Y953700D01*
X1300984Y956023D01*
X1302362Y958110D01*
X1303818Y960748D01*
X1305157Y963582D01*
X1306141Y966299D01*
X1307165Y969645D01*
X1307637Y972362D01*
Y975078D01*
X1307165Y978307D01*
X1306968Y979763D01*
X1306771Y981771D01*
X1306614Y984133D01*
X1306456Y986850D01*
X1306338Y989803D01*
X1306259Y992913D01*
X1306181Y996062D01*
X1306141Y999251D01*
Y1004094D01*
X1306102Y1007834D01*
X1305984Y1010590D01*
X1305826Y1012559D01*
X1305551Y1013937D01*
X1305118Y1014881D01*
X1304527Y1015629D01*
X1303779Y1016338D01*
X1302559Y1017519D01*
X1301929Y1018622D01*
Y1020078D01*
X1302362Y1022204D01*
X1302559Y1023307D01*
X1302677Y1024842D01*
X1302795Y1026850D01*
X1302874Y1029173D01*
X1302952Y1031771D01*
Y1034566D01*
X1302913Y1037440D01*
X1302834Y1040433D01*
X1302716Y1043267D01*
X1302598Y1045866D01*
X1302440Y1048188D01*
X1302283Y1050314D01*
X1302086Y1052283D01*
X1301850Y1054212D01*
X1301535Y1056023D01*
X1301181Y1057874D01*
X1300787Y1059724D01*
X1300314Y1061692D01*
X1299763Y1063818D01*
X1299133Y1066102D01*
X1298385Y1068700D01*
X1297598Y1071299D01*
X1296771Y1073858D01*
X1295905Y1076417D01*
X1295039Y1078937D01*
X1294133Y1081456D01*
X1292165Y1086417D01*
X1291141Y1088858D01*
X1290118Y1091259D01*
X1289055Y1093622D01*
X1287952Y1095984D01*
X1286811Y1098346D01*
X1285669Y1100629D01*
X1284488Y1102913D01*
X1283267Y1105157D01*
X1282047Y1107322D01*
X1280787Y1109488D01*
X1279488Y1111653D01*
X1278188Y1113700D01*
X1276889Y1115787D01*
X1275511Y1117795D01*
X1274173Y1119763D01*
X1272755Y1121692D01*
X1271338Y1123582D01*
X1269921Y1125433D01*
X1268464Y1127244D01*
X1267007Y1128976D01*
X1265511Y1130669D01*
X1264015Y1132322D01*
X1262480Y1133937D01*
X1260944Y1135511D01*
X1259133Y1137244D01*
X1257283Y1138976D01*
X1255433Y1140629D01*
X1251653Y1143858D01*
X1249685Y1145393D01*
X1247755Y1146850D01*
X1245787Y1148307D01*
X1243858Y1149645D01*
X1241850Y1150984D01*
X1239881Y1152244D01*
X1237913Y1153464D01*
X1235944Y1154606D01*
X1233976Y1155669D01*
X1232007Y1156692D01*
X1230039Y1157677D01*
X1228110Y1158543D01*
X1226181Y1159370D01*
X1224251Y1160118D01*
X1222362Y1160748D01*
X1219645Y1161614D01*
X1217125Y1162322D01*
X1215039Y1162795D01*
G37*
%LPC*%
G36*
X1151850Y798779D02*
X1149055Y799409D01*
X1148070Y799212D01*
X1148661Y798149D01*
X1150551Y796929D01*
X1153464Y795826D01*
X1156929Y795118D01*
X1160314Y794842D01*
X1161535Y795000D01*
X1161417Y795354D01*
X1159881Y796023D01*
X1156771Y797165D01*
X1151850Y798779D01*
G37*
G36*
X1136929Y827086D02*
X1135196Y827952D01*
X1134133Y827913D01*
X1133622Y826850D01*
X1133425Y824606D01*
X1133385Y823149D01*
Y820866D01*
X1133425Y820314D01*
Y820039D01*
X1133228Y819803D01*
X1132952Y819645D01*
X1132559Y819606D01*
X1132165Y819803D01*
X1131850Y820314D01*
X1131614Y821102D01*
X1131535Y822047D01*
X1131456Y822952D01*
X1131259Y823622D01*
X1130944Y823937D01*
X1130551Y823897D01*
X1129645Y822716D01*
X1129803Y820826D01*
X1131102Y818188D01*
X1133543Y814763D01*
X1135866Y812086D01*
X1138031Y810118D01*
X1140590Y808543D01*
X1143937Y807086D01*
X1147283Y805826D01*
X1149330Y805275D01*
X1150433Y805393D01*
X1151102Y806141D01*
X1151496Y806771D01*
X1151811Y807283D01*
X1152047Y807716D01*
X1152204Y807913D01*
X1152795Y807834D01*
X1154173Y807480D01*
X1156181Y806889D01*
X1158661Y806141D01*
X1161732Y805078D01*
X1163464Y804291D01*
X1164094Y803543D01*
X1163779Y802834D01*
X1163307Y802125D01*
X1163385Y801574D01*
X1164015Y801062D01*
X1165314Y800551D01*
X1169055Y799330D01*
X1171574Y798976D01*
X1173425Y799488D01*
X1175275Y800905D01*
X1176456Y801889D01*
X1177637Y802677D01*
X1178779Y803228D01*
X1179685Y803425D01*
X1179842Y803582D01*
X1178976Y803976D01*
X1177204Y804527D01*
X1174685Y805196D01*
X1171889Y805984D01*
X1169212Y806968D01*
X1167007Y807992D01*
X1165551Y808937D01*
X1164094Y810039D01*
X1162283Y811023D01*
X1160314Y811929D01*
X1158307Y812637D01*
X1156377Y813149D01*
X1154724Y813385D01*
X1153464Y813346D01*
X1152755Y812913D01*
X1152362Y812519D01*
X1151889Y812244D01*
X1151377Y812204D01*
X1150905Y812322D01*
X1150039Y812677D01*
X1148425Y813070D01*
X1146338Y813543D01*
X1143976Y813976D01*
X1139842Y814881D01*
X1137244Y815826D01*
X1136141Y816889D01*
X1136496Y818070D01*
X1136889Y818740D01*
X1137322Y819842D01*
X1137755Y821181D01*
X1138110Y822598D01*
X1138385Y824370D01*
X1138307Y825590D01*
X1137834Y826456D01*
X1136929Y827086D01*
G37*
G36*
X1171929Y820354D02*
X1170078Y820826D01*
X1169055Y820078D01*
X1168937Y819488D01*
X1168700Y819055D01*
X1168543Y818779D01*
X1168385Y818622D01*
X1168031Y818700D01*
X1167362Y818937D01*
X1166496Y819212D01*
X1165472Y819566D01*
X1164370Y819881D01*
X1163425Y820000D01*
X1162755Y819881D01*
X1162322Y819606D01*
X1162007Y819330D01*
X1161496Y819133D01*
X1160905D01*
X1160275Y819251D01*
X1159685Y819448D01*
X1159251Y819488D01*
X1158937Y819409D01*
X1158818Y819251D01*
X1159291Y818779D01*
X1160629Y817952D01*
X1162637Y816889D01*
X1165078Y815708D01*
X1167755Y814448D01*
X1170433Y813267D01*
X1172952Y812204D01*
X1175078Y811456D01*
X1177125Y810826D01*
X1178188Y810629D01*
X1178503Y810944D01*
X1178267Y811811D01*
X1177952Y812519D01*
X1177519Y813228D01*
X1176968Y813897D01*
X1176456Y814370D01*
X1175905Y814881D01*
X1175433Y815629D01*
X1175039Y816417D01*
X1174803Y817204D01*
X1173779Y819015D01*
X1171929Y820354D01*
G37*
G36*
X1174212Y829606D02*
X1172795Y830118D01*
X1172519Y830000D01*
X1172165Y829685D01*
X1171850Y829212D01*
X1171574Y828661D01*
X1171141Y827992D01*
X1170590Y827716D01*
X1169645Y827874D01*
X1168228Y828425D01*
X1166889Y828937D01*
X1165984Y829133D01*
X1165433Y828937D01*
X1165118Y828385D01*
X1164842Y827992D01*
X1164488Y827755D01*
X1164055Y827716D01*
X1163582Y827874D01*
X1163228Y828031D01*
X1162992D01*
X1162952Y827913D01*
X1163070Y827637D01*
X1163858Y826968D01*
X1165472Y826023D01*
X1167677Y824881D01*
X1170196Y823661D01*
X1172874Y822440D01*
X1175393Y821377D01*
X1177598Y820511D01*
X1179251Y820039D01*
X1181141Y819842D01*
X1181968Y820433D01*
X1181574Y821574D01*
X1180000Y823149D01*
X1179212Y823897D01*
X1178543Y824645D01*
X1178149Y825393D01*
X1177992Y825944D01*
X1177362Y827086D01*
X1175905Y828425D01*
X1174212Y829606D01*
G37*
G36*
X1137322Y837598D02*
X1136417Y837834D01*
X1135826Y837519D01*
X1135393Y836653D01*
X1135000Y835944D01*
X1134409Y835236D01*
X1133700Y834606D01*
X1132992Y834133D01*
X1132007Y833503D01*
X1132244Y832795D01*
X1134330Y831535D01*
X1138818Y829251D01*
X1141181Y828031D01*
X1143700Y826732D01*
X1146062Y825472D01*
X1147952Y824409D01*
X1149409Y823622D01*
X1150629Y823070D01*
X1151456Y822755D01*
X1151732Y822795D01*
X1151377Y823188D01*
X1150433Y823937D01*
X1148976Y824803D01*
X1147244Y825826D01*
X1145433Y826929D01*
X1144133Y827992D01*
X1143385Y828897D01*
X1143267Y829566D01*
X1143385Y830118D01*
X1143307Y830669D01*
X1143110Y831141D01*
X1142716Y831496D01*
X1142283Y831850D01*
X1141968Y832401D01*
X1141732Y833070D01*
X1141653Y833700D01*
X1141417Y834488D01*
X1140826Y835314D01*
X1139921Y836102D01*
X1138858Y836811D01*
X1137322Y837598D01*
G37*
G36*
X1191811Y828110D02*
X1191653Y828188D01*
X1191456Y828110D01*
X1191141Y827913D01*
X1190866Y827598D01*
X1190590Y827244D01*
X1190433Y826850D01*
X1190472Y826574D01*
X1190669Y826377D01*
X1191023Y826299D01*
X1191456Y826377D01*
X1191771Y826574D01*
X1192007Y826850D01*
X1192086Y827244D01*
X1192047Y827598D01*
X1191968Y827913D01*
X1191811Y828110D01*
G37*
G36*
X1148110Y865275D02*
X1147637Y866023D01*
X1146692Y865866D01*
X1146299Y865433D01*
X1145866Y864685D01*
X1145511Y863661D01*
X1145157Y862519D01*
X1144763Y861338D01*
X1144251Y860433D01*
X1143582Y859842D01*
X1142913Y859645D01*
X1142874Y859527D01*
X1143425Y859094D01*
X1144488Y858464D01*
X1146062Y857598D01*
X1148031Y856574D01*
X1150354Y855354D01*
X1152992Y854055D01*
X1155905Y852637D01*
X1158937Y851181D01*
X1161929Y849685D01*
X1164803Y848228D01*
X1167559Y846889D01*
X1170000Y845590D01*
X1172086Y844488D01*
X1173818Y843582D01*
X1175000Y842874D01*
X1177283Y841417D01*
X1178346Y840551D01*
X1178267Y840078D01*
X1176338Y839606D01*
X1175629Y839212D01*
X1175118Y838700D01*
X1174921Y838149D01*
X1174606Y837204D01*
X1173779Y836850D01*
X1172480Y836968D01*
X1170944Y837716D01*
X1170236Y837992D01*
X1169645Y838070D01*
X1169133Y837913D01*
X1168740Y837480D01*
X1168267Y837047D01*
X1167598Y836889D01*
X1166692Y837047D01*
X1165433Y837519D01*
X1163976Y838110D01*
X1163110Y838385D01*
X1162834Y838346D01*
X1163110Y838031D01*
X1163897Y837480D01*
X1165196Y836692D01*
X1166968Y835669D01*
X1169133Y834488D01*
X1172007Y833070D01*
X1175039Y831692D01*
X1178031Y830433D01*
X1180866Y829291D01*
X1183425Y828425D01*
X1185551Y827795D01*
X1187047Y827519D01*
X1187795Y827637D01*
X1187952Y827834D01*
X1187874Y828031D01*
X1187637Y828149D01*
X1187204Y828188D01*
X1186062Y828897D01*
X1184960Y830748D01*
X1184055Y833425D01*
X1183464Y836496D01*
X1183110Y839566D01*
X1189763Y837204D01*
X1192401Y836299D01*
X1194763Y835551D01*
X1196614Y835078D01*
X1197598Y834842D01*
X1198228Y835393D01*
X1199133Y836811D01*
X1200118Y838937D01*
X1201102Y841496D01*
X1202086Y844094D01*
X1203070Y846299D01*
X1203937Y847874D01*
X1204566Y848582D01*
X1204881Y848779D01*
Y848937D01*
X1204645Y849055D01*
X1204094Y849094D01*
X1202519Y848818D01*
X1201220Y847598D01*
X1200000Y845157D01*
X1198661Y841299D01*
X1197559Y837913D01*
X1196574Y836259D01*
X1195472Y836062D01*
X1193858Y837007D01*
X1192992Y837834D01*
X1192795Y838937D01*
X1193228Y840866D01*
X1194370Y844094D01*
X1195196Y846456D01*
X1195787Y848425D01*
X1196102Y849842D01*
X1196062Y850511D01*
X1195157Y850905D01*
X1192992Y851574D01*
X1189921Y852401D01*
X1186299Y853346D01*
X1177047Y855669D01*
X1175472Y850511D01*
X1174803Y848503D01*
X1174133Y846889D01*
X1173543Y845748D01*
X1173149Y845354D01*
X1171377Y845984D01*
X1168937Y847401D01*
X1166811Y848976D01*
X1165866Y850157D01*
X1165984Y850787D01*
X1166299Y851850D01*
X1166771Y853149D01*
X1167362Y854566D01*
X1167952Y855905D01*
X1168425Y857086D01*
X1168779Y857913D01*
X1168897Y858307D01*
X1167795Y858818D01*
X1165236Y859566D01*
X1162440Y860314D01*
X1160669Y860629D01*
X1160393Y860354D01*
X1160039Y859645D01*
X1159685Y858582D01*
X1159370Y857283D01*
X1158661Y855078D01*
X1157440Y854094D01*
X1155472Y854251D01*
X1152440Y855472D01*
X1149330Y857086D01*
X1147755Y858346D01*
X1147322Y859763D01*
X1147755Y861771D01*
X1148188Y863818D01*
X1148110Y865275D01*
G37*
G36*
X1143503Y856614D02*
X1142559Y856929D01*
X1142086Y856692D01*
X1141850Y855826D01*
X1141535Y855118D01*
X1140866Y854370D01*
X1139960Y853622D01*
X1138937Y853070D01*
X1137559Y852362D01*
X1136850Y851496D01*
X1136692Y850118D01*
X1136929Y847834D01*
X1137165Y845669D01*
X1137047Y844291D01*
X1136535Y843425D01*
X1135472Y842834D01*
X1134685Y842244D01*
X1135275Y841417D01*
X1137440Y840078D01*
X1141653Y837952D01*
X1144606Y836535D01*
X1147007Y835393D01*
X1148818Y834606D01*
X1150039Y834133D01*
X1150629Y833976D01*
X1150590Y834173D01*
X1149921Y834685D01*
X1148582Y835590D01*
X1147637Y836338D01*
X1146889Y837086D01*
X1146456Y837795D01*
X1146377Y838346D01*
X1146456Y838858D01*
X1146377Y839330D01*
X1146102Y839763D01*
X1145708Y840078D01*
X1145314Y840433D01*
X1145000Y840944D01*
X1144724Y841574D01*
X1144645Y842204D01*
X1144370Y843070D01*
X1143543Y844212D01*
X1142362Y845551D01*
X1140866Y846929D01*
X1138818Y848700D01*
X1138031Y849527D01*
X1138425Y849645D01*
X1140000Y849133D01*
X1141653Y848503D01*
X1143976Y847440D01*
X1146614Y846141D01*
X1149330Y844763D01*
X1151653Y843582D01*
X1153503Y842716D01*
X1154842Y842125D01*
X1155629Y841889D01*
X1155787Y842007D01*
X1155314Y842401D01*
X1154133Y843188D01*
X1152165Y844291D01*
X1150826Y845157D01*
X1149842Y846023D01*
X1149251Y846771D01*
Y847283D01*
X1149409Y847795D01*
X1149370Y848385D01*
X1149133Y849015D01*
X1148700Y849606D01*
X1148307Y850275D01*
X1147992Y850984D01*
X1147874Y851771D01*
Y852440D01*
X1147795Y853149D01*
X1147244Y854015D01*
X1146338Y854881D01*
X1145196Y855708D01*
X1143503Y856614D01*
G37*
G36*
X1152559Y1063700D02*
X1143779Y1063818D01*
X1142834Y1060669D01*
X1142598Y1059763D01*
X1142244Y1058464D01*
X1141811Y1056889D01*
X1141338Y1055039D01*
X1140787Y1052913D01*
X1140196Y1050590D01*
X1139566Y1048070D01*
X1138897Y1045433D01*
X1138188Y1042677D01*
X1137519Y1039803D01*
X1136771Y1036929D01*
X1136062Y1034055D01*
X1135393Y1031181D01*
X1134685Y1028425D01*
X1134055Y1025708D01*
X1133425Y1023149D01*
X1132874Y1020787D01*
X1132322Y1018582D01*
X1131889Y1016653D01*
X1131496Y1014921D01*
X1130354Y1010275D01*
X1129370Y1007322D01*
X1128385Y1005748D01*
X1127244Y1005078D01*
X1126141Y1004881D01*
X1125196Y1005039D01*
X1124251Y1005590D01*
X1123307Y1006535D01*
X1122401Y1007401D01*
X1121456Y1007952D01*
X1120511Y1008149D01*
X1119527Y1008031D01*
X1118464Y1007322D01*
X1117795Y1005551D01*
X1117362Y1001811D01*
X1116968Y995314D01*
X1116732Y990511D01*
X1116535Y986456D01*
X1116456Y982992D01*
X1116417Y980078D01*
X1116456Y977598D01*
X1116614Y975433D01*
X1116850Y973464D01*
X1117204Y971692D01*
X1117716Y969921D01*
X1118346Y968110D01*
X1119133Y966102D01*
X1120039Y963858D01*
X1121968Y959409D01*
X1123267Y956929D01*
X1124173Y956102D01*
X1124881Y956535D01*
X1126732Y957677D01*
X1129133Y957755D01*
X1131496Y956968D01*
X1133031Y955354D01*
X1133543Y954488D01*
X1134251Y953740D01*
X1135039Y953149D01*
X1135787Y952834D01*
X1136653Y952401D01*
X1137204Y951574D01*
X1137519Y950236D01*
X1137598Y948188D01*
X1137637Y947125D01*
X1137716Y945629D01*
X1137874Y943818D01*
X1138070Y941771D01*
X1138267Y939488D01*
X1138543Y937086D01*
X1138818Y934606D01*
X1139133Y932125D01*
X1139566Y928897D01*
X1140039Y926062D01*
X1140472Y923661D01*
X1140944Y921535D01*
X1141496Y919606D01*
X1142125Y917834D01*
X1142834Y916181D01*
X1143622Y914527D01*
X1144291Y913346D01*
X1145039Y912125D01*
X1145866Y910787D01*
X1146811Y909409D01*
X1147874Y907913D01*
X1149055Y906338D01*
X1150314Y904685D01*
X1151692Y902952D01*
X1153149Y901141D01*
X1154685Y899251D01*
X1156338Y897322D01*
X1158070Y895314D01*
X1159921Y893228D01*
X1161811Y891102D01*
X1163858Y888897D01*
X1165905Y886653D01*
X1168070Y884330D01*
X1170314Y881968D01*
X1172637Y879566D01*
X1175039Y877125D01*
X1180826Y871181D01*
X1180433Y876653D01*
X1180039Y882086D01*
X1181377Y875905D01*
X1182244Y872559D01*
X1183267Y870196D01*
X1184803Y868228D01*
X1187165Y866102D01*
X1188818Y864842D01*
X1190472Y863661D01*
X1192204Y862598D01*
X1194015Y861574D01*
X1195866Y860669D01*
X1197834Y859842D01*
X1199881Y859094D01*
X1202047Y858385D01*
X1204370Y857795D01*
X1206811Y857244D01*
X1209370Y856771D01*
X1212125Y856338D01*
X1215078Y855984D01*
X1218149Y855669D01*
X1221456Y855433D01*
X1224960Y855196D01*
X1228543Y855039D01*
X1231338Y854921D01*
X1233582D01*
X1235433Y855078D01*
X1237047Y855354D01*
X1238582Y855787D01*
X1240275Y856417D01*
X1242283Y857244D01*
X1245275Y858582D01*
X1247795Y860039D01*
X1249881Y861535D01*
X1251692Y863307D01*
X1253228Y865393D01*
X1254645Y867952D01*
X1255984Y871023D01*
X1257362Y874724D01*
X1258818Y878543D01*
X1259803Y880905D01*
X1260433Y881771D01*
X1260629Y881102D01*
X1260511Y879606D01*
X1260118Y877559D01*
X1259488Y875275D01*
X1258779Y873031D01*
X1256850Y867795D01*
X1259291Y870629D01*
X1259803Y871299D01*
X1260472Y872362D01*
X1261377Y873779D01*
X1262362Y875551D01*
X1263543Y877598D01*
X1264842Y879842D01*
X1266220Y882362D01*
X1267677Y885078D01*
X1269212Y887874D01*
X1270787Y890826D01*
X1272362Y893858D01*
X1273976Y896889D01*
X1275551Y899921D01*
X1277086Y902913D01*
X1278582Y905826D01*
X1281338Y911338D01*
X1282559Y913818D01*
X1283622Y916062D01*
X1284566Y918070D01*
X1285511Y920275D01*
X1286377Y922204D01*
X1287125Y924055D01*
X1287755Y925748D01*
X1288346Y927440D01*
X1288858Y929133D01*
X1289291Y930944D01*
X1289724Y932874D01*
X1290157Y935000D01*
X1290590Y937362D01*
X1291023Y940039D01*
X1291535Y943110D01*
X1292007Y946181D01*
X1292480Y948740D01*
X1292952Y950826D01*
X1293464Y952637D01*
X1294094Y954212D01*
X1294803Y955669D01*
X1295669Y957125D01*
X1296732Y958700D01*
X1298543Y961456D01*
X1300039Y963976D01*
X1301102Y966417D01*
X1301889Y968740D01*
X1302322Y971141D01*
X1302519Y973622D01*
X1302401Y976299D01*
X1302047Y979251D01*
X1301811Y980826D01*
X1301653Y982834D01*
X1301496Y985078D01*
X1301338Y987559D01*
X1301259Y990157D01*
X1301141Y992795D01*
Y997992D01*
X1301220Y1003307D01*
X1301259Y1007244D01*
X1301220Y1010039D01*
X1301062Y1011771D01*
X1300826Y1012755D01*
X1300433Y1013149D01*
X1299842D01*
X1299055Y1012952D01*
X1296968Y1012992D01*
X1295433Y1014291D01*
X1294370Y1017086D01*
X1293700Y1021496D01*
X1293070Y1027598D01*
X1292559Y1032992D01*
X1292047Y1037834D01*
X1291614Y1042086D01*
X1291220Y1045787D01*
X1290826Y1049055D01*
X1290472Y1051811D01*
X1290118Y1054133D01*
X1289763Y1056062D01*
X1289409Y1057677D01*
X1289015Y1058976D01*
X1288622Y1059960D01*
X1288149Y1060708D01*
X1287677Y1061220D01*
X1287125Y1061574D01*
X1286496Y1061771D01*
X1285826Y1061889D01*
X1285039Y1061929D01*
X1284173Y1061889D01*
X1283228D01*
X1281968Y1061850D01*
X1280314Y1061692D01*
X1278267Y1061417D01*
X1275944Y1061062D01*
X1273425Y1060669D01*
X1270748Y1060196D01*
X1267992Y1059645D01*
X1265275Y1059094D01*
X1263188Y1058661D01*
X1260944Y1058188D01*
X1258582Y1057716D01*
X1256102Y1057204D01*
X1253543Y1056732D01*
X1250944Y1056259D01*
X1248307Y1055708D01*
X1245629Y1055236D01*
X1242952Y1054724D01*
X1237677Y1053779D01*
X1235157Y1053346D01*
X1232677Y1052913D01*
X1230275Y1052519D01*
X1228031Y1052125D01*
X1225905Y1051771D01*
X1223976Y1051496D01*
X1222204Y1051181D01*
X1220629Y1050984D01*
X1219291Y1050787D01*
X1217401Y1050629D01*
X1215393Y1050590D01*
X1213228Y1050669D01*
X1210905Y1050905D01*
X1208464Y1051220D01*
X1205866Y1051653D01*
X1203149Y1052204D01*
X1200354Y1052913D01*
X1197401Y1053661D01*
X1194370Y1054606D01*
X1191181Y1055629D01*
X1187952Y1056771D01*
X1185393Y1057677D01*
X1182952Y1058503D01*
X1180551Y1059251D01*
X1178267Y1059960D01*
X1176062Y1060590D01*
X1173897Y1061141D01*
X1171771Y1061653D01*
X1169645Y1062086D01*
X1167598Y1062440D01*
X1165511Y1062795D01*
X1163425Y1063070D01*
X1161338Y1063267D01*
X1159212Y1063464D01*
X1157047Y1063582D01*
X1154803Y1063661D01*
X1152559Y1063700D01*
G37*
G36*
X1146614Y901614D02*
X1145984Y902204D01*
X1145708Y901338D01*
X1145078Y899055D01*
X1144212Y895748D01*
X1143188Y891732D01*
X1142204Y887480D01*
X1141377Y883503D01*
X1140826Y880236D01*
X1140629Y878149D01*
X1140787Y876181D01*
X1141771Y874763D01*
X1144251Y873267D01*
X1148976Y871102D01*
X1150551Y870393D01*
X1152440Y869645D01*
X1154566Y868858D01*
X1156889Y867992D01*
X1159370Y867086D01*
X1162007Y866220D01*
X1164685Y865314D01*
X1167401Y864409D01*
X1170157Y863543D01*
X1172834Y862716D01*
X1175472Y861929D01*
X1177952Y861220D01*
X1180314Y860590D01*
X1182480Y860000D01*
X1184409Y859527D01*
X1186023Y859173D01*
X1189566Y858503D01*
X1185039Y861811D01*
X1184015Y862598D01*
X1182834Y863543D01*
X1181535Y864685D01*
X1180078Y865944D01*
X1178543Y867362D01*
X1176889Y868897D01*
X1175196Y870511D01*
X1173385Y872244D01*
X1169724Y875905D01*
X1167874Y877795D01*
X1165984Y879685D01*
X1164133Y881653D01*
X1162322Y883543D01*
X1160551Y885472D01*
X1158858Y887322D01*
X1157204Y889133D01*
X1155669Y890866D01*
X1154251Y892519D01*
X1152952Y894094D01*
X1150314Y897283D01*
X1148110Y899842D01*
X1146614Y901614D01*
G37*
%LPD*%
G36*
X1193897Y910787D02*
X1192952Y910984D01*
X1192440Y910944D01*
X1192362Y910708D01*
X1192716Y910314D01*
X1193464Y909724D01*
X1194566Y909015D01*
X1196062Y908149D01*
X1197913Y907165D01*
X1200118Y906062D01*
X1202598Y904881D01*
X1209527Y901692D01*
X1199566Y901417D01*
X1196456Y901299D01*
X1194251Y901220D01*
X1193031Y901141D01*
X1192834Y901102D01*
X1193661Y901023D01*
X1195551Y900984D01*
X1198543Y900944D01*
X1202716Y900866D01*
X1206653Y900787D01*
X1210433Y900669D01*
X1214015Y900551D01*
X1217401Y900433D01*
X1220590Y900236D01*
X1223582Y900039D01*
X1226377Y899842D01*
X1228976Y899606D01*
X1231377Y899330D01*
X1233582Y899055D01*
X1235590Y898740D01*
X1237362Y898385D01*
X1238976Y898070D01*
X1240393Y897677D01*
X1241574Y897283D01*
X1242598Y896850D01*
X1245354Y895669D01*
X1246968Y895275D01*
X1247322Y895629D01*
X1246181Y896771D01*
X1245157Y897362D01*
X1243307Y898110D01*
X1240944Y898897D01*
X1238346Y899645D01*
X1231968Y901377D01*
X1244409Y902755D01*
X1244763Y906496D01*
X1244803Y908937D01*
X1244055Y910078D01*
X1242086Y910118D01*
X1238503Y909212D01*
X1236456Y908661D01*
X1234527Y908188D01*
X1232716Y907834D01*
X1230905Y907519D01*
X1229133Y907244D01*
X1227322Y907086D01*
X1225433Y907007D01*
X1223385D01*
X1221220Y907047D01*
X1218858Y907125D01*
X1216220Y907322D01*
X1213307Y907559D01*
X1208110Y908031D01*
X1205669Y908307D01*
X1203346Y908622D01*
X1201299Y908937D01*
X1199527Y909251D01*
X1198110Y909527D01*
X1197165Y909803D01*
X1195275Y910433D01*
X1193897Y910787D01*
G37*
G36*
X1217244Y898503D02*
X1215748Y898582D01*
X1214763Y898543D01*
X1214448Y898425D01*
X1214803Y898149D01*
X1215905Y897795D01*
X1217834Y897322D01*
X1220314Y896811D01*
X1222559Y896417D01*
X1224291Y896102D01*
X1225314Y895984D01*
X1226417Y896102D01*
X1225905Y896614D01*
X1224212Y897244D01*
X1221653Y897874D01*
X1219251Y898267D01*
X1217244Y898503D01*
G37*
G36*
X1189173Y911417D02*
X1188976Y911574D01*
X1188228Y910708D01*
X1187834Y909251D01*
X1187755Y907559D01*
X1188070Y905905D01*
X1188425Y905236D01*
X1188700Y905314D01*
X1188976Y906220D01*
X1189212Y907992D01*
X1189330Y909488D01*
X1189291Y910669D01*
X1189173Y911417D01*
G37*
G36*
X1143385Y927440D02*
X1142913Y928267D01*
X1142716Y927086D01*
X1142992Y924055D01*
X1143897Y920551D01*
X1145393Y916653D01*
X1146968Y913425D01*
X1148188Y912125D01*
Y912480D01*
X1147913Y913425D01*
X1147362Y914803D01*
X1146653Y916496D01*
X1145826Y918503D01*
X1145078Y920708D01*
X1144448Y922834D01*
X1144015Y924606D01*
X1143385Y927440D01*
G37*
G36*
X1213582Y926299D02*
X1211850Y926417D01*
X1209527Y926377D01*
X1208582Y926181D01*
X1208897Y925787D01*
X1210275Y925000D01*
X1211535Y924488D01*
X1213070Y924055D01*
X1214763Y923740D01*
X1216338Y923622D01*
X1218228Y923661D01*
X1219055Y923858D01*
X1218897Y924251D01*
X1217913Y925039D01*
X1216811Y925590D01*
X1215314Y926023D01*
X1213582Y926299D01*
G37*
G36*
X1243110Y930118D02*
X1242480Y930236D01*
X1241692Y930078D01*
X1240787Y929685D01*
X1239842Y929094D01*
X1239055Y928346D01*
X1238031Y926968D01*
X1238307Y926496D01*
X1239645Y926929D01*
X1241692Y928307D01*
X1242755Y929212D01*
X1243228Y929803D01*
X1243110Y930118D01*
G37*
G36*
X1228976Y955748D02*
X1228858Y956417D01*
X1228700Y955314D01*
X1228582Y952952D01*
X1228543Y950196D01*
X1228582Y947362D01*
X1228700Y944842D01*
X1228858Y943503D01*
X1228976Y944015D01*
X1229055Y946141D01*
Y953464D01*
X1228976Y955748D01*
G37*
G36*
X1243267Y947283D02*
X1242992Y947401D01*
X1242874Y947283D01*
X1242952Y946850D01*
X1243188Y946259D01*
X1243582Y945511D01*
X1244055Y944763D01*
X1244488Y944173D01*
X1244881Y943779D01*
X1245157Y943582D01*
X1245275Y943779D01*
X1245196Y944173D01*
X1244960Y944763D01*
X1244566Y945511D01*
X1244133Y946259D01*
X1243661Y946850D01*
X1243267Y947283D01*
G37*
G36*
X1132244Y965118D02*
X1131929Y965196D01*
X1131535Y965078D01*
X1131141Y964724D01*
X1130826Y964251D01*
X1130629Y963622D01*
X1130551Y963031D01*
X1130433Y962519D01*
X1130196Y962165D01*
X1129803Y962125D01*
X1129291Y962283D01*
X1128740Y962559D01*
X1128582Y962519D01*
X1128779Y962204D01*
X1129330Y961653D01*
X1130039Y960984D01*
X1130551Y960826D01*
X1131023Y961062D01*
X1131574Y961732D01*
X1131929Y962362D01*
X1132244Y963110D01*
X1132440Y963818D01*
X1132559Y964409D01*
X1132440Y964842D01*
X1132244Y965118D01*
G37*
G36*
X1123188Y995826D02*
X1122204Y996889D01*
X1121889Y996653D01*
X1122322Y995157D01*
X1123464Y992204D01*
X1124921Y988307D01*
X1125393Y985511D01*
X1124842Y983464D01*
X1123307Y981811D01*
X1122322Y980944D01*
X1121811Y980118D01*
X1121692Y979251D01*
X1121929Y978307D01*
X1122244Y977519D01*
X1122440Y976574D01*
X1122598Y975669D01*
X1122559Y974881D01*
X1122755Y972440D01*
X1123503Y969330D01*
X1124566Y966535D01*
X1125629Y965000D01*
X1125984Y964842D01*
X1126102Y965078D01*
X1125944Y965629D01*
X1125511Y966496D01*
X1125078Y967677D01*
X1124763Y969330D01*
X1124606Y971299D01*
X1124645Y973267D01*
X1124724Y975393D01*
X1124606Y976850D01*
X1124291Y977677D01*
X1123700Y977952D01*
X1122716Y978228D01*
X1122559Y978976D01*
X1123149Y980000D01*
X1124488Y981023D01*
X1125433Y982007D01*
X1126023Y983464D01*
X1126338Y985354D01*
X1126299Y987519D01*
X1125944Y989724D01*
X1125314Y991968D01*
X1124409Y994055D01*
X1123188Y995826D01*
G37*
G36*
X1128307Y970866D02*
X1128149Y971062D01*
X1127913Y970984D01*
X1127716Y970669D01*
X1127637Y970236D01*
X1127677Y969724D01*
X1127834Y969173D01*
X1128070Y968818D01*
X1128228Y968779D01*
X1128346Y969094D01*
X1128425Y969763D01*
Y970433D01*
X1128307Y970866D01*
G37*
G36*
X1187992Y992952D02*
X1186377Y993070D01*
X1184724Y993031D01*
X1183031Y992874D01*
X1181062Y992598D01*
X1178779Y992125D01*
X1176496Y991574D01*
X1174055Y990826D01*
X1171574Y989921D01*
X1169173Y988976D01*
X1167086Y988031D01*
X1165393Y987125D01*
X1164251Y986338D01*
X1163858Y985708D01*
X1164212Y985078D01*
X1165236Y984133D01*
X1166692Y983031D01*
X1168543Y981811D01*
X1170590Y980629D01*
X1172677Y979488D01*
X1174685Y978582D01*
X1176456Y977913D01*
X1178110Y977440D01*
X1179881Y977125D01*
X1181811Y976889D01*
X1183818Y976771D01*
X1185866Y976732D01*
X1188031Y976811D01*
X1190196Y976968D01*
X1192401Y977204D01*
X1194645Y977598D01*
X1196850Y978031D01*
X1199015Y978582D01*
X1201141Y979251D01*
X1204094Y980275D01*
X1206653Y981181D01*
X1208503Y982007D01*
X1209448Y982519D01*
Y983228D01*
X1208543Y984291D01*
X1206889Y985590D01*
X1204645Y987007D01*
X1202086Y988425D01*
X1199370Y989763D01*
X1196653Y990905D01*
X1194133Y991692D01*
X1191771Y992244D01*
X1189724Y992677D01*
X1187992Y992952D01*
G37*
%LPC*%
G36*
X1194212Y990118D02*
X1192913Y990354D01*
X1191377Y990275D01*
X1190708Y989921D01*
X1190826Y989015D01*
X1191535Y987244D01*
X1192007Y985826D01*
X1192283Y984448D01*
Y983228D01*
X1192047Y982244D01*
X1191299Y980078D01*
X1191338Y978937D01*
X1192362Y978543D01*
X1194488Y978858D01*
X1198937Y980039D01*
X1202952Y981456D01*
X1205787Y982834D01*
X1206653Y983818D01*
X1205826Y984606D01*
X1204370Y985590D01*
X1202480Y986653D01*
X1200314Y987755D01*
X1198110Y988740D01*
X1195984Y989566D01*
X1194212Y990118D01*
G37*
G36*
X1178267Y988976D02*
X1178149Y989409D01*
X1177637Y989251D01*
X1176496Y988818D01*
X1174803Y988149D01*
X1172874Y987362D01*
X1170905Y986535D01*
X1169330Y985708D01*
X1168267Y985039D01*
X1167874Y984566D01*
X1168818Y983503D01*
X1171062Y982007D01*
X1173897Y980511D01*
X1176456Y979488D01*
X1177559Y979330D01*
X1178149Y979842D01*
X1178425Y981338D01*
X1178464Y984173D01*
Y986181D01*
X1178385Y987874D01*
X1178267Y988976D01*
G37*
%LPD*%
G36*
X1266535Y992047D02*
X1264251Y992086D01*
X1261968Y992007D01*
X1259645Y991771D01*
X1257362Y991417D01*
X1255196Y990944D01*
X1252322Y990118D01*
X1249448Y989094D01*
X1246653Y987992D01*
X1244094Y986771D01*
X1241850Y985551D01*
X1240039Y984409D01*
X1238779Y983346D01*
X1238149Y982440D01*
X1237992Y981771D01*
X1237952Y981299D01*
X1238031Y981062D01*
X1238188Y981102D01*
X1238740Y981141D01*
X1239803Y980866D01*
X1241259Y980314D01*
X1242913Y979566D01*
X1245118Y978700D01*
X1247716Y977992D01*
X1250629Y977519D01*
X1253779Y977165D01*
X1257007Y977047D01*
X1260314Y977125D01*
X1263503Y977401D01*
X1266535Y977913D01*
X1268976Y978503D01*
X1271614Y979291D01*
X1274291Y980196D01*
X1276889Y981141D01*
X1279251Y982125D01*
X1281181Y983070D01*
X1282637Y983897D01*
X1283385Y984527D01*
X1282716Y985866D01*
X1280118Y987795D01*
X1276496Y989724D01*
X1272716Y991141D01*
X1270787Y991614D01*
X1268700Y991889D01*
X1266535Y992047D01*
G37*
%LPC*%
G36*
X1253070Y987755D02*
X1252440Y988307D01*
X1250275Y987677D01*
X1246141Y985866D01*
X1243503Y984566D01*
X1242007Y983582D01*
X1241456Y982795D01*
X1241732Y982047D01*
X1243897Y980866D01*
X1247677Y979448D01*
X1251417Y978425D01*
X1253385Y978307D01*
X1253425Y978622D01*
X1253267Y979291D01*
X1252992Y980157D01*
X1252559Y981141D01*
X1252007Y982480D01*
X1251850Y983622D01*
X1251968Y984803D01*
X1252480Y986062D01*
X1253070Y987755D01*
G37*
G36*
X1269685Y988976D02*
X1267007Y989330D01*
X1265826Y989291D01*
X1265275Y989055D01*
X1265314Y988425D01*
X1265866Y987362D01*
X1266259Y986338D01*
X1266535Y985000D01*
X1266574Y983543D01*
X1266496Y982204D01*
X1266220Y980433D01*
X1266417Y979606D01*
X1267165Y979448D01*
X1268740Y979842D01*
X1270236Y980314D01*
X1272165Y980984D01*
X1274330Y981811D01*
X1276496Y982677D01*
X1279094Y983818D01*
X1280314Y984566D01*
X1280354Y985157D01*
X1279448Y985787D01*
X1276692Y986968D01*
X1273188Y988110D01*
X1269685Y988976D01*
G37*
%LPD*%
G36*
X1179763Y1001496D02*
X1177401Y1001614D01*
X1175629Y1001496D01*
X1174330Y1001181D01*
X1173503Y1000708D01*
X1173070Y999960D01*
X1172913Y999015D01*
X1173307Y998149D01*
X1174803Y997480D01*
X1177795Y996889D01*
X1182795Y996299D01*
X1184921Y995984D01*
X1187244Y995629D01*
X1189645Y995236D01*
X1192047Y994724D01*
X1194409Y994212D01*
X1196653Y993661D01*
X1198700Y993110D01*
X1200472Y992598D01*
X1204173Y991417D01*
X1206771Y990787D01*
X1208464Y990708D01*
X1209409Y991062D01*
X1209803Y991574D01*
X1210039Y992204D01*
X1210118Y992874D01*
X1210000Y993464D01*
X1209527Y993976D01*
X1208582Y994527D01*
X1207204Y995157D01*
X1205433Y995866D01*
X1203385Y996614D01*
X1201102Y997322D01*
X1198661Y998070D01*
X1196102Y998779D01*
X1193582Y999409D01*
X1191102Y999960D01*
X1188700Y1000433D01*
X1186574Y1000748D01*
X1182795Y1001220D01*
X1179763Y1001496D01*
G37*
G36*
X1283818Y1001456D02*
X1281181Y1001496D01*
X1278385Y1001456D01*
X1275433Y1001338D01*
X1272440Y1001102D01*
X1269370Y1000826D01*
X1266338Y1000433D01*
X1263267Y1000000D01*
X1260314Y999527D01*
X1257440Y998976D01*
X1254724Y998385D01*
X1252165Y997755D01*
X1249842Y997086D01*
X1247795Y996417D01*
X1245984Y995708D01*
X1244566Y995000D01*
X1243464Y994251D01*
X1242795Y993543D01*
X1242559Y992834D01*
X1242992Y991377D01*
X1244448Y990866D01*
X1247322Y991259D01*
X1251889Y992637D01*
X1254409Y993385D01*
X1256929Y994094D01*
X1259409Y994724D01*
X1261929Y995275D01*
X1264448Y995708D01*
X1266968Y996102D01*
X1269527Y996417D01*
X1272125Y996653D01*
X1274724Y996811D01*
X1277401Y996889D01*
X1280157Y996929D01*
X1282952Y996850D01*
X1288228Y996732D01*
X1291102Y996889D01*
X1292283Y997401D01*
X1292519Y998464D01*
X1292322Y999409D01*
X1291692Y1000118D01*
X1290433Y1000590D01*
X1288464Y1000984D01*
X1286299Y1001299D01*
X1283818Y1001456D01*
G37*
G36*
X1170236Y1000708D02*
X1168385Y1000787D01*
X1164724Y1000433D01*
X1160393Y999803D01*
X1157244Y999015D01*
X1155393Y998070D01*
X1154763Y996968D01*
X1155314Y995944D01*
X1156968Y995433D01*
X1159842Y995354D01*
X1164055Y995748D01*
X1167440Y996259D01*
X1169409Y996811D01*
X1170354Y997598D01*
X1170748Y998818D01*
X1170826Y1000118D01*
X1170236Y1000708D01*
G37*
G36*
X1220944Y1012952D02*
X1219370Y1012992D01*
X1217755Y1012952D01*
X1216811Y1012874D01*
X1216574Y1012716D01*
X1217086Y1012559D01*
X1218149Y1012440D01*
X1219370Y1012401D01*
X1220551Y1012440D01*
X1221614Y1012559D01*
X1222125Y1012716D01*
X1221889Y1012874D01*
X1220944Y1012952D01*
G37*
G36*
X1202716Y1018858D02*
X1201338D01*
X1200629Y1018700D01*
Y1018425D01*
X1201181Y1017992D01*
X1202125Y1017677D01*
X1203582Y1017362D01*
X1205354Y1017204D01*
X1207244Y1017165D01*
X1209606Y1017244D01*
X1210590Y1017362D01*
X1210275Y1017598D01*
X1208779Y1017992D01*
X1207322Y1018307D01*
X1205708Y1018543D01*
X1204133Y1018740D01*
X1202716Y1018858D01*
G37*
D11*
X210472Y109291D02*
Y17874D01*
X568385D01*
X567598Y109291D01*
X210472D01*
X260866Y256102D02*
X367952D01*
Y467125D01*
X259685D01*
Y256102D01*
X258897Y326181D02*
X367952D01*
Y401771D01*
X259291D01*
D12*
X2334999Y-00009487D02*
X2340984D01*
X2352992D01*
Y40472D01*
Y110472D02*
Y134488D01*
X2289999Y187480D02*
X2273976D01*
X2135984D02*
X2120000D01*
X2056968Y134488D02*
Y110472D01*
Y40472D02*
Y-00009487D01*
X2068976D01*
X2075000D01*
X2320984Y-00024487D02*
X2088976D01*
X2320984Y-00032479D02*
X2088976D01*
X2326968Y-00017479D02*
Y-00018463D01*
Y-00026495D01*
X2082992Y-00017479D02*
Y-00018463D01*
Y-00026495D01*
X2352992Y-00009487D02*
X2362992Y-00026495D01*
X2352992Y-00032479D01*
X2341968Y-00014487D01*
X2056968Y-00009487D02*
X2046968Y-00026495D01*
X2056968Y-00032479D01*
X2067992Y-00015471D01*
D11*
X2352874Y517362D02*
Y537992D01*
X1967086D01*
Y418976D01*
X2352874D01*
Y517362D01*
D12*
X607007Y1127401D02*
X732952D01*
Y1178582D02*
Y1127401D01*
Y1178582D02*
X607007D01*
Y1127401D02*
Y1178582D01*
X383858Y646850D02*
Y879133D01*
X616102D01*
Y646850D01*
X383858D01*
D11*
X1772755Y109488D02*
X1729448D01*
Y46496D01*
X1772755D01*
X1804212Y109488D02*
X1847559D01*
Y70118D01*
Y46496D01*
X1804212D01*
X1772755Y179488D02*
X1729448D01*
Y116496D01*
X1772755D01*
X1804212Y179488D02*
X1847559D01*
Y140118D01*
Y116496D01*
X1804212D01*
X1804566Y186023D02*
X1847874D01*
Y249015D01*
X1804566D01*
X1773070Y186023D02*
X1729763D01*
Y225393D01*
Y249015D01*
X1773070D01*
X1334251Y184488D02*
X1290944D01*
Y121496D01*
X1334251D01*
X1365748Y184488D02*
X1409055D01*
Y145118D01*
Y121496D01*
X1365748D01*
X1334251Y254488D02*
X1290944D01*
Y191496D01*
X1334251D01*
X1365748Y254488D02*
X1409055D01*
Y215118D01*
Y191496D01*
X1365748D01*
X1365708Y51496D02*
X1409015D01*
Y114488D01*
X1365708D01*
X1334212Y51496D02*
X1290905D01*
Y90866D01*
Y114488D01*
X1334212D01*
D12*
X905000Y21968D02*
X920000D01*
X975000D01*
X905000Y73976D02*
X920000D01*
X975000D01*
X959685Y24330D02*
Y72401D01*
D11*
X1805708Y396496D02*
X1849015D01*
Y459488D01*
X1805708D01*
X1774212Y396496D02*
X1730905D01*
Y435866D01*
Y459488D01*
X1774212D01*
X1805708Y326496D02*
X1849015D01*
Y389488D01*
X1805708D01*
X1774212Y326496D02*
X1730905D01*
Y365866D01*
Y389488D01*
X1774212D01*
X2105708Y711496D02*
X2149015D01*
Y774488D01*
X2105708D01*
X2074212Y711496D02*
X2030905D01*
Y750866D01*
Y774488D01*
X2074212D01*
X2040708Y1061496D02*
X2084015D01*
Y1124488D01*
X2040708D01*
X2009212Y1061496D02*
X1965905D01*
Y1100866D01*
Y1124488D01*
X2009212D01*
X2199251Y774488D02*
X2155944D01*
Y711496D01*
X2199251D01*
X2230748Y774488D02*
X2274055D01*
Y735118D01*
Y711496D01*
X2230748D01*
X2134251Y1124488D02*
X2090944D01*
Y1061496D01*
X2134251D01*
X2165748Y1124488D02*
X2209055D01*
Y1085118D01*
Y1061496D01*
X2165748D01*
X1774251Y524488D02*
X1730944D01*
Y461496D01*
X1774251D01*
X1805748Y524488D02*
X1849055D01*
Y485118D01*
Y461496D01*
X1805748D01*
X1809251Y714488D02*
X1765944D01*
Y651496D01*
X1809251D01*
X1840748Y714488D02*
X1884055D01*
Y675118D01*
Y651496D01*
X1840748D01*
X984251Y924488D02*
X940944D01*
Y861496D01*
X984251D01*
X1015748Y924488D02*
X1059055D01*
Y885118D01*
Y861496D01*
X1015748D01*
X565314Y326889D02*
X522007D01*
Y263897D01*
X565314D01*
X596811Y326889D02*
X640118D01*
Y287519D01*
Y263897D01*
X596811D01*
X78464Y687244D02*
Y643937D01*
X141496D01*
Y687244D01*
X78464Y718740D02*
Y762047D01*
X117834D01*
X141496D01*
Y718740D01*
D12*
X876968Y102992D02*
Y292992D01*
X1000984D01*
Y102992D01*
X963976D01*
X913976D02*
X876968D01*
D11*
X1309251Y1214488D02*
X1265944D01*
Y1151496D01*
X1309251D01*
X1340748Y1214488D02*
X1384055D01*
Y1175118D01*
Y1151496D01*
X1340748D01*
X1309251Y1349488D02*
X1265944D01*
Y1286496D01*
X1309251D01*
X1340748Y1349488D02*
X1384055D01*
Y1310118D01*
Y1286496D01*
X1340748D01*
X1309251Y1279488D02*
X1265944D01*
Y1216496D01*
X1309251D01*
X1340748Y1279488D02*
X1384055D01*
Y1240118D01*
Y1216496D01*
X1340748D01*
D12*
X985000Y1056968D02*
X1000000D01*
X1055000D01*
X985000Y1108976D02*
X1000000D01*
X1055000D01*
X1039685Y1059330D02*
Y1107401D01*
X961968Y1157992D02*
Y1347992D01*
X1085984D01*
Y1157992D01*
X1048976D01*
X998976D02*
X961968D01*
D11*
X1334251Y434488D02*
X1290944D01*
Y371496D01*
X1334251D01*
X1365748Y434488D02*
X1409055D01*
Y395118D01*
Y371496D01*
X1365748D01*
X1334251Y574488D02*
X1290944D01*
Y511496D01*
X1334251D01*
X1365748Y574488D02*
X1409055D01*
Y535118D01*
Y511496D01*
X1365748D01*
X1334251Y504488D02*
X1290944D01*
Y441496D01*
X1334251D01*
X1365748Y504488D02*
X1409055D01*
Y465118D01*
Y441496D01*
X1365748D01*
D12*
X905000Y346968D02*
X920000D01*
X975000D01*
X905000Y398976D02*
X920000D01*
X975000D01*
X959685Y349330D02*
Y397401D01*
X876968Y427992D02*
Y617992D01*
X1000984D01*
Y427992D01*
X963976D01*
X913976D02*
X876968D01*
X510078Y1086023D02*
Y1286023D01*
X360078D01*
X310078Y1236023D01*
Y1086023D01*
X510078D01*
D11*
X141496Y843700D02*
Y887047D01*
X78464D01*
Y843700D01*
X141496Y812244D02*
Y768937D01*
X102125D01*
X78464D01*
Y812244D01*
D13*
X749488Y322244D02*
Y519094D01*
X662834D01*
Y322244D01*
X749488D01*
D11*
X699566Y1289881D02*
X656259D01*
Y1226889D01*
X699566D01*
X731062Y1289881D02*
X774370D01*
Y1250511D01*
Y1226889D01*
X731062D01*
X538031Y1257283D02*
Y1213976D01*
X601062D01*
Y1257283D01*
X538031Y1288779D02*
Y1332086D01*
X577401D01*
X601062D01*
Y1288779D01*
D14*
X428897Y1304527D02*
Y1344527D01*
X452874D02*
Y1304527D01*
X440866Y1320551D02*
Y1328543D01*
X444881Y1332519D02*
Y1316535D01*
X436889Y1324527D01*
X444881Y1332519D01*
X472874Y1344527D02*
X408897D01*
Y1304527D01*
X472874D01*
Y1344527D01*
D15*
X411062Y116732D02*
X365984D01*
X411062D02*
Y136062D01*
X408897Y142480D01*
X406771Y144645D01*
X402480Y146771D01*
X398188D01*
X393897Y144645D01*
X391732Y142480D01*
X389606Y136062D01*
Y116732D01*
Y131771D02*
X365984Y146771D01*
X411062Y160944D02*
X365984Y191023D01*
X411062D02*
X365984Y160944D01*
X489803Y131771D02*
X444724D01*
X489803Y116732D02*
Y146771D01*
Y160944D02*
X444724Y191023D01*
X489803D02*
X444724Y160944D01*
X563858Y116299D02*
X518740D01*
X563858D02*
Y131338D01*
X561692Y137755D01*
X557401Y142047D01*
X553110Y144212D01*
X546692Y146377D01*
X535944D01*
X529488Y144212D01*
X525196Y142047D01*
X520905Y137755D01*
X518740Y131338D01*
Y116299D01*
X563858Y175551D02*
X518740D01*
X563858Y160511D02*
Y190590D01*
Y204763D02*
X518740D01*
X563858D02*
Y224094D01*
X561692Y230551D01*
X559566Y232677D01*
X555275Y234842D01*
X550984D01*
X546692Y232677D01*
X544527Y230551D01*
X542362Y224094D01*
Y204763D01*
Y219803D02*
X518740Y234842D01*
X337834Y116338D02*
X292755Y133503D01*
X337834Y150708D02*
X292755Y133503D01*
X316377Y190629D02*
X320669Y186338D01*
X322795Y182047D01*
Y175590D01*
X320669Y171299D01*
X316377Y167007D01*
X309921Y164881D01*
X305629D01*
X299173Y167007D01*
X294881Y171299D01*
X292755Y175590D01*
Y182047D01*
X294881Y186338D01*
X299173Y190629D01*
X316377Y230590D02*
X320669Y226299D01*
X322795Y221968D01*
Y215551D01*
X320669Y211259D01*
X316377Y206968D01*
X309921Y204803D01*
X305629D01*
X299173Y206968D01*
X294881Y211259D01*
X292755Y215551D01*
Y221968D01*
X294881Y226299D01*
X299173Y230590D01*
X252677Y148543D02*
X256968Y146377D01*
X261259Y142086D01*
X263425Y137795D01*
Y129212D01*
X261259Y124921D01*
X256968Y120629D01*
X252677Y118464D01*
X246259Y116338D01*
X235511D01*
X229055Y118464D01*
X224763Y120629D01*
X220472Y124921D01*
X218346Y129212D01*
Y137795D01*
X220472Y142086D01*
X224763Y146377D01*
X229055Y148543D01*
X235511D01*
Y137795D02*
Y148543D01*
X263425Y162716D02*
X218346D01*
X263425D02*
X218346Y192795D01*
X263425D02*
X218346D01*
X263425Y206968D02*
X218346D01*
X263425D02*
Y221968D01*
X261259Y228425D01*
X256968Y232716D01*
X252677Y234881D01*
X246259Y237007D01*
X235511D01*
X229055Y234881D01*
X224763Y232716D01*
X220472Y228425D01*
X218346Y221968D01*
Y206968D01*
X252677Y459251D02*
X235511Y414133D01*
X218346Y459251D02*
X235511Y414133D01*
X178385Y437755D02*
X182677Y442047D01*
X186968Y444212D01*
X193425D01*
X197716Y442047D01*
X202007Y437755D01*
X204173Y431338D01*
Y427047D01*
X202007Y420590D01*
X197716Y416299D01*
X193425Y414133D01*
X186968D01*
X182677Y416299D01*
X178385Y420590D01*
X138464Y437755D02*
X142755Y442047D01*
X147047Y444212D01*
X153464D01*
X157755Y442047D01*
X162086Y437755D01*
X164212Y431338D01*
Y427047D01*
X162086Y420590D01*
X157755Y416299D01*
X153464Y414133D01*
X147047D01*
X142755Y416299D01*
X138464Y420590D01*
X248267Y385787D02*
Y340708D01*
Y385787D02*
X228976D01*
X222519Y383661D01*
X220354Y381496D01*
X218228Y377204D01*
Y370748D01*
X220354Y366456D01*
X222519Y364330D01*
X228976Y362165D01*
X248267D01*
X204055Y385787D02*
X193307Y340708D01*
X182559Y385787D02*
X193307Y340708D01*
X182559Y385787D02*
X171850Y340708D01*
X161102Y385787D02*
X171850Y340708D01*
X146929Y385787D02*
Y340708D01*
Y385787D02*
X129763Y340708D01*
X112559Y385787D02*
X129763Y340708D01*
X112559Y385787D02*
Y340708D01*
X219448Y304803D02*
X221574Y309094D01*
X225866Y313385D01*
X230196Y315551D01*
X238779D01*
X243070Y313385D01*
X247362Y309094D01*
X249488Y304803D01*
X251653Y298346D01*
Y287637D01*
X249488Y281181D01*
X247362Y276889D01*
X243070Y272598D01*
X238779Y270433D01*
X230196D01*
X225866Y272598D01*
X221574Y276889D01*
X219448Y281181D01*
Y287637D01*
X230196D02*
X219448D01*
X205275Y315551D02*
Y270433D01*
Y315551D02*
X175196Y270433D01*
Y315551D02*
Y270433D01*
X161023Y315551D02*
Y270433D01*
Y315551D02*
X145984D01*
X139566Y313385D01*
X135275Y309094D01*
X133110Y304803D01*
X130944Y298346D01*
Y287637D01*
X133110Y281181D01*
X135275Y276889D01*
X139566Y272598D01*
X145984Y270433D01*
X161023D01*
X2232874Y494566D02*
X2235039Y498858D01*
X2239330Y503149D01*
X2243622Y505314D01*
X2252204D01*
X2256496Y503149D01*
X2260826Y498858D01*
X2262952Y494566D01*
X2265118Y488110D01*
Y477401D01*
X2262952Y470944D01*
X2260826Y466653D01*
X2256496Y462362D01*
X2252204Y460196D01*
X2243622D01*
X2239330Y462362D01*
X2235039Y466653D01*
X2232874Y470944D01*
X2218700Y505314D02*
Y460196D01*
X2188661Y505314D02*
Y460196D01*
X2218700Y483818D02*
X2188661D01*
X2170196Y505314D02*
X2146574D01*
X2159448Y488110D01*
X2152992D01*
X2148700Y485984D01*
X2146574Y483818D01*
X2144409Y477401D01*
Y473110D01*
X2146574Y466653D01*
X2150866Y462362D01*
X2157283Y460196D01*
X2163740D01*
X2170196Y462362D01*
X2172322Y464488D01*
X2174488Y468779D01*
X2108779Y505314D02*
X2130236Y475236D01*
X2098031D01*
X2108779Y505314D02*
Y460196D01*
X2070984Y505314D02*
X2077401Y503149D01*
X2081692Y496732D01*
X2083858Y485984D01*
Y479527D01*
X2081692Y468779D01*
X2077401Y462362D01*
X2070984Y460196D01*
X2066692D01*
X2060236Y462362D01*
X2055944Y468779D01*
X2053779Y479527D01*
Y485984D01*
X2055944Y496732D01*
X2060236Y503149D01*
X2066692Y505314D01*
X2070984D01*
X2268385Y311614D02*
Y279409D01*
X2266259Y272952D01*
X2261968Y268661D01*
X2255511Y266496D01*
X2251220D01*
X2244763Y268661D01*
X2240472Y272952D01*
X2238346Y279409D01*
Y311614D01*
X2194094Y305157D02*
X2198385Y309448D01*
X2204842Y311614D01*
X2213425D01*
X2219881Y309448D01*
X2224173Y305157D01*
Y300866D01*
X2222007Y296574D01*
X2219881Y294409D01*
X2215551Y292283D01*
X2202677Y287992D01*
X2198385Y285826D01*
X2196259Y283700D01*
X2194094Y279409D01*
Y272952D01*
X2198385Y268661D01*
X2204842Y266496D01*
X2213425D01*
X2219881Y268661D01*
X2224173Y272952D01*
X2179921Y311614D02*
Y266496D01*
Y311614D02*
X2160590D01*
X2154133Y309448D01*
X2152007Y307322D01*
X2149842Y303031D01*
Y298740D01*
X2152007Y294409D01*
X2154133Y292283D01*
X2160590Y290118D01*
X2179921D02*
X2160590D01*
X2154133Y287992D01*
X2152007Y285826D01*
X2149842Y281535D01*
Y275118D01*
X2152007Y270787D01*
X2154133Y268661D01*
X2160590Y266496D01*
X2179921D01*
X576062Y784842D02*
X552440D01*
X565314Y767637D01*
X558897D01*
X554566Y765511D01*
X552440Y763346D01*
X550275Y756929D01*
Y752637D01*
X552440Y746181D01*
X556732Y741889D01*
X563188Y739724D01*
X569606D01*
X576062Y741889D01*
X578188Y744015D01*
X580354Y748307D01*
X533976Y774094D02*
Y776259D01*
X531811Y780551D01*
X529685Y782677D01*
X525393Y784842D01*
X516771D01*
X512480Y782677D01*
X510354Y780551D01*
X508188Y776259D01*
Y771929D01*
X510354Y767637D01*
X514645Y761220D01*
X536102Y739724D01*
X506062D01*
X481141Y784842D02*
X487598Y782677D01*
X489724Y778385D01*
Y774094D01*
X487598Y769803D01*
X483307Y767637D01*
X474685Y765511D01*
X468267Y763346D01*
X463976Y759055D01*
X461811Y754763D01*
Y748307D01*
X463976Y744015D01*
X466102Y741889D01*
X472559Y739724D01*
X481141D01*
X487598Y741889D01*
X489724Y744015D01*
X491889Y748307D01*
Y754763D01*
X489724Y759055D01*
X485433Y763346D01*
X478976Y765511D01*
X470393Y767637D01*
X466102Y769803D01*
X463976Y774094D01*
Y778385D01*
X466102Y782677D01*
X472559Y784842D01*
X481141D01*
X447637D02*
Y739724D01*
Y784842D02*
X428307D01*
X421889Y782677D01*
X419724Y780551D01*
X417559Y776259D01*
Y769803D01*
X419724Y765511D01*
X421889Y763346D01*
X428307Y761220D01*
X447637D01*
D16*
X1167677Y781692D02*
Y744094D01*
Y781692D02*
X1144409D01*
X1167677Y763779D02*
X1153385D01*
X1167677Y744094D02*
X1144409D01*
X1132598Y781692D02*
Y744094D01*
X1111141D01*
X1099330Y781692D02*
Y744094D01*
Y781692D02*
X1076062D01*
X1099330Y763779D02*
X1085000D01*
X1099330Y744094D02*
X1076062D01*
X1037401Y772755D02*
X1039212Y776299D01*
X1042755Y779881D01*
X1046338Y781692D01*
X1053503D01*
X1057086Y779881D01*
X1060669Y776299D01*
X1062440Y772755D01*
X1064251Y767362D01*
Y758425D01*
X1062440Y753070D01*
X1060669Y749488D01*
X1057086Y745905D01*
X1053503Y744094D01*
X1046338D01*
X1042755Y745905D01*
X1039212Y749488D01*
X1037401Y753070D01*
X1013070Y781692D02*
Y744094D01*
X1025590Y781692D02*
X1000551D01*
X988740D02*
Y744094D01*
Y781692D02*
X972637D01*
X967244Y779881D01*
X965472Y778110D01*
X963661Y774527D01*
Y770944D01*
X965472Y767362D01*
X967244Y765590D01*
X972637Y763779D01*
X988740D01*
X976220D02*
X963661Y744094D01*
X941141Y781692D02*
X944724Y779881D01*
X948267Y776299D01*
X950078Y772755D01*
X951850Y767362D01*
Y758425D01*
X950078Y753070D01*
X948267Y749488D01*
X944724Y745905D01*
X941141Y744094D01*
X933976D01*
X930393Y745905D01*
X926811Y749488D01*
X925039Y753070D01*
X923228Y758425D01*
Y767362D01*
X925039Y772755D01*
X926811Y776299D01*
X930393Y779881D01*
X933976Y781692D01*
X941141D01*
X911417D02*
Y744094D01*
Y781692D02*
X886377Y744094D01*
Y781692D02*
Y744094D01*
X863818Y781692D02*
X867401Y779881D01*
X870984Y776299D01*
X872755Y772755D01*
X874566Y767362D01*
Y758425D01*
X872755Y753070D01*
X870984Y749488D01*
X867401Y745905D01*
X863818Y744094D01*
X856653D01*
X853070Y745905D01*
X849488Y749488D01*
X847716Y753070D01*
X845905Y758425D01*
Y767362D01*
X847716Y772755D01*
X849488Y776299D01*
X853070Y779881D01*
X856653Y781692D01*
X863818D01*
X823385D02*
X826968Y779881D01*
X830551Y776299D01*
X832322Y772755D01*
X834094Y767362D01*
Y758425D01*
X832322Y753070D01*
X830551Y749488D01*
X826968Y745905D01*
X823385Y744094D01*
X816220D01*
X812637Y745905D01*
X809055Y749488D01*
X807283Y753070D01*
X805472Y758425D01*
Y767362D01*
X807283Y772755D01*
X809055Y776299D01*
X812637Y779881D01*
X816220Y781692D01*
X823385D01*
X793661D02*
Y744094D01*
Y781692D02*
X777559D01*
X772204Y779881D01*
X770393Y778110D01*
X768622Y774527D01*
Y770944D01*
X770393Y767362D01*
X772204Y765590D01*
X777559Y763779D01*
X793661D02*
X777559D01*
X772204Y762007D01*
X770393Y760196D01*
X768622Y756614D01*
Y751259D01*
X770393Y747677D01*
X772204Y745905D01*
X777559Y744094D01*
X793661D01*
X731732Y776299D02*
X735314Y779881D01*
X740708Y781692D01*
X747874D01*
X753228Y779881D01*
X756811Y776299D01*
Y772755D01*
X755000Y769173D01*
X753228Y767362D01*
X749645Y765590D01*
X738897Y762007D01*
X735314Y760196D01*
X733543Y758425D01*
X731732Y754842D01*
Y749488D01*
X735314Y745905D01*
X740708Y744094D01*
X747874D01*
X753228Y745905D01*
X756811Y749488D01*
D11*
X1112125Y718307D02*
Y665669D01*
Y718307D02*
X1079566D01*
X1112125Y693228D02*
X1092086D01*
X1112125Y665669D02*
X1079566D01*
X1027952Y710787D02*
X1032952Y715787D01*
X1040472Y718307D01*
X1050511D01*
X1058031Y715787D01*
X1063031Y710787D01*
Y705787D01*
X1060511Y700748D01*
X1058031Y698267D01*
X1052992Y695748D01*
X1037992Y690748D01*
X1032952Y688228D01*
X1030472Y685708D01*
X1027952Y680708D01*
Y673188D01*
X1032952Y668188D01*
X1040472Y665669D01*
X1050511D01*
X1058031Y668188D01*
X1063031Y673188D01*
X973818Y705787D02*
X976338Y710787D01*
X981338Y715787D01*
X986377Y718307D01*
X996377D01*
X1001417Y715787D01*
X1006417Y710787D01*
X1008897Y705787D01*
X1011417Y698267D01*
Y685708D01*
X1008897Y678228D01*
X1006417Y673188D01*
X1001417Y668188D01*
X996377Y665669D01*
X986377D01*
X981338Y668188D01*
X976338Y673188D01*
X973818Y678228D01*
X918700Y718307D02*
X898661Y665669D01*
X878622Y718307D02*
X898661Y665669D01*
X859606Y705787D02*
Y708267D01*
X857086Y713267D01*
X854566Y715787D01*
X849566Y718307D01*
X839566D01*
X834527Y715787D01*
X832047Y713267D01*
X829527Y708267D01*
Y703267D01*
X832047Y698267D01*
X837047Y690748D01*
X862086Y665669D01*
X827007D01*
D17*
X817913Y1179330D02*
X789291Y1136338D01*
Y1179330D02*
X817913Y1136338D01*
X773700Y1169015D02*
Y1171102D01*
X771692Y1175236D01*
X769606Y1177204D01*
X765511Y1179330D01*
X757401D01*
X753307Y1177204D01*
X751220Y1175236D01*
X749212Y1171102D01*
Y1167007D01*
X751220Y1162913D01*
X755314Y1156811D01*
X775787Y1136338D01*
X747086D01*
X1948307Y97047D02*
Y54133D01*
Y97047D02*
X1929881D01*
X1923779Y95039D01*
X1921692Y93031D01*
X1919685Y88937D01*
Y84842D01*
X1921692Y80748D01*
X1923779Y78622D01*
X1929881Y76653D01*
X1948307D01*
X1934015D02*
X1919685Y54133D01*
X1906181Y88937D02*
X1902086Y90944D01*
X1895905Y97047D01*
Y54133D01*
X1872204Y97047D02*
X1878307Y95039D01*
X1880393Y90944D01*
Y86850D01*
X1878307Y82755D01*
X1874291Y80748D01*
X1866102Y78622D01*
X1859881Y76653D01*
X1855787Y72559D01*
X1853779Y68425D01*
Y62322D01*
X1855787Y58228D01*
X1857913Y56141D01*
X1864015Y54133D01*
X1872204D01*
X1878307Y56141D01*
X1880393Y58228D01*
X1882401Y62322D01*
Y68425D01*
X1880393Y72559D01*
X1876299Y76653D01*
X1870196Y78622D01*
X1862007Y80748D01*
X1857913Y82755D01*
X1855787Y86850D01*
Y90944D01*
X1857913Y95039D01*
X1864015Y97047D01*
X1872204D01*
X1947480Y172992D02*
Y130078D01*
Y172992D02*
X1929094D01*
X1922992Y170984D01*
X1920866Y168976D01*
X1918897Y164881D01*
Y160787D01*
X1920866Y156692D01*
X1922992Y154566D01*
X1929094Y152598D01*
X1947480D01*
X1933188D02*
X1918897Y130078D01*
X1905393Y164881D02*
X1901299Y166889D01*
X1895078Y172992D01*
Y130078D01*
X1855000Y158700D02*
X1857086Y152598D01*
X1861181Y148464D01*
X1867283Y146496D01*
X1869370D01*
X1875472Y148464D01*
X1879566Y152598D01*
X1881574Y158700D01*
Y160787D01*
X1879566Y166889D01*
X1875472Y170984D01*
X1869370Y172992D01*
X1867283D01*
X1861181Y170984D01*
X1857086Y166889D01*
X1855000Y158700D01*
Y148464D01*
X1857086Y138267D01*
X1861181Y132086D01*
X1867283Y130078D01*
X1871377D01*
X1877480Y132086D01*
X1879566Y136181D01*
X1897874Y223464D02*
X1899960Y227559D01*
X1904055Y231653D01*
X1908070Y233661D01*
X1916259D01*
X1920354Y231653D01*
X1924448Y227559D01*
X1926574Y223464D01*
X1928543Y217362D01*
Y207165D01*
X1926574Y200944D01*
X1924448Y196850D01*
X1920354Y192755D01*
X1916259Y190748D01*
X1908070D01*
X1904055Y192755D01*
X1899960Y196850D01*
X1897874Y200944D01*
X1855748Y233661D02*
X1876141Y190748D01*
X1884370Y233661D02*
X1855748D01*
X1490787Y177992D02*
Y135078D01*
Y177992D02*
X1472401D01*
X1466299Y175984D01*
X1464173Y173976D01*
X1462165Y169881D01*
Y165787D01*
X1464173Y161692D01*
X1466299Y159566D01*
X1472401Y157598D01*
X1490787D01*
X1476496D02*
X1462165Y135078D01*
X1438385Y177992D02*
X1444566Y175984D01*
X1446574Y171889D01*
Y167795D01*
X1444566Y163700D01*
X1440472Y161692D01*
X1432283Y159566D01*
X1426181Y157598D01*
X1422086Y153464D01*
X1420000Y149370D01*
Y143267D01*
X1422086Y139173D01*
X1424094Y137086D01*
X1430275Y135078D01*
X1438385D01*
X1444566Y137086D01*
X1446574Y139173D01*
X1448700Y143267D01*
Y149370D01*
X1446574Y153464D01*
X1442480Y157598D01*
X1436377Y159566D01*
X1428188Y161692D01*
X1424094Y163700D01*
X1422086Y167795D01*
Y171889D01*
X1424094Y175984D01*
X1430275Y177992D01*
X1438385D01*
X1488700Y247992D02*
Y205078D01*
Y247992D02*
X1470275D01*
X1464173Y245984D01*
X1462086Y243976D01*
X1460078Y239881D01*
Y235787D01*
X1462086Y231692D01*
X1464173Y229566D01*
X1470275Y227598D01*
X1488700D01*
X1474370D02*
X1460078Y205078D01*
X1420000Y233700D02*
X1421968Y227598D01*
X1426062Y223464D01*
X1432165Y221496D01*
X1434291D01*
X1440393Y223464D01*
X1444488Y227598D01*
X1446574Y233700D01*
Y235787D01*
X1444488Y241889D01*
X1440393Y245984D01*
X1434291Y247992D01*
X1432165D01*
X1426062Y245984D01*
X1421968Y241889D01*
X1420000Y233700D01*
Y223464D01*
X1421968Y213267D01*
X1426062Y207086D01*
X1432165Y205078D01*
X1436299D01*
X1442480Y207086D01*
X1444488Y211181D01*
X1485787Y92795D02*
X1487874Y96889D01*
X1491968Y100984D01*
X1495984Y102992D01*
X1504173D01*
X1508267Y100984D01*
X1512362Y96889D01*
X1514488Y92795D01*
X1516496Y86692D01*
Y76496D01*
X1514488Y70275D01*
X1512362Y66181D01*
X1508267Y62086D01*
X1504173Y60078D01*
X1495984D01*
X1491968Y62086D01*
X1487874Y66181D01*
X1485787Y70275D01*
X1472283Y94881D02*
X1468188Y96889D01*
X1462086Y102992D01*
Y60078D01*
X1444488Y102992D02*
X1421968D01*
X1434291Y86692D01*
X1428070D01*
X1423976Y84566D01*
X1421968Y82598D01*
X1419960Y76496D01*
Y72362D01*
X1421968Y66181D01*
X1426062Y62086D01*
X1432165Y60078D01*
X1438385D01*
X1444488Y62086D01*
X1446496Y64173D01*
X1448582Y68267D01*
X1090787Y67992D02*
Y25078D01*
Y67992D02*
X1076496D01*
X1070275Y65984D01*
X1066299Y61889D01*
X1064173Y57795D01*
X1062165Y51692D01*
Y41496D01*
X1064173Y35275D01*
X1066299Y31181D01*
X1070275Y27086D01*
X1076496Y25078D01*
X1090787D01*
X1046574Y57795D02*
Y59881D01*
X1044566Y63976D01*
X1042480Y65984D01*
X1038385Y67992D01*
X1030275D01*
X1026181Y65984D01*
X1024094Y63976D01*
X1022086Y59881D01*
Y55787D01*
X1024094Y51692D01*
X1028188Y45472D01*
X1048700Y25078D01*
X1020000D01*
X1719566Y450590D02*
Y407677D01*
Y450590D02*
X1701141D01*
X1695039Y448582D01*
X1692952Y446574D01*
X1690944Y442480D01*
Y438385D01*
X1692952Y434291D01*
X1695039Y432165D01*
X1701141Y430196D01*
X1719566D01*
X1705275D02*
X1690944Y407677D01*
X1677440Y442480D02*
X1673346Y444488D01*
X1667165Y450590D01*
Y407677D01*
X1651653Y440393D02*
Y442480D01*
X1649566Y446574D01*
X1647559Y448582D01*
X1643464Y450590D01*
X1635275D01*
X1631141Y448582D01*
X1629173Y446574D01*
X1627047Y442480D01*
Y438385D01*
X1629173Y434291D01*
X1633267Y428070D01*
X1653661Y407677D01*
X1625039D01*
X1719488Y377992D02*
Y335078D01*
Y377992D02*
X1701062D01*
X1695000Y375984D01*
X1692874Y373976D01*
X1690866Y369881D01*
Y365787D01*
X1692874Y361692D01*
X1695000Y359566D01*
X1701062Y357598D01*
X1719488D01*
X1705196D02*
X1690866Y335078D01*
X1677362Y369881D02*
X1673267Y371889D01*
X1667086Y377992D01*
Y335078D01*
X1649488Y377992D02*
X1626968D01*
X1639291Y361692D01*
X1633188D01*
X1629094Y359566D01*
X1626968Y357598D01*
X1625000Y351496D01*
Y347362D01*
X1626968Y341181D01*
X1631062Y337086D01*
X1637283Y335078D01*
X1643385D01*
X1649488Y337086D01*
X1651574Y339173D01*
X1653582Y343267D01*
X2017598Y762795D02*
Y719881D01*
Y762795D02*
X1999212D01*
X1993110Y760787D01*
X1991023Y758779D01*
X1989015Y754685D01*
Y750590D01*
X1991023Y746496D01*
X1993110Y744370D01*
X1999212Y742401D01*
X2017598D01*
X2003307D02*
X1989015Y719881D01*
X1975511Y754685D02*
X1971417Y756692D01*
X1965196Y762795D01*
Y719881D01*
X1931299Y762795D02*
X1951732Y734173D01*
X1921102D01*
X1931299Y762795D02*
Y719881D01*
X1954488Y1112992D02*
Y1070078D01*
Y1112992D02*
X1936062D01*
X1930000Y1110984D01*
X1927874Y1108976D01*
X1925866Y1104881D01*
Y1100787D01*
X1927874Y1096692D01*
X1930000Y1094566D01*
X1936062Y1092598D01*
X1954488D01*
X1940196D02*
X1925866Y1070078D01*
X1912362Y1104881D02*
X1908267Y1106889D01*
X1902086Y1112992D01*
Y1070078D01*
X1864094Y1112992D02*
X1884488D01*
X1886574Y1094566D01*
X1884488Y1096692D01*
X1878385Y1098661D01*
X1872283D01*
X1866062Y1096692D01*
X1861968Y1092598D01*
X1860000Y1086496D01*
Y1082362D01*
X1861968Y1076181D01*
X1866062Y1072086D01*
X1872283Y1070078D01*
X1878385D01*
X1884488Y1072086D01*
X1886574Y1074173D01*
X1888582Y1078267D01*
X2374645Y763582D02*
Y720669D01*
Y763582D02*
X2356259D01*
X2350157Y761574D01*
X2348031Y759566D01*
X2346023Y755472D01*
Y751377D01*
X2348031Y747283D01*
X2350157Y745157D01*
X2356259Y743188D01*
X2374645D01*
X2360354D02*
X2346023Y720669D01*
X2332559Y755472D02*
X2328425Y757480D01*
X2322244Y763582D01*
Y720669D01*
X2284251Y757480D02*
X2286259Y761574D01*
X2292440Y763582D01*
X2296535D01*
X2302637Y761574D01*
X2306732Y755472D01*
X2308740Y745157D01*
Y734960D01*
X2306732Y726771D01*
X2302637Y722677D01*
X2296535Y720669D01*
X2294448D01*
X2288346Y722677D01*
X2284251Y726771D01*
X2282125Y732992D01*
Y734960D01*
X2284251Y741062D01*
X2288346Y745157D01*
X2294448Y747283D01*
X2296535D01*
X2302637Y745157D01*
X2306732Y741062D01*
X2308740Y734960D01*
X2314488Y1112992D02*
Y1070078D01*
Y1112992D02*
X2296062D01*
X2289960Y1110984D01*
X2287874Y1108976D01*
X2285866Y1104881D01*
Y1100787D01*
X2287874Y1096692D01*
X2289960Y1094566D01*
X2296062Y1092598D01*
X2314488D01*
X2300196D02*
X2285866Y1070078D01*
X2272362Y1104881D02*
X2268267Y1106889D01*
X2262086Y1112992D01*
Y1070078D01*
X2219960Y1112992D02*
X2240472Y1070078D01*
X2248582Y1112992D02*
X2219960D01*
X1721417Y515551D02*
Y472637D01*
Y515551D02*
X1703031D01*
X1696929Y513543D01*
X1694803Y511535D01*
X1692834Y507440D01*
Y503346D01*
X1694803Y499251D01*
X1696929Y497125D01*
X1703031Y495157D01*
X1721417D01*
X1707125D02*
X1692834Y472637D01*
X1677204Y505354D02*
Y507440D01*
X1675236Y511535D01*
X1673110Y513543D01*
X1669015Y515551D01*
X1660905D01*
X1656811Y513543D01*
X1654724Y511535D01*
X1652716Y507440D01*
Y503346D01*
X1654724Y499251D01*
X1658818Y493031D01*
X1679330Y472637D01*
X1650629D01*
X1624921Y515551D02*
X1631023Y513543D01*
X1635118Y507440D01*
X1637125Y497125D01*
Y491062D01*
X1635118Y480826D01*
X1631023Y474645D01*
X1624921Y472637D01*
X1620826D01*
X1614606Y474645D01*
X1610511Y480826D01*
X1608503Y491062D01*
Y497125D01*
X1610511Y507440D01*
X1614606Y513543D01*
X1620826Y515551D01*
X1624921D01*
X1754488Y707992D02*
Y665078D01*
Y707992D02*
X1736062D01*
X1729959Y705984D01*
X1727874Y703976D01*
X1725866Y699881D01*
Y695787D01*
X1727874Y691692D01*
X1729959Y689566D01*
X1736062Y687598D01*
X1754488D01*
X1740196D02*
X1725866Y665078D01*
X1710275Y697795D02*
Y699881D01*
X1708267Y703976D01*
X1706181Y705984D01*
X1702086Y707992D01*
X1693976D01*
X1689881Y705984D01*
X1687795Y703976D01*
X1685787Y699881D01*
Y695787D01*
X1687795Y691692D01*
X1691889Y685472D01*
X1712362Y665078D01*
X1683661D01*
X1670196Y699881D02*
X1666062Y701889D01*
X1659960Y707992D01*
Y665078D01*
X1053307Y978149D02*
Y935236D01*
Y978149D02*
X1034921D01*
X1028818Y976141D01*
X1026692Y974133D01*
X1024724Y970039D01*
Y965944D01*
X1026692Y961850D01*
X1028818Y959724D01*
X1034921Y957755D01*
X1053307D01*
X1039015D02*
X1024724Y935236D01*
X1009094Y967952D02*
Y970039D01*
X1007125Y974133D01*
X1005000Y976141D01*
X1000905Y978149D01*
X992795D01*
X988700Y976141D01*
X986614Y974133D01*
X984606Y970039D01*
Y965944D01*
X986614Y961850D01*
X990708Y955629D01*
X1011220Y935236D01*
X982519D01*
X967007Y967952D02*
Y970039D01*
X964921Y974133D01*
X962913Y976141D01*
X958818Y978149D01*
X950629D01*
X946496Y976141D01*
X944527Y974133D01*
X942401Y970039D01*
Y965944D01*
X944527Y961850D01*
X948622Y955629D01*
X969015Y935236D01*
X940393D01*
X477401Y308110D02*
X479488Y312204D01*
X483582Y316299D01*
X487598Y318307D01*
X495787D01*
X499881Y316299D01*
X503976Y312204D01*
X506102Y308110D01*
X508110Y302007D01*
Y291811D01*
X506102Y285590D01*
X503976Y281496D01*
X499881Y277401D01*
X495787Y275393D01*
X487598D01*
X483582Y277401D01*
X479488Y281496D01*
X477401Y285590D01*
X461889Y308110D02*
Y310196D01*
X459803Y314291D01*
X457795Y316299D01*
X453700Y318307D01*
X445511D01*
X441377Y316299D01*
X439409Y314291D01*
X437283Y310196D01*
Y306102D01*
X439409Y302007D01*
X443503Y295787D01*
X463897Y275393D01*
X435275D01*
X100196Y602283D02*
X96062Y604370D01*
X91968Y608464D01*
X89960Y612480D01*
Y620669D01*
X91968Y624763D01*
X96062Y628897D01*
X100196Y630984D01*
X106259Y632992D01*
X116496D01*
X122677Y630984D01*
X126771Y628897D01*
X130866Y624763D01*
X132874Y620669D01*
Y612480D01*
X130866Y608464D01*
X126771Y604370D01*
X122677Y602283D01*
X96062Y564291D02*
X91968Y566299D01*
X89960Y572480D01*
Y576496D01*
X91968Y582677D01*
X98070Y586771D01*
X108385Y588779D01*
X118582D01*
X126771Y586771D01*
X130866Y582677D01*
X132874Y576496D01*
Y574488D01*
X130866Y568385D01*
X126771Y564291D01*
X120590Y562165D01*
X118582D01*
X112480Y564291D01*
X108385Y568385D01*
X106259Y574488D01*
Y576496D01*
X108385Y582677D01*
X112480Y586771D01*
X118582Y588779D01*
X971456Y219881D02*
Y189291D01*
X969448Y183070D01*
X965354Y178976D01*
X959133Y176968D01*
X955039D01*
X948937Y178976D01*
X944842Y183070D01*
X942834Y189291D01*
Y219881D01*
X900629D02*
X921141Y176968D01*
X929330Y219881D02*
X900629D01*
X1459488Y1204133D02*
Y1161220D01*
Y1204133D02*
X1441102D01*
X1435000Y1202125D01*
X1432913Y1200118D01*
X1430905Y1196023D01*
Y1191929D01*
X1432913Y1187834D01*
X1435000Y1185708D01*
X1441102Y1183740D01*
X1459488D01*
X1445196D02*
X1430905Y1161220D01*
X1392795Y1198031D02*
X1394921Y1202125D01*
X1401023Y1204133D01*
X1405118D01*
X1411220Y1202125D01*
X1415314Y1196023D01*
X1417401Y1185708D01*
Y1175511D01*
X1415314Y1167322D01*
X1411220Y1163228D01*
X1405118Y1161220D01*
X1402992D01*
X1396889Y1163228D01*
X1392795Y1167322D01*
X1390787Y1173543D01*
Y1175511D01*
X1392795Y1181614D01*
X1396889Y1185708D01*
X1402992Y1187834D01*
X1405118D01*
X1411220Y1185708D01*
X1415314Y1181614D01*
X1417401Y1175511D01*
X1460787Y1337992D02*
Y1295078D01*
Y1337992D02*
X1442401D01*
X1436299Y1335984D01*
X1434173Y1333976D01*
X1432165Y1329881D01*
Y1325787D01*
X1434173Y1321692D01*
X1436299Y1319566D01*
X1442401Y1317598D01*
X1460787D01*
X1446496D02*
X1432165Y1295078D01*
X1390000Y1337992D02*
X1410472Y1295078D01*
X1418700Y1337992D02*
X1390000D01*
X1434094Y1258897D02*
X1436181Y1262992D01*
X1440275Y1267086D01*
X1444291Y1269094D01*
X1452480D01*
X1456574Y1267086D01*
X1460669Y1262992D01*
X1462795Y1258897D01*
X1464763Y1252795D01*
Y1242598D01*
X1462795Y1236377D01*
X1460669Y1232283D01*
X1456574Y1228188D01*
X1452480Y1226181D01*
X1444291D01*
X1440275Y1228188D01*
X1436181Y1232283D01*
X1434094Y1236377D01*
X1416496Y1269094D02*
X1393976D01*
X1406299Y1252795D01*
X1400196D01*
X1396102Y1250669D01*
X1393976Y1248700D01*
X1391968Y1242598D01*
Y1238503D01*
X1393976Y1232283D01*
X1398070Y1228188D01*
X1404291Y1226181D01*
X1410393D01*
X1416496Y1228188D01*
X1418582Y1230275D01*
X1420590Y1234370D01*
X1050669Y1045472D02*
Y1002559D01*
Y1045472D02*
X1036377D01*
X1030196Y1043464D01*
X1026181Y1039370D01*
X1024094Y1035275D01*
X1022086Y1029173D01*
Y1018976D01*
X1024094Y1012755D01*
X1026181Y1008661D01*
X1030196Y1004566D01*
X1036377Y1002559D01*
X1050669D01*
X1008582Y1037362D02*
X1004488Y1039370D01*
X998267Y1045472D01*
Y1002559D01*
X1048307Y1278543D02*
Y1247913D01*
X1046338Y1241732D01*
X1042204Y1237637D01*
X1036023Y1235629D01*
X1031929D01*
X1025826Y1237637D01*
X1021732Y1241732D01*
X1019724Y1247913D01*
Y1278543D01*
X1006220Y1270433D02*
X1002125Y1272440D01*
X995905Y1278543D01*
Y1235629D01*
X1515629Y419881D02*
Y376968D01*
Y419881D02*
X1497204D01*
X1491102Y417874D01*
X1489015Y415866D01*
X1487007Y411771D01*
Y407677D01*
X1489015Y403582D01*
X1491102Y401456D01*
X1497204Y399488D01*
X1515629D01*
X1501299D02*
X1487007Y376968D01*
X1473503Y411771D02*
X1469409Y413779D01*
X1463228Y419881D01*
Y376968D01*
X1437519Y419881D02*
X1443622Y417874D01*
X1447716Y411771D01*
X1449724Y401456D01*
Y395393D01*
X1447716Y385157D01*
X1443622Y378976D01*
X1437519Y376968D01*
X1433425D01*
X1427204Y378976D01*
X1423110Y385157D01*
X1421102Y395393D01*
Y401456D01*
X1423110Y411771D01*
X1427204Y417874D01*
X1433425Y419881D01*
X1437519D01*
X1501141Y564370D02*
Y521456D01*
Y564370D02*
X1482755D01*
X1476653Y562362D01*
X1474566Y560354D01*
X1472559Y556259D01*
Y552165D01*
X1474566Y548070D01*
X1476653Y545944D01*
X1482755Y543976D01*
X1501141D01*
X1486850D02*
X1472559Y521456D01*
X1459055Y556259D02*
X1454960Y558267D01*
X1448740Y564370D01*
Y521456D01*
X1435236Y556259D02*
X1431141Y558267D01*
X1425039Y564370D01*
Y521456D01*
X1471259Y479370D02*
X1473385Y483464D01*
X1477480Y487559D01*
X1481456Y489566D01*
X1489685D01*
X1493779Y487559D01*
X1497874Y483464D01*
X1499960Y479370D01*
X1501968Y473267D01*
Y463070D01*
X1499960Y456850D01*
X1497874Y452755D01*
X1493779Y448661D01*
X1489685Y446653D01*
X1481456D01*
X1477480Y448661D01*
X1473385Y452755D01*
X1471259Y456850D01*
X1457795Y481456D02*
X1453661Y483464D01*
X1447559Y489566D01*
Y446653D01*
X1434094Y481456D02*
X1429960Y483464D01*
X1423858Y489566D01*
Y446653D01*
X1085629Y390354D02*
Y347440D01*
Y390354D02*
X1071338D01*
X1065118Y388346D01*
X1061102Y384251D01*
X1059015Y380157D01*
X1057007Y374055D01*
Y363858D01*
X1059015Y357637D01*
X1061102Y353543D01*
X1065118Y349448D01*
X1071338Y347440D01*
X1085629D01*
X1039409Y390354D02*
X1016929D01*
X1029133Y374055D01*
X1023031D01*
X1018937Y371929D01*
X1016929Y369960D01*
X1014803Y363858D01*
Y359763D01*
X1016929Y353543D01*
X1021023Y349448D01*
X1027125Y347440D01*
X1033228D01*
X1039409Y349448D01*
X1041417Y351535D01*
X1043503Y355629D01*
X968779Y548070D02*
Y517480D01*
X966811Y511299D01*
X962677Y507165D01*
X956496Y505196D01*
X952401D01*
X946299Y507165D01*
X942204Y511299D01*
X940196Y517480D01*
Y548070D01*
X906181D02*
X926692Y519488D01*
X895984D01*
X906181Y548070D02*
Y505196D01*
D18*
X382637Y1262125D02*
X439842D01*
X382637D02*
Y1237598D01*
X385354Y1229409D01*
X388070Y1226614D01*
X393543Y1223897D01*
X398937D01*
X404448Y1226614D01*
X407165Y1229409D01*
X409842Y1237598D01*
Y1262125D02*
Y1237598D01*
X412637Y1229409D01*
X415354Y1226614D01*
X420866Y1223897D01*
X428937D01*
X434448Y1226614D01*
X437165Y1229409D01*
X439842Y1237598D01*
Y1262125D01*
X382637Y1205905D02*
X423543D01*
X431771Y1203228D01*
X437165Y1197716D01*
X439842Y1189606D01*
Y1184133D01*
X437165Y1175905D01*
X431771Y1170511D01*
X423543Y1167716D01*
X382637D01*
Y1111614D02*
X439842Y1149724D01*
X382637D02*
Y1111614D01*
X439842Y1149724D02*
Y1111614D01*
D17*
X90000Y952952D02*
X132913D01*
X90000D02*
Y934527D01*
X92007Y928425D01*
X94015Y926338D01*
X98110Y924330D01*
X102204D01*
X106299Y926338D01*
X108425Y928425D01*
X110433Y934527D01*
Y952952D01*
Y938622D02*
X132913Y924330D01*
X98110Y910826D02*
X96102Y906732D01*
X90000Y900551D01*
X132913D01*
X612047Y450669D02*
X607952Y452755D01*
X603858Y456850D01*
X601732Y460866D01*
Y469055D01*
X603858Y473149D01*
X607952Y477244D01*
X612047Y479370D01*
X618149Y481338D01*
X628346D01*
X634566Y479370D01*
X638661Y477244D01*
X642755Y473149D01*
X644763Y469055D01*
Y460866D01*
X642755Y456850D01*
X638661Y452755D01*
X634566Y450669D01*
X612047Y435157D02*
X609960D01*
X605866Y433070D01*
X603858Y431062D01*
X601732Y426968D01*
Y418740D01*
X603858Y414645D01*
X605866Y412637D01*
X609960Y410551D01*
X614055D01*
X618149Y412637D01*
X624251Y416732D01*
X644763Y437165D01*
Y408543D01*
X609960Y395039D02*
X607952Y390944D01*
X601732Y384842D01*
X644763D01*
X772204Y1347047D02*
Y1304015D01*
Y1347047D02*
X753818D01*
X747716Y1345039D01*
X745590Y1342952D01*
X743622Y1338818D01*
Y1334724D01*
X745590Y1330629D01*
X747716Y1328622D01*
X753818Y1326535D01*
X772204D01*
X757913D02*
X743622Y1304015D01*
X727992Y1336850D02*
Y1338818D01*
X726023Y1342952D01*
X723897Y1345039D01*
X719803Y1347047D01*
X711692D01*
X707598Y1345039D01*
X705511Y1342952D01*
X703503Y1338818D01*
Y1334724D01*
X705511Y1330629D01*
X709606Y1324527D01*
X730118Y1304015D01*
X701417D01*
X683818Y1347047D02*
X661299D01*
X673622Y1330629D01*
X667519D01*
X663425Y1328622D01*
X661299Y1326535D01*
X659291Y1320433D01*
Y1316338D01*
X661299Y1310236D01*
X665393Y1306141D01*
X671614Y1304015D01*
X677716D01*
X683818Y1306141D01*
X685905Y1308149D01*
X687913Y1312244D01*
X543543Y1203740D02*
X586456D01*
X543543D02*
Y1185314D01*
X545551Y1179212D01*
X547559Y1177125D01*
X551653Y1175118D01*
X555748D01*
X559881Y1177125D01*
X561968Y1179212D01*
X563976Y1185314D01*
Y1203740D01*
Y1189409D02*
X586456Y1175118D01*
X553779Y1159527D02*
X551653D01*
X547559Y1157519D01*
X545551Y1155433D01*
X543543Y1151338D01*
Y1143228D01*
X545551Y1139133D01*
X547559Y1137047D01*
X551653Y1135039D01*
X555748D01*
X559881Y1137047D01*
X566062Y1141141D01*
X586456Y1161614D01*
Y1132913D01*
X543543Y1099015D02*
X572165Y1119409D01*
Y1088740D01*
X543543Y1099015D02*
X586456D01*
X382716Y1344291D02*
Y1301377D01*
X358228D01*
X344724Y1344291D02*
Y1301377D01*
Y1344291D02*
X318110D01*
X344724Y1323897D02*
X328307D01*
X344724Y1301377D02*
X318110D01*
X304606Y1344291D02*
Y1301377D01*
Y1344291D02*
X290236D01*
X284133Y1342283D01*
X280039Y1338188D01*
X278031Y1334094D01*
X275905Y1327992D01*
Y1317795D01*
X278031Y1311574D01*
X280039Y1307480D01*
X284133Y1303385D01*
X290236Y1301377D01*
X304606D01*
X262440Y1336181D02*
X258307Y1338188D01*
X252204Y1344291D01*
Y1301377D01*
D12*
X2334921Y-00009132D02*
G03X2327046Y-00017006I0J-00007874D01*
G01*
X2327046Y-00017006D02*
X2327047D01*
X2321141Y-00024487D02*
G03X2327045Y-00018582I0J5905D01*
G01*
X2327045Y-00018582D02*
X2327047Y-00018581D01*
X2321141Y-00032754D02*
G03X2327046Y-00026849I0J5905D01*
G01*
X2327046Y-00026849D02*
X2327047D01*
X2082952Y-00026849D02*
G03X2088857Y-00032754I5904J0D01*
G01*
X2088857Y-00032754D02*
X2088858Y-00032754D01*
X2082952Y-00018581D02*
G03X2088857Y-00024486I5904J0D01*
G01*
X2088857Y-00024486D02*
X2088858Y-00024487D01*
X2082952Y-00017006D02*
G03X2075078Y-00009132I-00007874J0D01*
G01*
X2075078Y-00009132D02*
Y-00009132D01*
X2340826Y-00009132D02*
G03X2342145Y-00014594I10826J-00000275D01*
G01*
X2342145Y-00014594D02*
X2342145Y-00014594D01*
X2342125Y-00014605D01*
X2067598Y-00015038D02*
G03X2069179Y-00009132I-00010236J5905D01*
G01*
X2069179Y-00009132D02*
X2069179Y-00009132D01*
X2069173D01*
D19*
X2362913Y402007D02*
G03X2362991Y402006I38J-00005905D01*
G01*
X2362991Y402006D02*
X2362992Y402007D01*
X354409Y926417D02*
G03X354291Y926416I-00000078J5904D01*
G01*
X354291Y926416D02*
X354291Y926416D01*
Y926417D01*
D20*
X413503Y841692D02*
G03X413384Y841692I-00000038J7874D01*
G01*
X413384Y841692D02*
X413385Y841693D01*
Y841692D01*
D12*
X964015Y102992D02*
G03X914015Y102992I-00025000J0D01*
G01*
X914015Y102992D02*
X1049015Y1157992D02*
G03X999015Y1157992I-00025000J0D01*
G01*
X999015Y1157992D02*
X964015Y427992D02*
G03X914015Y427992I-00025000J0D01*
G01*
X914015Y427992D02*
X861496Y94015D02*
G03X861496Y94015I-00007479J0D01*
G01*
X946496Y1149015D02*
G03X946496Y1149015I-00007479J0D01*
G01*
X861496Y419015D02*
G03X861496Y419015I-00007479J0D01*
G01*
D02*
M02*
