G04 Created by GerbView*
%FSLAX26Y26*%
%MOIN*%
G75*
%ADD10C,0.0010*%
%ADD11C,0.0100*%
%ADD12C,0.0078*%
%ADD13C,0.0090*%
%ADD14C,0.0050*%
%ADD15C,0.0060*%
%ADD16C,0.0070*%
%ADD17C,0.0118*%
%ADD18C,0.0157*%
%LNEXPORT*%
D02*
D10*
D11*
X296968Y456968D02*
Y608976D01*
X488976Y455984D02*
Y608976D01*
X296968Y455984D02*
X488976D01*
X296968Y608976D02*
X488976D01*
D12*
X403464Y1048700D02*
Y1092047D01*
X466496D01*
Y1048700D01*
X403464Y1017244D02*
Y973937D01*
X442834D01*
X466496D01*
Y1017244D01*
X290708Y799488D02*
X334015D01*
Y736496D01*
X290708D01*
X259212Y799488D02*
X215905D01*
Y760118D01*
Y736496D01*
X259212D01*
D13*
X243307Y676299D02*
Y479448D01*
X156653D01*
Y676299D01*
X243307D01*
D12*
X369251Y221496D02*
X325944D01*
Y284488D01*
X369251D01*
X400748Y221496D02*
X444055D01*
Y260866D01*
Y284488D01*
X400748D01*
X410944Y869409D02*
X454251D01*
Y806417D01*
X410944D01*
X379448Y869409D02*
X336141D01*
Y830039D01*
Y806417D01*
X379448D01*
X290708Y869488D02*
X334015D01*
Y806496D01*
X290708D01*
X259212Y869488D02*
X215905D01*
Y830118D01*
Y806496D01*
X259212D01*
X290708Y939488D02*
X334015D01*
Y876496D01*
X290708D01*
X259212Y939488D02*
X215905D01*
Y900118D01*
Y876496D01*
X259212D01*
X290708Y1009488D02*
X334015D01*
Y946496D01*
X290708D01*
X259212Y1009488D02*
X215905D01*
Y970118D01*
Y946496D01*
X259212D01*
D11*
X936456Y307283D02*
X645118D01*
Y567125D01*
X936456D02*
Y307283D01*
X645118Y567125D02*
X936456D01*
D13*
X581653Y1071299D02*
X778503D01*
Y984685D01*
X581653D01*
Y1071299D01*
D11*
X1439291Y1358818D02*
Y1045826D01*
X1720668D01*
Y1358818D01*
X1439291D01*
X1477637Y1045826D02*
Y994645D01*
X1497283D01*
Y1045826D01*
X1663543Y1045984D02*
Y994803D01*
X1683228D01*
Y1045984D01*
X1444291Y778818D02*
Y465826D01*
X1725668D01*
Y778818D01*
X1444291D01*
X1482637Y465826D02*
Y414645D01*
X1502283D01*
Y465826D01*
X1668543Y465984D02*
Y414803D01*
X1688228D01*
Y465984D01*
D13*
X796653Y981299D02*
X993503D01*
Y894685D01*
X796653D01*
Y981299D01*
D11*
X1109291Y1353818D02*
Y1040826D01*
X1390669D01*
Y1353818D01*
X1109291D01*
X1147637Y1040826D02*
Y989645D01*
X1167283D01*
Y1040826D01*
X1333543Y1040984D02*
Y989803D01*
X1353228D01*
Y1040984D01*
X1109291Y778818D02*
Y465826D01*
X1390669D01*
Y778818D01*
X1109291D01*
X1147637Y465826D02*
Y414645D01*
X1167283D01*
Y465826D01*
X1333543Y465984D02*
Y414803D01*
X1353228D01*
Y465984D01*
D13*
X796692Y1071062D02*
X993543D01*
Y984448D01*
X796692D01*
Y1071062D01*
D11*
X1774291Y1353818D02*
Y1040826D01*
X2055668D01*
Y1353818D01*
X1774291D01*
X1812637Y1040826D02*
Y989645D01*
X1832283D01*
Y1040826D01*
X1998543Y1040984D02*
Y989803D01*
X2018228D01*
Y1040984D01*
X1779291Y778818D02*
Y465826D01*
X2060668D01*
Y778818D01*
X1779291D01*
X1817637Y465826D02*
Y414645D01*
X1837283D01*
Y465826D01*
X2003543Y465984D02*
Y414803D01*
X2023228D01*
Y465984D01*
D13*
X797086Y889566D02*
X993937D01*
Y802952D01*
X797086D01*
Y889566D01*
X581653Y981299D02*
X778503D01*
Y894685D01*
X581653D01*
Y981299D01*
Y891299D02*
X778503D01*
Y804685D01*
X581653D01*
Y891299D01*
Y796299D02*
X778503D01*
Y709685D01*
X581653D01*
Y796299D01*
Y706299D02*
X778503D01*
Y619685D01*
X581653D01*
Y706299D01*
D12*
X1070748Y489960D02*
Y446653D01*
X1007716D01*
Y489960D01*
X1070748Y521456D02*
Y564763D01*
X1031377D01*
X1007716D01*
Y521456D01*
D14*
X1027637Y637125D02*
Y597125D01*
X1051614D02*
Y637125D01*
X1039606Y621102D02*
Y613110D01*
X1043622Y609133D02*
Y625118D01*
X1035629Y617125D01*
X1043622Y609133D01*
X1071614Y597125D02*
X1007637D01*
Y637125D01*
X1071614D01*
Y597125D01*
D15*
X499842Y497086D02*
X530472D01*
X536653Y499094D01*
X540748Y503188D01*
X542755Y509409D01*
Y513503D01*
X540748Y519606D01*
X536653Y523700D01*
X530472Y525708D01*
X499842D01*
X510078Y541299D02*
X507952D01*
X503858Y543307D01*
X501850Y545393D01*
X499842Y549488D01*
Y557598D01*
X501850Y561692D01*
X503858Y563818D01*
X507952Y565787D01*
X512047D01*
X516141Y563818D01*
X522362Y559685D01*
X542755Y539212D01*
Y567913D01*
X324251Y1091929D02*
Y1049015D01*
Y1091929D02*
X342677D01*
X348779Y1089921D01*
X350866Y1087913D01*
X352874Y1083818D01*
Y1079724D01*
X350866Y1075629D01*
X348779Y1073503D01*
X342677Y1071535D01*
X324251D01*
X338582D02*
X352874Y1049015D01*
X368464Y1081732D02*
Y1083818D01*
X370472Y1087913D01*
X372559Y1089921D01*
X376653Y1091929D01*
X384763D01*
X388858Y1089921D01*
X390984Y1087913D01*
X392952Y1083818D01*
Y1079724D01*
X390984Y1075629D01*
X386889Y1069409D01*
X366377Y1049015D01*
X395078D01*
X165669Y777795D02*
X163582Y781889D01*
X159488Y785984D01*
X155472Y787992D01*
X147283D01*
X143188Y785984D01*
X139094Y781889D01*
X136968Y777795D01*
X134960Y771692D01*
Y761496D01*
X136968Y755275D01*
X139094Y751181D01*
X143188Y747086D01*
X147283Y745078D01*
X155472D01*
X159488Y747086D01*
X163582Y751181D01*
X165669Y755275D01*
X199566Y787992D02*
X179173Y759370D01*
X209881D01*
X199566Y787992D02*
Y745078D01*
X195669Y457677D02*
X193582Y461771D01*
X189488Y465866D01*
X185472Y467992D01*
X177283D01*
X173188Y465866D01*
X169094Y461771D01*
X166968Y457677D01*
X165000Y451574D01*
Y441377D01*
X166968Y435196D01*
X169094Y431062D01*
X173188Y426968D01*
X177283Y425000D01*
X185472D01*
X189488Y426968D01*
X193582Y431062D01*
X195669Y435196D01*
X233700Y467992D02*
X213267D01*
X211181Y449488D01*
X213267Y451574D01*
X219370Y453582D01*
X225472D01*
X231692Y451574D01*
X235787Y447480D01*
X237795Y441377D01*
Y437283D01*
X235787Y431062D01*
X231692Y426968D01*
X225472Y425000D01*
X219370D01*
X213267Y426968D01*
X211181Y429094D01*
X209173Y433188D01*
X252204Y262834D02*
X250118Y266929D01*
X246023Y271023D01*
X242007Y273031D01*
X233818D01*
X229724Y271023D01*
X225629Y266929D01*
X223503Y262834D01*
X221496Y256732D01*
Y246535D01*
X223503Y240314D01*
X225629Y236220D01*
X229724Y232125D01*
X233818Y230118D01*
X242007D01*
X246023Y232125D01*
X250118Y236220D01*
X252204Y240314D01*
X275905Y273031D02*
X269803Y271023D01*
X267716Y266929D01*
Y262834D01*
X269803Y258740D01*
X273897Y256732D01*
X282007Y254606D01*
X288228Y252637D01*
X292322Y248503D01*
X294330Y244409D01*
Y238307D01*
X292322Y234212D01*
X290196Y232125D01*
X284133Y230118D01*
X275905D01*
X269803Y232125D01*
X267716Y234212D01*
X265708Y238307D01*
Y244409D01*
X267716Y248503D01*
X271811Y252637D01*
X278031Y254606D01*
X286102Y256732D01*
X290196Y258740D01*
X292322Y262834D01*
Y266929D01*
X290196Y271023D01*
X284133Y273031D01*
X275905D01*
X391023Y906850D02*
X388937Y910944D01*
X384842Y915078D01*
X380826Y917047D01*
X372637D01*
X368543Y915078D01*
X364448Y910944D01*
X362322Y906850D01*
X360314Y900748D01*
Y890551D01*
X362322Y884370D01*
X364448Y880275D01*
X368543Y876141D01*
X372637Y874173D01*
X380826D01*
X384842Y876141D01*
X388937Y880275D01*
X391023Y884370D01*
X431141Y902755D02*
X429015Y896653D01*
X424921Y892559D01*
X418818Y890551D01*
X416850D01*
X410629Y892559D01*
X406535Y896653D01*
X404527Y902755D01*
Y904842D01*
X406535Y910944D01*
X410629Y915078D01*
X416850Y917047D01*
X418818D01*
X424921Y915078D01*
X429015Y910944D01*
X431141Y902755D01*
Y892559D01*
X429015Y882362D01*
X424921Y876141D01*
X418818Y874173D01*
X414724D01*
X408622Y876141D01*
X406535Y880275D01*
X134960Y862992D02*
Y820078D01*
Y862992D02*
X153385D01*
X159488Y860984D01*
X161574Y858976D01*
X163582Y854881D01*
Y850787D01*
X161574Y846692D01*
X159488Y844566D01*
X153385Y842598D01*
X134960D01*
X149291D02*
X163582Y820078D01*
X181181Y862992D02*
X203661D01*
X191496Y846692D01*
X197598D01*
X201692Y844566D01*
X203661Y842598D01*
X205787Y836496D01*
Y832362D01*
X203661Y826181D01*
X199566Y822086D01*
X193464Y820078D01*
X187362D01*
X181181Y822086D01*
X179173Y824173D01*
X177086Y828267D01*
X134960Y927992D02*
Y885078D01*
Y927992D02*
X153385D01*
X159488Y925984D01*
X161574Y923976D01*
X163582Y919881D01*
Y915787D01*
X161574Y911692D01*
X159488Y909566D01*
X153385Y907598D01*
X134960D01*
X149291D02*
X163582Y885078D01*
X197598Y927992D02*
X177086Y899370D01*
X207795D01*
X197598Y927992D02*
Y885078D01*
X134960Y997992D02*
Y955078D01*
Y997992D02*
X153385D01*
X159488Y995984D01*
X161574Y993976D01*
X163582Y989881D01*
Y985787D01*
X161574Y981692D01*
X159488Y979566D01*
X153385Y977598D01*
X134960D01*
X149291D02*
X163582Y955078D01*
X201692Y997992D02*
X181181D01*
X179173Y979566D01*
X181181Y981692D01*
X187362Y983700D01*
X193464D01*
X199566Y981692D01*
X203661Y977598D01*
X205787Y971496D01*
Y967362D01*
X203661Y961181D01*
X199566Y957086D01*
X193464Y955078D01*
X187362D01*
X181181Y957086D01*
X179173Y959173D01*
X177086Y963267D01*
X752992Y547834D02*
Y504842D01*
X777519D01*
X795118Y547834D02*
X817598D01*
X805393Y531417D01*
X811496D01*
X815590Y529409D01*
X817598Y527322D01*
X819724Y521220D01*
Y517125D01*
X817598Y511023D01*
X813503Y506929D01*
X807401Y504842D01*
X801299D01*
X795118Y506929D01*
X793110Y508937D01*
X791023Y513031D01*
X510669Y1042283D02*
X508582Y1046377D01*
X504488Y1050472D01*
X500472Y1052559D01*
X492283D01*
X488188Y1050472D01*
X484094Y1046377D01*
X481968Y1042283D01*
X480000Y1036181D01*
Y1025984D01*
X481968Y1019763D01*
X484094Y1015669D01*
X488188Y1011574D01*
X492283Y1009566D01*
X500472D01*
X504488Y1011574D01*
X508582Y1015669D01*
X510669Y1019763D01*
X524173Y1044370D02*
X528267Y1046377D01*
X534370Y1052559D01*
Y1009566D01*
X550000Y1042283D02*
Y1044370D01*
X551968Y1048464D01*
X553976Y1050472D01*
X558070Y1052559D01*
X566299D01*
X570393Y1050472D01*
X572480Y1048464D01*
X574488Y1044370D01*
Y1040275D01*
X572480Y1036181D01*
X568385Y1030078D01*
X547874Y1009566D01*
X576496D01*
X1578700Y1021850D02*
X1574606Y1019724D01*
X1570511Y1015629D01*
X1568385Y1011535D01*
X1566377Y1005433D01*
Y995236D01*
X1568385Y989055D01*
X1570511Y985039D01*
X1574606Y980944D01*
X1578700Y978858D01*
X1586889D01*
X1590905Y980944D01*
X1595000Y985039D01*
X1597086Y989055D01*
X1599094Y995236D01*
Y1005433D01*
X1597086Y1011535D01*
X1595000Y1015629D01*
X1590905Y1019724D01*
X1586889Y1021850D01*
X1578700D01*
X1584803Y987047D02*
X1597086Y974724D01*
X1616692Y1021850D02*
X1639212D01*
X1626889Y1005433D01*
X1633110D01*
X1637204Y1003425D01*
X1639212Y1001338D01*
X1641299Y995236D01*
Y991141D01*
X1639212Y985039D01*
X1635078Y980944D01*
X1628976Y978858D01*
X1622874D01*
X1616692Y980944D01*
X1614685Y982952D01*
X1612598Y987047D01*
X1596023Y448622D02*
X1591929Y446496D01*
X1587834Y442401D01*
X1585708Y438307D01*
X1583700Y432204D01*
Y422007D01*
X1585708Y415826D01*
X1587834Y411811D01*
X1591929Y407716D01*
X1596023Y405629D01*
X1604212D01*
X1608228Y407716D01*
X1612322Y411811D01*
X1614409Y415826D01*
X1616417Y422007D01*
Y432204D01*
X1614409Y438307D01*
X1612322Y442401D01*
X1608228Y446496D01*
X1604212Y448622D01*
X1596023D01*
X1602125Y413818D02*
X1614409Y401496D01*
X1650433Y448622D02*
X1629921Y419921D01*
X1660629D01*
X1650433Y448622D02*
Y405629D01*
X1032874Y952677D02*
X1030787Y956771D01*
X1026692Y960866D01*
X1022677Y962992D01*
X1014488D01*
X1010393Y960866D01*
X1006299Y956771D01*
X1004173Y952677D01*
X1002165Y946574D01*
Y936377D01*
X1004173Y930196D01*
X1006299Y926062D01*
X1010393Y921968D01*
X1014488Y920000D01*
X1022677D01*
X1026692Y921968D01*
X1030787Y926062D01*
X1032874Y930196D01*
X1046377Y954763D02*
X1050472Y956771D01*
X1056574Y962992D01*
Y920000D01*
X1090590Y962992D02*
X1070078Y934291D01*
X1100787D01*
X1090590Y962992D02*
Y920000D01*
X1253503Y1019488D02*
X1249409Y1017362D01*
X1245314Y1013267D01*
X1243188Y1009173D01*
X1241181Y1003070D01*
Y992874D01*
X1243188Y986692D01*
X1245314Y982677D01*
X1249409Y978582D01*
X1253503Y976496D01*
X1261692D01*
X1265708Y978582D01*
X1269803Y982677D01*
X1271889Y986692D01*
X1273897Y992874D01*
Y1003070D01*
X1271889Y1009173D01*
X1269803Y1013267D01*
X1265708Y1017362D01*
X1261692Y1019488D01*
X1253503D01*
X1259606Y984685D02*
X1271889Y972362D01*
X1287401Y1011259D02*
X1291496Y1013267D01*
X1297716Y1019488D01*
Y976496D01*
X1247992Y449409D02*
X1243897Y447283D01*
X1239803Y443188D01*
X1237677Y439094D01*
X1235669Y432992D01*
Y422795D01*
X1237677Y416614D01*
X1239803Y412598D01*
X1243897Y408503D01*
X1247992Y406417D01*
X1256181D01*
X1260196Y408503D01*
X1264291Y412598D01*
X1266377Y416614D01*
X1268385Y422795D01*
Y432992D01*
X1266377Y439094D01*
X1264291Y443188D01*
X1260196Y447283D01*
X1256181Y449409D01*
X1247992D01*
X1254094Y414606D02*
X1266377Y402283D01*
X1283976Y439094D02*
Y441181D01*
X1285984Y445314D01*
X1288070Y447283D01*
X1292204Y449409D01*
X1300275D01*
X1304370Y447283D01*
X1306496Y445314D01*
X1308503Y441181D01*
Y437086D01*
X1306496Y432992D01*
X1302401Y426889D01*
X1281889Y406417D01*
X1310590D01*
X1032913Y1037440D02*
X1030826Y1041535D01*
X1026732Y1045629D01*
X1022716Y1047755D01*
X1014527D01*
X1010433Y1045629D01*
X1006299Y1041535D01*
X1004212Y1037440D01*
X1002204Y1031338D01*
Y1021141D01*
X1004212Y1014960D01*
X1006299Y1010826D01*
X1010433Y1006732D01*
X1014527Y1004763D01*
X1022716D01*
X1026732Y1006732D01*
X1030826Y1010826D01*
X1032913Y1014960D01*
X1046417Y1039527D02*
X1050511Y1041535D01*
X1056614Y1047755D01*
Y1004763D01*
X1082401Y1047755D02*
X1076220Y1045629D01*
X1072204Y1039527D01*
X1070118Y1029251D01*
Y1023149D01*
X1072204Y1012952D01*
X1076220Y1006732D01*
X1082401Y1004763D01*
X1086535D01*
X1092598Y1006732D01*
X1096732Y1012952D01*
X1098700Y1023149D01*
Y1029251D01*
X1096732Y1039527D01*
X1092598Y1045629D01*
X1086535Y1047755D01*
X1082401D01*
X1907440Y1021062D02*
X1903346Y1018937D01*
X1899251Y1014842D01*
X1897125Y1010748D01*
X1895118Y1004645D01*
Y994448D01*
X1897125Y988267D01*
X1899251Y984251D01*
X1903346Y980157D01*
X1907440Y978070D01*
X1915629D01*
X1919645Y980157D01*
X1923740Y984251D01*
X1925826Y988267D01*
X1927834Y994448D01*
Y1004645D01*
X1925826Y1010748D01*
X1923740Y1014842D01*
X1919645Y1018937D01*
X1915629Y1021062D01*
X1907440D01*
X1913543Y986259D02*
X1925826Y973937D01*
X1965943Y1021062D02*
X1945433D01*
X1943425Y1002637D01*
X1945433Y1004645D01*
X1951614Y1006771D01*
X1957716D01*
X1963818Y1004645D01*
X1967952Y1000551D01*
X1970039Y994448D01*
Y990354D01*
X1967952Y984251D01*
X1963818Y980157D01*
X1957716Y978070D01*
X1951614D01*
X1945433Y980157D01*
X1943425Y982165D01*
X1941338Y986259D01*
X1930275Y452165D02*
X1926181Y450039D01*
X1922086Y445944D01*
X1919960Y441850D01*
X1917952Y435748D01*
Y425551D01*
X1919960Y419370D01*
X1922086Y415354D01*
X1926181Y411259D01*
X1930275Y409173D01*
X1938464D01*
X1942480Y411259D01*
X1946574Y415354D01*
X1948661Y419370D01*
X1950668Y425551D01*
Y435748D01*
X1948661Y441850D01*
X1946574Y445944D01*
X1942480Y450039D01*
X1938464Y452165D01*
X1930275D01*
X1936377Y417362D02*
X1948661Y405039D01*
X1988779Y445944D02*
X1986653Y450039D01*
X1980551Y452165D01*
X1976456D01*
X1970354Y450039D01*
X1966259Y443937D01*
X1964173Y433740D01*
Y423464D01*
X1966259Y415354D01*
X1970354Y411259D01*
X1976456Y409173D01*
X1978464D01*
X1984685Y411259D01*
X1988779Y415354D01*
X1990787Y421456D01*
Y423464D01*
X1988779Y429645D01*
X1984685Y433740D01*
X1978464Y435748D01*
X1976456D01*
X1970354Y433740D01*
X1966259Y429645D01*
X1964173Y423464D01*
X1031102Y855944D02*
X1029015Y860039D01*
X1024921Y864133D01*
X1020905Y866259D01*
X1012716D01*
X1008622Y864133D01*
X1004527Y860039D01*
X1002401Y855944D01*
X1000393Y849842D01*
Y839645D01*
X1002401Y833464D01*
X1004527Y829370D01*
X1008622Y825236D01*
X1012716Y823267D01*
X1020905D01*
X1024921Y825236D01*
X1029015Y829370D01*
X1031102Y833464D01*
X1044606Y858070D02*
X1048700Y860039D01*
X1054803Y866259D01*
Y823267D01*
X1092913Y866259D02*
X1072401D01*
X1070393Y847755D01*
X1072401Y849842D01*
X1078503Y851850D01*
X1084724D01*
X1090826Y849842D01*
X1094921Y845748D01*
X1096929Y839645D01*
Y835551D01*
X1094921Y829370D01*
X1090826Y825236D01*
X1084724Y823267D01*
X1078503D01*
X1072401Y825236D01*
X1070393Y827362D01*
X1068307Y831456D01*
X510669Y952283D02*
X508582Y956377D01*
X504488Y960472D01*
X500472Y962559D01*
X492283D01*
X488188Y960472D01*
X484094Y956377D01*
X481968Y952283D01*
X480000Y946181D01*
Y935984D01*
X481968Y929763D01*
X484094Y925669D01*
X488188Y921574D01*
X492283Y919566D01*
X500472D01*
X504488Y921574D01*
X508582Y925669D01*
X510669Y929763D01*
X524173Y954370D02*
X528267Y956377D01*
X534370Y962559D01*
Y919566D01*
X572480Y956377D02*
X570393Y960472D01*
X564291Y962559D01*
X560196D01*
X553976Y960472D01*
X550000Y954370D01*
X547874Y944055D01*
Y933858D01*
X550000Y925669D01*
X553976Y921574D01*
X560196Y919566D01*
X562165D01*
X568385Y921574D01*
X572480Y925669D01*
X574488Y931889D01*
Y933858D01*
X572480Y940078D01*
X568385Y944055D01*
X562165Y946181D01*
X560196D01*
X553976Y944055D01*
X550000Y940078D01*
X547874Y933858D01*
X510669Y862677D02*
X508582Y866771D01*
X504488Y870866D01*
X500472Y872992D01*
X492283D01*
X488188Y870866D01*
X484094Y866771D01*
X481968Y862677D01*
X480000Y856574D01*
Y846377D01*
X481968Y840196D01*
X484094Y836062D01*
X488188Y831968D01*
X492283Y830000D01*
X500472D01*
X504488Y831968D01*
X508582Y836062D01*
X510669Y840196D01*
X524173Y864763D02*
X528267Y866771D01*
X534370Y872992D01*
Y830000D01*
X558070Y872992D02*
X551968Y870866D01*
X550000Y866771D01*
Y862677D01*
X551968Y858582D01*
X556062Y856574D01*
X564291Y854488D01*
X570393Y852480D01*
X574488Y848385D01*
X576496Y844291D01*
Y838188D01*
X574488Y834094D01*
X572480Y831968D01*
X566299Y830000D01*
X558070D01*
X551968Y831968D01*
X550000Y834094D01*
X547874Y838188D01*
Y844291D01*
X550000Y848385D01*
X553976Y852480D01*
X560196Y854488D01*
X568385Y856574D01*
X572480Y858582D01*
X574488Y862677D01*
Y866771D01*
X572480Y870866D01*
X566299Y872992D01*
X558070D01*
X815669Y762283D02*
X813582Y766377D01*
X809488Y770472D01*
X805472Y772559D01*
X797283D01*
X793188Y770472D01*
X789094Y766377D01*
X786968Y762283D01*
X785000Y756181D01*
Y745984D01*
X786968Y739763D01*
X789094Y735669D01*
X793188Y731574D01*
X797283Y729566D01*
X805472D01*
X809488Y731574D01*
X813582Y735669D01*
X815669Y739763D01*
X829173Y764370D02*
X833267Y766377D01*
X839370Y772559D01*
Y729566D01*
X879488Y758188D02*
X877480Y752086D01*
X873385Y747952D01*
X867165Y745984D01*
X865196D01*
X858976Y747952D01*
X855000Y752086D01*
X852874Y758188D01*
Y760275D01*
X855000Y766377D01*
X858976Y770472D01*
X865196Y772559D01*
X867165D01*
X873385Y770472D01*
X877480Y766377D01*
X879488Y758188D01*
Y747952D01*
X877480Y737755D01*
X873385Y731574D01*
X867165Y729566D01*
X863070D01*
X856968Y731574D01*
X855000Y735669D01*
X815669Y677283D02*
X813582Y681377D01*
X809488Y685472D01*
X805472Y687559D01*
X797283D01*
X793188Y685472D01*
X789094Y681377D01*
X786968Y677283D01*
X785000Y671181D01*
Y660984D01*
X786968Y654763D01*
X789094Y650669D01*
X793188Y646574D01*
X797283Y644566D01*
X805472D01*
X809488Y646574D01*
X813582Y650669D01*
X815669Y654763D01*
X831181Y677283D02*
Y679370D01*
X833267Y683464D01*
X835275Y685472D01*
X839370Y687559D01*
X847598D01*
X851692Y685472D01*
X853661Y683464D01*
X855787Y679370D01*
Y675275D01*
X853661Y671181D01*
X849566Y665078D01*
X829173Y644566D01*
X857795D01*
X883582Y687559D02*
X877480Y685472D01*
X873385Y679370D01*
X871299Y669055D01*
Y662952D01*
X873385Y652755D01*
X877480Y646574D01*
X883582Y644566D01*
X887677D01*
X893779Y646574D01*
X897874Y652755D01*
X900000Y662952D01*
Y669055D01*
X897874Y679370D01*
X893779Y685472D01*
X887677Y687559D01*
X883582D01*
X1013622Y319960D02*
X1056535D01*
X1013622D02*
Y338385D01*
X1015629Y344448D01*
X1017637Y346574D01*
X1021732Y348582D01*
X1025826D01*
X1029960Y346574D01*
X1032047Y344448D01*
X1034055Y338385D01*
Y319960D01*
Y334251D02*
X1056535Y348582D01*
X1023858Y364173D02*
X1021732D01*
X1017637Y366181D01*
X1015629Y368267D01*
X1013622Y372362D01*
Y380472D01*
X1015629Y384566D01*
X1017637Y386653D01*
X1021732Y388661D01*
X1025826D01*
X1029960Y386653D01*
X1036141Y382559D01*
X1056535Y362047D01*
Y390748D01*
X1013622Y428779D02*
Y408385D01*
X1032047Y406259D01*
X1029960Y408385D01*
X1027952Y414448D01*
Y420551D01*
X1029960Y426771D01*
X1034055Y430866D01*
X1040157Y432874D01*
X1044251D01*
X1050433Y430866D01*
X1054527Y426771D01*
X1056535Y420551D01*
Y414448D01*
X1054527Y408385D01*
X1052440Y406259D01*
X1048346Y404251D01*
X1019133Y647755D02*
X1062047D01*
Y672244D01*
X1019133Y685748D02*
X1062047D01*
X1019133D02*
Y712362D01*
X1039566Y685748D02*
Y702125D01*
X1062047Y685748D02*
Y712362D01*
X1019133Y725826D02*
X1062047D01*
X1019133D02*
Y740236D01*
X1021141Y746338D01*
X1025236Y750433D01*
X1029330Y752440D01*
X1035433Y754527D01*
X1045629D01*
X1051850Y752440D01*
X1055944Y750433D01*
X1060039Y746338D01*
X1062047Y740236D01*
Y725826D01*
X1029330Y770039D02*
X1027244D01*
X1023149Y772125D01*
X1021141Y774133D01*
X1019133Y778228D01*
Y786456D01*
X1021141Y790551D01*
X1023149Y792559D01*
X1027244Y794645D01*
X1031338D01*
X1035433Y792559D01*
X1041653Y788425D01*
X1062047Y768031D01*
Y796653D01*
D16*
X604960Y271062D02*
Y222244D01*
Y271062D02*
X635196D01*
X604960Y247834D02*
X623582D01*
X604960Y222244D02*
X635196D01*
X650590Y271062D02*
Y222244D01*
X678464D01*
X693779Y271062D02*
Y222244D01*
Y271062D02*
X724094D01*
X693779Y247834D02*
X712480D01*
X693779Y222244D02*
X724094D01*
X774291Y259448D02*
X771968Y264055D01*
X767362Y268740D01*
X762677Y271062D01*
X753385D01*
X748661Y268740D01*
X744094Y264055D01*
X741771Y259448D01*
X739370Y252440D01*
Y240866D01*
X741771Y233858D01*
X744094Y229173D01*
X748661Y224566D01*
X753385Y222244D01*
X762677D01*
X767362Y224566D01*
X771968Y229173D01*
X774291Y233858D01*
X805984Y271062D02*
Y222244D01*
X789685Y271062D02*
X822283D01*
X837559D02*
Y222244D01*
Y271062D02*
X858582D01*
X865472Y268740D01*
X867874Y266456D01*
X870196Y261771D01*
Y257165D01*
X867874Y252440D01*
X865472Y250157D01*
X858582Y247834D01*
X837559D01*
X853858D02*
X870196Y222244D01*
X899488Y271062D02*
X894763Y268740D01*
X890196Y264055D01*
X887874Y259448D01*
X885472Y252440D01*
Y240866D01*
X887874Y233858D01*
X890196Y229173D01*
X894763Y224566D01*
X899488Y222244D01*
X908779D01*
X913464Y224566D01*
X918070Y229173D01*
X920393Y233858D01*
X922795Y240866D01*
Y252440D01*
X920393Y259448D01*
X918070Y264055D01*
X913464Y268740D01*
X908779Y271062D01*
X899488D01*
X938070D02*
Y222244D01*
Y271062D02*
X970669Y222244D01*
Y271062D02*
Y222244D01*
X999960Y271062D02*
X995275Y268740D01*
X990669Y264055D01*
X988385Y259448D01*
X985984Y252440D01*
Y240866D01*
X988385Y233858D01*
X990669Y229173D01*
X995275Y224566D01*
X999960Y222244D01*
X1009291D01*
X1013976Y224566D01*
X1018582Y229173D01*
X1020866Y233858D01*
X1023267Y240866D01*
Y252440D01*
X1020866Y259448D01*
X1018582Y264055D01*
X1013976Y268740D01*
X1009291Y271062D01*
X999960D01*
X1052559D02*
X1047874Y268740D01*
X1043267Y264055D01*
X1040866Y259448D01*
X1038582Y252440D01*
Y240866D01*
X1040866Y233858D01*
X1043267Y229173D01*
X1047874Y224566D01*
X1052559Y222244D01*
X1061889D01*
X1066496Y224566D01*
X1071181Y229173D01*
X1073464Y233858D01*
X1075787Y240866D01*
Y252440D01*
X1073464Y259448D01*
X1071181Y264055D01*
X1066496Y268740D01*
X1061889Y271062D01*
X1052559D01*
X1091181D02*
Y222244D01*
Y271062D02*
X1112086D01*
X1119094Y268740D01*
X1121377Y266456D01*
X1123779Y261771D01*
Y257165D01*
X1121377Y252440D01*
X1119094Y250157D01*
X1112086Y247834D01*
X1091181D02*
X1112086D01*
X1119094Y245472D01*
X1121377Y243149D01*
X1123779Y238464D01*
Y231535D01*
X1121377Y226850D01*
X1119094Y224566D01*
X1112086Y222244D01*
X1091181D01*
X1171692Y264055D02*
X1166968Y268740D01*
X1160078Y271062D01*
X1150669D01*
X1143779Y268740D01*
X1139094Y264055D01*
Y259448D01*
X1141377Y254763D01*
X1143779Y252440D01*
X1148385Y250157D01*
X1162362Y245472D01*
X1166968Y243149D01*
X1169370Y240866D01*
X1171692Y236141D01*
Y229173D01*
X1166968Y224566D01*
X1160078Y222244D01*
X1150669D01*
X1143779Y224566D01*
X1139094Y229173D01*
D12*
X424251Y1192322D02*
Y1124606D01*
Y1192322D02*
X466181D01*
X424251Y1160118D02*
X450078D01*
X424251Y1124606D02*
X466181D01*
X532480Y1182598D02*
X526062Y1189094D01*
X516377Y1192322D01*
X503464D01*
X493858Y1189094D01*
X487362Y1182598D01*
Y1176220D01*
X490669Y1169724D01*
X493858Y1166496D01*
X500275Y1163307D01*
X519566Y1156929D01*
X526062Y1153622D01*
X529251Y1150393D01*
X532480Y1144015D01*
Y1134330D01*
X526062Y1127913D01*
X516377Y1124606D01*
X503464D01*
X493858Y1127913D01*
X487362Y1134330D01*
X602086Y1176220D02*
X598858Y1182598D01*
X592362Y1189094D01*
X585984Y1192322D01*
X573070D01*
X566653Y1189094D01*
X560157Y1182598D01*
X556968Y1176220D01*
X553779Y1166496D01*
Y1150393D01*
X556968Y1140826D01*
X560157Y1134330D01*
X566653Y1127913D01*
X573070Y1124606D01*
X585984D01*
X592362Y1127913D01*
X598858Y1134330D01*
X602086Y1140826D01*
X672952Y1192322D02*
X698661Y1124606D01*
X724488Y1192322D02*
X698661Y1124606D01*
X748976Y1176220D02*
Y1179409D01*
X752165Y1185905D01*
X755354Y1189094D01*
X761850Y1192322D01*
X774763D01*
X781181Y1189094D01*
X784370Y1185905D01*
X787559Y1179409D01*
Y1172992D01*
X784370Y1166496D01*
X777952Y1156929D01*
X745787Y1124606D01*
X790866D01*
X815354Y1140826D02*
X812086Y1137519D01*
X815354Y1134330D01*
X818582Y1137519D01*
X815354Y1140826D01*
X859173Y1192322D02*
X849488Y1189094D01*
X843070Y1179409D01*
X839763Y1163307D01*
Y1153622D01*
X843070Y1137519D01*
X849488Y1127913D01*
X859173Y1124606D01*
X865551D01*
X875275Y1127913D01*
X881653Y1137519D01*
X884881Y1153622D01*
Y1163307D01*
X881653Y1179409D01*
X875275Y1189094D01*
X865551Y1192322D01*
X859173D01*
X2170157Y1286811D02*
X2144330Y1219212D01*
X2170157Y1286811D02*
X2195944Y1219212D01*
X2154055Y1241692D02*
X2186259D01*
X2144330Y741535D02*
Y673818D01*
Y741535D02*
X2173346D01*
X2182952Y738228D01*
X2186259Y735039D01*
X2189448Y728622D01*
Y722125D01*
X2186259Y715708D01*
X2182952Y712519D01*
X2173346Y709212D01*
X2144330D02*
X2173346D01*
X2182952Y706023D01*
X2186259Y702834D01*
X2189448Y696417D01*
Y686732D01*
X2186259Y680314D01*
X2182952Y677007D01*
X2173346Y673818D01*
X2144330D01*
X2191850Y131732D02*
X2188661Y138110D01*
X2182165Y144645D01*
X2175748Y147834D01*
X2162874D01*
X2156456Y144645D01*
X2149960Y138110D01*
X2146771Y131732D01*
X2143543Y122007D01*
Y105944D01*
X2146771Y96220D01*
X2149960Y89842D01*
X2156456Y83425D01*
X2162874Y80118D01*
X2175748D01*
X2182165Y83425D01*
X2188661Y89842D01*
X2191850Y96220D01*
D17*
X289015Y437007D02*
G03X289093Y437006I38J-00005905D01*
G01*
X289093Y437006D02*
X289094Y437007D01*
D18*
X1457992Y1010393D02*
G03X1457991Y1010314I-00007873J-00000038D01*
G01*
X1457991Y1010314D02*
X1457992Y1010314D01*
X1462992Y430393D02*
G03X1462991Y430314I-00007873J-00000039D01*
G01*
X1462991Y430314D02*
X1462992Y430314D01*
X1127992Y1005393D02*
G03X1127991Y1005314I-00007873J-00000038D01*
G01*
X1127991Y1005314D02*
X1127992Y1005314D01*
X1127992Y430393D02*
G03X1127991Y430314I-00007873J-00000039D01*
G01*
X1127991Y430314D02*
X1127992Y430314D01*
X1792992Y1005393D02*
G03X1792991Y1005314I-00007873J-00000038D01*
G01*
X1792991Y1005314D02*
X1792992Y1005314D01*
X1797992Y430393D02*
G03X1797991Y430314I-00007873J-00000039D01*
G01*
X1797991Y430314D02*
X1797992Y430314D01*
D10*
G36*
X2203385Y1377362D02*
X2427401D01*
Y-00000550D01*
X2203385D01*
Y1377362D01*
G37*
G36*
X-00000904Y1376574D02*
X90787D01*
Y-00001337D01*
X-00000904D01*
Y1376574D01*
G37*
G36*
X1246194Y323461D02*
X1262694D01*
X1263694D01*
X1264694D01*
X1265594D01*
X1266494Y323361D01*
X1267294D01*
X1267994Y323261D01*
X1268694Y323161D01*
X1269294Y323061D01*
X1270094Y322961D01*
X1270894Y322761D01*
X1271594Y322561D01*
X1272294Y322261D01*
X1272894Y322061D01*
X1273494Y321761D01*
X1274094Y321361D01*
X1274694Y321061D01*
X1275194Y320661D01*
X1275694Y320261D01*
X1276194Y319761D01*
X1276594Y319261D01*
X1277094Y318661D01*
X1277494Y318161D01*
X1277794Y317561D01*
X1278194Y316861D01*
X1278494Y316161D01*
X1278794Y315461D01*
X1278994Y314761D01*
X1279194Y314061D01*
X1279294Y313261D01*
X1279394Y312561D01*
X1279494Y311761D01*
Y310961D01*
X1279394Y309561D01*
X1279294Y308261D01*
X1278994Y307061D01*
X1278594Y305861D01*
X1278094Y304661D01*
X1277494Y303561D01*
X1276794Y302561D01*
X1275994Y301561D01*
X1274994Y300661D01*
X1273794Y299861D01*
X1272494Y299261D01*
X1270994Y298661D01*
X1269294Y298261D01*
X1267494Y297961D01*
X1265394Y297761D01*
X1263194D01*
X1251994D01*
Y279961D01*
X1246194D01*
Y323461D01*
G37*
%LPC*%
G36*
X1263294Y302861D02*
X1264594D01*
X1265894Y302961D01*
X1266994Y303161D01*
X1267994Y303361D01*
X1268994Y303661D01*
X1269794Y303961D01*
X1270594Y304461D01*
X1271194Y304861D01*
X1271794Y305461D01*
X1272194Y306061D01*
X1272594Y306661D01*
X1272994Y307361D01*
X1273194Y308161D01*
X1273394Y308961D01*
X1273494Y309861D01*
Y310761D01*
Y311461D01*
Y312061D01*
X1273394Y312661D01*
X1273194Y313261D01*
X1272994Y313861D01*
X1272794Y314361D01*
X1272494Y314961D01*
X1272194Y315461D01*
X1271794Y315861D01*
X1271394Y316361D01*
X1270994Y316661D01*
X1270594Y317061D01*
X1270094Y317361D01*
X1269594Y317561D01*
X1269094Y317861D01*
X1268494Y317961D01*
X1268094Y318061D01*
X1267594Y318161D01*
X1267094Y318261D01*
X1266494D01*
X1265694Y318361D01*
X1264994D01*
X1264094D01*
X1263194D01*
X1251994D01*
Y302861D01*
X1263294D01*
G37*
%LPD*%
G36*
X1323629Y293822D02*
X1323132Y292102D01*
X1322544Y290487D01*
X1321866Y288977D01*
X1321098Y287572D01*
X1320239Y286272D01*
X1319290Y285078D01*
X1318251Y283989D01*
X1317121Y283005D01*
X1315914Y282132D01*
X1314641Y281376D01*
X1313303Y280736D01*
X1311899Y280212D01*
X1310431Y279805D01*
X1308896Y279514D01*
X1307297Y279339D01*
X1305632Y279281D01*
X1303916Y279326D01*
X1302283Y279460D01*
X1300731Y279684D01*
X1299261Y279997D01*
X1297873Y280399D01*
X1296568Y280892D01*
X1295344Y281473D01*
X1294202Y282145D01*
X1293135Y282901D01*
X1292132Y283737D01*
X1291196Y284653D01*
X1290326Y285650D01*
X1289521Y286727D01*
X1288782Y287884D01*
X1288109Y289122D01*
X1287501Y290440D01*
X1286963Y291810D01*
X1286496Y293205D01*
X1286101Y294626D01*
X1285778Y296071D01*
X1285527Y297542D01*
X1285347Y299037D01*
X1285239Y300558D01*
X1285203Y302104D01*
X1285244Y303776D01*
X1285366Y305393D01*
X1285568Y306957D01*
X1285852Y308466D01*
X1286217Y309921D01*
X1286663Y311321D01*
X1287190Y312668D01*
X1287798Y313960D01*
X1288481Y315187D01*
X1289233Y316338D01*
X1290053Y317413D01*
X1290942Y318412D01*
X1291899Y319335D01*
X1292925Y320181D01*
X1294020Y320952D01*
X1295183Y321647D01*
X1296396Y322262D01*
X1297638Y322796D01*
X1298911Y323247D01*
X1300214Y323616D01*
X1301547Y323903D01*
X1302910Y324109D01*
X1304304Y324232D01*
X1305727Y324273D01*
X1307326Y324221D01*
X1308860Y324065D01*
X1310329Y323805D01*
X1311733Y323442D01*
X1313072Y322975D01*
X1314347Y322403D01*
X1315556Y321728D01*
X1316701Y320949D01*
X1317771Y320076D01*
X1318756Y319119D01*
X1319658Y318077D01*
X1320475Y316951D01*
X1321207Y315740D01*
X1321856Y314445D01*
X1322420Y313066D01*
X1322899Y311602D01*
X1317245Y310266D01*
X1316846Y311413D01*
X1316404Y312479D01*
X1315920Y313465D01*
X1315393Y314369D01*
X1314823Y315194D01*
X1314211Y315937D01*
X1313556Y316600D01*
X1312858Y317182D01*
X1312116Y317689D01*
X1311328Y318129D01*
X1310494Y318502D01*
X1309613Y318806D01*
X1308686Y319043D01*
X1307712Y319213D01*
X1306693Y319314D01*
X1305627Y319348D01*
X1304400Y319310D01*
X1303225Y319198D01*
X1302101Y319010D01*
X1301028Y318747D01*
X1300007Y318409D01*
X1299038Y317996D01*
X1298120Y317507D01*
X1297253Y316944D01*
X1296443Y316317D01*
X1295696Y315639D01*
X1295011Y314909D01*
X1294389Y314128D01*
X1293829Y313295D01*
X1293332Y312411D01*
X1292897Y311476D01*
X1292525Y310488D01*
X1292206Y309471D01*
X1291929Y308447D01*
X1291694Y307414D01*
X1291503Y306374D01*
X1291354Y305325D01*
X1291247Y304269D01*
X1291183Y303205D01*
X1291162Y302133D01*
X1291187Y300767D01*
X1291263Y299446D01*
X1291389Y298168D01*
X1291565Y296935D01*
X1291792Y295746D01*
X1292069Y294600D01*
X1292397Y293499D01*
X1292774Y292442D01*
X1293206Y291440D01*
X1293693Y290503D01*
X1294236Y289631D01*
X1294835Y288825D01*
X1295490Y288084D01*
X1296200Y287409D01*
X1296967Y286799D01*
X1297790Y286254D01*
X1298649Y285774D01*
X1299527Y285358D01*
X1300421Y285006D01*
X1301333Y284718D01*
X1302263Y284494D01*
X1303211Y284334D01*
X1304176Y284238D01*
X1305158Y284206D01*
X1306341Y284249D01*
X1307477Y284380D01*
X1308568Y284598D01*
X1309612Y284903D01*
X1310609Y285296D01*
X1311561Y285775D01*
X1312466Y286342D01*
X1313325Y286996D01*
X1314128Y287735D01*
X1314862Y288560D01*
X1315530Y289468D01*
X1316129Y290461D01*
X1316661Y291538D01*
X1317126Y292700D01*
X1317523Y293946D01*
X1317853Y295277D01*
Y295271D01*
X1323629Y293822D01*
G37*
G36*
X1330494Y323461D02*
X1346794D01*
X1347994D01*
X1349194Y323361D01*
X1350294Y323261D01*
X1351294Y323161D01*
X1352294Y322961D01*
X1353194Y322761D01*
X1353994Y322461D01*
X1354794Y322161D01*
X1355494Y321861D01*
X1356194Y321461D01*
X1356894Y320961D01*
X1357494Y320461D01*
X1357994Y319961D01*
X1358594Y319361D01*
X1359094Y318761D01*
X1359494Y318061D01*
X1359894Y317461D01*
X1360294Y316761D01*
X1360594Y315961D01*
X1360794Y315261D01*
X1360994Y314561D01*
X1361094Y313861D01*
X1361194Y313061D01*
Y312361D01*
Y311661D01*
X1361094Y310961D01*
X1360994Y310361D01*
X1360794Y309661D01*
X1360594Y308961D01*
X1360394Y308361D01*
X1360094Y307761D01*
X1359694Y307061D01*
X1359294Y306461D01*
X1358894Y305961D01*
X1358394Y305361D01*
X1357794Y304861D01*
X1357194Y304361D01*
X1356594Y303961D01*
X1355894Y303561D01*
X1355094Y303161D01*
X1356094Y302761D01*
X1356994Y302461D01*
X1357894Y302061D01*
X1358594Y301561D01*
X1359394Y301061D01*
X1359994Y300461D01*
X1360694Y299861D01*
X1361194Y299161D01*
X1361694Y298461D01*
X1362194Y297761D01*
X1362494Y296961D01*
X1362794Y296161D01*
X1362994Y295261D01*
X1363194Y294461D01*
X1363294Y293561D01*
Y292561D01*
Y291861D01*
Y291061D01*
X1363194Y290361D01*
X1362994Y289661D01*
X1362794Y288961D01*
X1362594Y288261D01*
X1362394Y287561D01*
X1362094Y286861D01*
X1361694Y286261D01*
X1361394Y285661D01*
X1360994Y285061D01*
X1360594Y284561D01*
X1360194Y284061D01*
X1359794Y283661D01*
X1359294Y283261D01*
X1358894Y282861D01*
X1358394Y282461D01*
X1357894Y282161D01*
X1357294Y281861D01*
X1356694Y281561D01*
X1356094Y281361D01*
X1355494Y281061D01*
X1354794Y280861D01*
X1354094Y280661D01*
X1353394Y280561D01*
X1352594Y280361D01*
X1351794Y280261D01*
X1350894Y280161D01*
X1349994Y280061D01*
X1349094Y279961D01*
X1348094D01*
X1347094D01*
X1330494D01*
Y323461D01*
G37*
%LPC*%
G36*
X1345594Y305161D02*
X1346594D01*
X1347394Y305261D01*
X1348194D01*
X1348894Y305361D01*
X1349594D01*
X1350194Y305461D01*
X1350694Y305561D01*
X1351094Y305661D01*
X1351694Y305861D01*
X1352194Y306061D01*
X1352594Y306361D01*
X1353094Y306561D01*
X1353494Y306861D01*
X1353794Y307161D01*
X1354194Y307461D01*
X1354494Y307861D01*
X1354694Y308261D01*
X1354894Y308661D01*
X1355094Y309161D01*
X1355294Y309561D01*
X1355394Y310061D01*
X1355494Y310561D01*
Y311161D01*
X1355594Y311661D01*
X1355494Y312261D01*
Y312761D01*
X1355394Y313261D01*
X1355294Y313761D01*
X1355194Y314161D01*
X1354994Y314661D01*
X1354794Y315061D01*
X1354494Y315561D01*
X1354294Y315861D01*
X1353994Y316261D01*
X1353594Y316561D01*
X1353294Y316861D01*
X1352894Y317161D01*
X1352494Y317361D01*
X1351994Y317561D01*
X1351594Y317761D01*
X1350994Y317961D01*
X1350394Y318061D01*
X1349694Y318161D01*
X1348894Y318261D01*
X1348094D01*
X1347094Y318361D01*
X1346094D01*
X1344894D01*
X1336194D01*
Y305161D01*
X1345594D01*
G37*
G36*
X1347094Y285061D02*
X1347794D01*
X1348394D01*
X1348894D01*
X1349494Y285161D01*
X1349894D01*
X1350294D01*
X1350694Y285261D01*
X1350994D01*
X1351494Y285361D01*
X1351994Y285461D01*
X1352394Y285661D01*
X1352794Y285761D01*
X1353194Y285861D01*
X1353594Y286061D01*
X1353994Y286261D01*
X1354294Y286461D01*
X1354694Y286661D01*
X1354994Y286961D01*
X1355294Y287161D01*
X1355494Y287461D01*
X1355794Y287761D01*
X1356094Y288161D01*
X1356294Y288461D01*
X1356494Y288861D01*
X1356694Y289261D01*
X1356894Y289761D01*
X1357094Y290161D01*
X1357194Y290661D01*
X1357294Y291061D01*
Y291561D01*
X1357394Y292061D01*
Y292561D01*
Y293161D01*
X1357294Y293761D01*
X1357194Y294361D01*
X1357094Y294861D01*
X1356894Y295361D01*
X1356694Y295861D01*
X1356394Y296361D01*
X1356094Y296861D01*
X1355794Y297261D01*
X1355394Y297661D01*
X1355094Y298061D01*
X1354594Y298361D01*
X1354194Y298661D01*
X1353694Y298961D01*
X1353194Y299161D01*
X1352694Y299361D01*
X1352094Y299561D01*
X1351394Y299661D01*
X1350694Y299761D01*
X1349994Y299861D01*
X1349094Y299961D01*
X1348294Y300061D01*
X1347294D01*
X1346294D01*
X1336194D01*
Y285061D01*
X1347094D01*
G37*
%LPD*%
G36*
X1365703Y271742D02*
X1401088D01*
Y267911D01*
X1365703D01*
Y271742D01*
G37*
D02*
M02*
