G04 Created by GerbView*
%FSLAX26Y26*%
%MOIN*%
G75*
%ADD10C,0.0010*%
%ADD11C,0.1613*%
%ADD12C,0.0316*%
%ADD13R,0.1654X0.2835*%
%ADD14R,0.0473X0.0513*%
%ADD15R,0.1064X0.1457*%
%ADD16R,0.0710X0.0710*%
%ADD17R,0.0552X0.0946*%
%ADD18R,0.2441X0.2639*%
%ADD19R,0.2442X0.2639*%
%LNEXPORT*%
D02*
D10*
D11*
X1250000Y1205590D02*
X1167362D01*
X1090000Y1282992D01*
X195000D01*
X140000Y1227992D01*
X95000D01*
X1250000Y1205590D02*
X1255000Y1210590D01*
X1580000D01*
X1585000Y1205590D01*
X1915000D01*
X2010000Y297992D02*
Y222992D01*
X1895000Y102992D01*
X170000D01*
X120000Y152992D01*
X95000D01*
X1675000Y292992D02*
Y107992D01*
X1682795Y102992D01*
X1342480Y297362D02*
X1342992Y104133D01*
X1344133Y102992D01*
X1920000Y630590D02*
X2037401D01*
X2305000Y362992D01*
Y112992D01*
Y732992D02*
Y882992D01*
X2290000Y897992D01*
X2008110Y871456D02*
X1954960Y699803D01*
X1918740Y659645D01*
X1920118Y658858D01*
Y601456D01*
X1675000Y822992D02*
X1585000Y732992D01*
Y630590D01*
X1675000Y822992D02*
X1673070Y874527D01*
X1330000Y802992D02*
X1250000Y722992D01*
Y630590D01*
X1330000Y802992D02*
X1343188Y868267D01*
X2305000Y1242992D02*
X2133346D01*
X2132598Y1242244D01*
D12*
X470000Y630314D02*
Y669645D01*
X420000Y630314D02*
Y669645D01*
X370000Y630314D02*
Y669645D01*
X320000Y630314D02*
Y669645D01*
X470000Y396299D02*
Y435669D01*
X420000Y396299D02*
Y435669D01*
X370000Y396299D02*
Y435669D01*
X320000Y396299D02*
Y435669D01*
D13*
X95000Y1227992D03*
D12*
D13*
X95000Y152992D03*
D12*
D10*
G36*
X2202598Y1160275D02*
Y1325669D01*
X2407362D01*
Y1160275D01*
X2202598D01*
G37*
G36*
X2202598Y624566D02*
Y790000D01*
X2407362D01*
Y624566D01*
X2202598D01*
G37*
G36*
X2202598Y30275D02*
Y195669D01*
X2407362D01*
Y30275D01*
X2202598D01*
G37*
G36*
X322086Y479763D02*
Y586181D01*
X467874D01*
Y479763D01*
X322086D01*
G37*
G36*
X409291Y981771D02*
Y1029094D01*
X460669D01*
Y981771D01*
X409291D01*
G37*
G36*
X409291Y1036889D02*
Y1084173D01*
X460669D01*
Y1036889D01*
X409291D01*
G37*
D14*
X247440Y767992D03*
D10*
D14*
X302519Y767992D03*
D10*
G36*
X164488Y597480D02*
Y668464D01*
X235472D01*
Y597480D01*
X164488D01*
G37*
G36*
X164488Y487283D02*
Y558267D01*
X235472D01*
Y487283D01*
X164488D01*
G37*
G36*
X388897Y227283D02*
Y278661D01*
X436181D01*
Y227283D01*
X388897D01*
G37*
G36*
X333779Y227283D02*
Y278661D01*
X381062D01*
Y227283D01*
X333779D01*
G37*
D14*
X367637Y837874D03*
D10*
D14*
X422716Y837874D03*
D10*
D14*
X247440Y837992D03*
D10*
D14*
X302519Y837992D03*
D10*
D14*
X247440Y907992D03*
D10*
D14*
X302519Y907992D03*
D10*
D14*
X247440Y977992D03*
D10*
D14*
X302519Y977992D03*
D10*
D15*
X645078Y437165D03*
D10*
D15*
X936496Y437165D03*
D10*
D16*
X625000Y1027992D03*
D10*
D16*
X735196Y1027992D03*
D10*
G36*
X1645393Y858267D02*
Y952874D01*
X1700590D01*
Y858267D01*
X1645393D01*
G37*
D17*
X1486968Y905393D03*
D10*
D18*
X1580000Y1210511D03*
D10*
G36*
X1650393Y278267D02*
Y372874D01*
X1705590D01*
Y278267D01*
X1650393D01*
G37*
D17*
X1491968Y325393D03*
D10*
D18*
X1585000Y630511D03*
D10*
D16*
X840000Y937992D03*
D10*
D16*
X950196Y937992D03*
D10*
G36*
X1315393Y853267D02*
Y947874D01*
X1370590D01*
Y853267D01*
X1315393D01*
G37*
D17*
X1156968Y900393D03*
D10*
D19*
X1250000Y1205511D03*
D10*
G36*
X1315393Y278267D02*
Y372874D01*
X1370590D01*
Y278267D01*
X1315393D01*
G37*
D17*
X1156968Y325393D03*
D10*
D19*
X1250000Y630511D03*
D10*
D16*
X840000Y1027795D03*
D10*
D16*
X950196Y1027795D03*
D10*
G36*
X1980393Y853267D02*
Y947874D01*
X2035590D01*
Y853267D01*
X1980393D01*
G37*
D17*
X1821968Y900393D03*
D10*
D19*
X1915000Y1205511D03*
D10*
G36*
X1985393Y278267D02*
Y372874D01*
X2040590D01*
Y278267D01*
X1985393D01*
G37*
D17*
X1826968Y325393D03*
D10*
D19*
X1920000Y630511D03*
D10*
D16*
X840393Y846299D03*
D10*
D16*
X950590Y846299D03*
D10*
D16*
X625000Y937992D03*
D10*
D16*
X735196Y937992D03*
D10*
D16*
X625000Y847992D03*
D10*
D16*
X735196Y847992D03*
D10*
D16*
X625000Y752992D03*
D10*
D16*
X735196Y752992D03*
D10*
D16*
X625000Y662992D03*
D10*
D16*
X735196Y662992D03*
D10*
G36*
X1013582Y509566D02*
Y556968D01*
X1064881D01*
Y509566D01*
X1013582D01*
G37*
G36*
X1013582Y454488D02*
Y501771D01*
X1064881D01*
Y454488D01*
X1013582D01*
G37*
G36*
X1049685Y597165D02*
Y637086D01*
X1089566D01*
Y597165D01*
X1049685D01*
G37*
G36*
X989685Y597165D02*
Y637086D01*
X1029566D01*
Y597165D01*
X989685D01*
G37*
G36*
X1066500Y1007638D02*
X1081987Y1031253D01*
X1082388Y1031861D01*
X1082787Y1032451D01*
X1083183Y1033024D01*
X1083577Y1033580D01*
X1083969Y1034118D01*
X1084358Y1034639D01*
X1084745Y1035143D01*
X1085130Y1035630D01*
X1068196D01*
Y1039947D01*
X1089835D01*
Y1035630D01*
X1072921Y1010052D01*
X1071089Y1007462D01*
X1090349D01*
Y1003145D01*
X1066500D01*
Y1007638D01*
G37*
G36*
X1094050Y1029821D02*
X1097391D01*
Y1026054D01*
X1097676Y1026559D01*
X1097980Y1027034D01*
X1098303Y1027479D01*
X1098646Y1027895D01*
X1099009Y1028280D01*
X1099391Y1028637D01*
X1099792Y1028963D01*
X1100213Y1029260D01*
X1100649Y1029524D01*
X1101095Y1029753D01*
X1101552Y1029946D01*
X1102018Y1030105D01*
X1102495Y1030228D01*
X1102981Y1030316D01*
X1103478Y1030369D01*
X1103985Y1030387D01*
X1104548Y1030368D01*
X1105089Y1030312D01*
X1105608Y1030219D01*
X1106105Y1030089D01*
X1106579Y1029922D01*
X1107031Y1029717D01*
X1107461Y1029476D01*
X1107868Y1029197D01*
X1108251Y1028882D01*
X1108604Y1028534D01*
X1108930Y1028151D01*
X1109226Y1027735D01*
X1109495Y1027284D01*
X1109735Y1026799D01*
X1109946Y1026281D01*
X1110129Y1025728D01*
X1110462Y1026292D01*
X1110807Y1026820D01*
X1111164Y1027311D01*
X1111534Y1027766D01*
X1111915Y1028185D01*
X1112309Y1028567D01*
X1112715Y1028913D01*
X1113134Y1029222D01*
X1113564Y1029495D01*
X1114005Y1029732D01*
X1114458Y1029932D01*
X1114922Y1030096D01*
X1115398Y1030223D01*
X1115885Y1030314D01*
X1116383Y1030369D01*
X1116893Y1030387D01*
X1117658Y1030353D01*
X1118381Y1030253D01*
X1119063Y1030087D01*
X1119703Y1029854D01*
X1120301Y1029554D01*
X1120858Y1029187D01*
X1121373Y1028754D01*
X1121846Y1028254D01*
X1122271Y1027681D01*
X1122638Y1027028D01*
X1122949Y1026296D01*
X1123204Y1025483D01*
X1123402Y1024590D01*
X1123543Y1023617D01*
X1123628Y1022565D01*
X1123657Y1021432D01*
Y1003145D01*
X1119956D01*
Y1019932D01*
X1119949Y1020621D01*
X1119930Y1021257D01*
X1119897Y1021842D01*
X1119852Y1022375D01*
X1119794Y1022855D01*
X1119722Y1023283D01*
X1119638Y1023659D01*
X1119541Y1023983D01*
X1119429Y1024273D01*
X1119301Y1024546D01*
X1119157Y1024801D01*
X1118997Y1025040D01*
X1118821Y1025263D01*
X1118629Y1025468D01*
X1118420Y1025656D01*
X1118196Y1025828D01*
X1117960Y1025981D01*
X1117716Y1026113D01*
X1117466Y1026225D01*
X1117209Y1026317D01*
X1116944Y1026389D01*
X1116673Y1026440D01*
X1116394Y1026470D01*
X1116109Y1026480D01*
X1115526Y1026451D01*
X1114970Y1026362D01*
X1114442Y1026214D01*
X1113941Y1026007D01*
X1113468Y1025740D01*
X1113022Y1025415D01*
X1112603Y1025030D01*
X1112212Y1024586D01*
X1111859Y1024078D01*
X1111552Y1023503D01*
X1111293Y1022860D01*
X1111081Y1022149D01*
X1110916Y1021370D01*
X1110798Y1020523D01*
X1110727Y1019609D01*
X1110704Y1018627D01*
Y1003145D01*
X1107003D01*
Y1020459D01*
X1106987Y1021256D01*
X1106940Y1021992D01*
X1106861Y1022667D01*
X1106750Y1023281D01*
X1106607Y1023834D01*
X1106433Y1024326D01*
X1106228Y1024756D01*
X1105990Y1025125D01*
X1105725Y1025443D01*
X1105436Y1025718D01*
X1105123Y1025951D01*
X1104787Y1026142D01*
X1104426Y1026290D01*
X1104042Y1026396D01*
X1103634Y1026459D01*
X1103202Y1026480D01*
X1102587Y1026448D01*
X1102006Y1026353D01*
X1101457Y1026193D01*
X1100942Y1025969D01*
X1100460Y1025681D01*
X1100012Y1025330D01*
X1099596Y1024915D01*
X1099214Y1024435D01*
X1098871Y1023871D01*
X1098574Y1023202D01*
X1098322Y1022427D01*
X1098117Y1021546D01*
X1097957Y1020561D01*
X1097842Y1019469D01*
X1097774Y1018273D01*
X1097751Y1016971D01*
Y1003145D01*
X1094050D01*
Y1029821D01*
G37*
G36*
X1153366Y1039947D02*
Y1018690D01*
X1153350Y1017384D01*
X1153301Y1016137D01*
X1153220Y1014951D01*
X1153106Y1013824D01*
X1152960Y1012758D01*
X1152781Y1011752D01*
X1152570Y1010805D01*
X1152326Y1009919D01*
X1152040Y1009085D01*
X1151700Y1008296D01*
X1151307Y1007552D01*
X1150861Y1006854D01*
X1150361Y1006200D01*
X1149809Y1005592D01*
X1149203Y1005029D01*
X1148544Y1004510D01*
X1147835Y1004046D01*
X1147079Y1003643D01*
X1146277Y1003302D01*
X1145429Y1003024D01*
X1144533Y1002807D01*
X1143591Y1002652D01*
X1142603Y1002559D01*
X1141568Y1002528D01*
X1140124Y1002584D01*
X1138775Y1002751D01*
X1137518Y1003029D01*
X1136355Y1003419D01*
X1135286Y1003920D01*
X1134310Y1004533D01*
X1133428Y1005257D01*
X1132639Y1006092D01*
X1131943Y1007068D01*
X1131340Y1008216D01*
X1130830Y1009534D01*
X1130412Y1011023D01*
X1130088Y1012684D01*
X1129856Y1014515D01*
X1129717Y1016517D01*
X1129670Y1018690D01*
Y1039947D01*
X1133680D01*
Y1018700D01*
X1133692Y1017494D01*
X1133728Y1016374D01*
X1133789Y1015341D01*
X1133873Y1014393D01*
X1133982Y1013532D01*
X1134116Y1012758D01*
X1134273Y1012069D01*
X1134455Y1011468D01*
X1134664Y1010925D01*
X1134904Y1010417D01*
X1135175Y1009941D01*
X1135477Y1009499D01*
X1135809Y1009091D01*
X1136173Y1008715D01*
X1136567Y1008373D01*
X1136992Y1008065D01*
X1137445Y1007791D01*
X1137922Y1007554D01*
X1138422Y1007353D01*
X1138946Y1007189D01*
X1139494Y1007061D01*
X1140066Y1006970D01*
X1140661Y1006915D01*
X1141280Y1006897D01*
X1142307Y1006935D01*
X1143260Y1007048D01*
X1144140Y1007236D01*
X1144947Y1007500D01*
X1145681Y1007839D01*
X1146341Y1008253D01*
X1146929Y1008743D01*
X1147444Y1009308D01*
X1147892Y1009982D01*
X1148281Y1010799D01*
X1148609Y1011759D01*
X1148878Y1012862D01*
X1149088Y1014107D01*
X1149237Y1015495D01*
X1149327Y1017027D01*
X1149357Y1018700D01*
Y1039947D01*
X1153366D01*
G37*
G36*
X1159071Y997131D02*
X1159372Y997035D01*
X1159661Y996951D01*
X1159940Y996880D01*
X1160208Y996823D01*
X1160464Y996778D01*
X1160710Y996745D01*
X1160945Y996726D01*
X1161169Y996720D01*
X1161456Y996727D01*
X1161730Y996750D01*
X1161992Y996787D01*
X1162240Y996839D01*
X1162475Y996907D01*
X1162698Y996989D01*
X1162908Y997086D01*
X1163104Y997198D01*
X1163291Y997326D01*
X1163469Y997471D01*
X1163639Y997632D01*
X1163800Y997809D01*
X1163954Y998004D01*
X1164099Y998214D01*
X1164236Y998441D01*
X1164365Y998685D01*
X1164426Y998833D01*
X1164522Y999103D01*
X1164651Y999492D01*
X1164815Y1000003D01*
X1165014Y1000633D01*
X1165246Y1001385D01*
X1165514Y1002257D01*
X1165815Y1003250D01*
X1157581Y1029821D01*
X1161571D01*
X1166112Y1014491D01*
X1166322Y1013768D01*
X1166529Y1013032D01*
X1166731Y1012285D01*
X1166930Y1011524D01*
X1167124Y1010752D01*
X1167315Y1009966D01*
X1167502Y1009169D01*
X1167685Y1008359D01*
X1167846Y1009129D01*
X1168014Y1009895D01*
X1168191Y1010656D01*
X1168375Y1011412D01*
X1168568Y1012164D01*
X1168768Y1012911D01*
X1168976Y1013653D01*
X1169191Y1014391D01*
X1173861Y1029821D01*
X1177575D01*
X1169267Y1002693D01*
X1168870Y1001433D01*
X1168495Y1000282D01*
X1168141Y999240D01*
X1167809Y998308D01*
X1167498Y997484D01*
X1167209Y996770D01*
X1166942Y996165D01*
X1166696Y995669D01*
X1166457Y995243D01*
X1166210Y994848D01*
X1165955Y994484D01*
X1165692Y994151D01*
X1165422Y993848D01*
X1165143Y993577D01*
X1164857Y993337D01*
X1164563Y993127D01*
X1164260Y992945D01*
X1163947Y992787D01*
X1163625Y992654D01*
X1163293Y992545D01*
X1162951Y992460D01*
X1162599Y992399D01*
X1162237Y992363D01*
X1161866Y992351D01*
X1161598Y992360D01*
X1161322Y992386D01*
X1161037Y992430D01*
X1160743Y992492D01*
X1160441Y992572D01*
X1160130Y992669D01*
X1159811Y992784D01*
X1159482Y992916D01*
X1159071Y997131D01*
G37*
G36*
X1178860Y1007638D02*
X1194348Y1031253D01*
X1194749Y1031861D01*
X1195147Y1032451D01*
X1195544Y1033024D01*
X1195938Y1033580D01*
X1196329Y1034118D01*
X1196719Y1034639D01*
X1197106Y1035143D01*
X1197490Y1035630D01*
X1180556D01*
Y1039947D01*
X1202196D01*
Y1035630D01*
X1185281Y1010052D01*
X1183449Y1007462D01*
X1202710D01*
Y1003145D01*
X1178860D01*
Y1007638D01*
G37*
G36*
X1206400Y1039875D02*
X1210100D01*
Y1034675D01*
X1206400D01*
Y1039875D01*
G37*
G36*
X1202400Y996575D02*
X1202600D01*
X1202900Y996475D01*
X1203100Y996375D01*
X1203300D01*
X1203600Y996275D01*
X1203700D01*
X1203900D01*
X1204100D01*
X1204400D01*
X1204600D01*
X1204900Y996375D01*
X1205100Y996475D01*
X1205300Y996575D01*
X1205500Y996775D01*
X1205700Y996975D01*
X1205800Y997175D01*
X1205900Y997475D01*
X1206100Y997775D01*
Y998275D01*
X1206200Y998775D01*
X1206300Y999375D01*
Y1000075D01*
X1206400Y1000875D01*
Y1001775D01*
Y1029775D01*
X1210100D01*
Y1001675D01*
X1210000Y1000375D01*
Y999175D01*
X1209900Y998075D01*
X1209700Y997075D01*
X1209500Y996175D01*
X1209300Y995475D01*
X1209000Y994775D01*
X1208700Y994275D01*
X1208300Y993775D01*
X1207900Y993375D01*
X1207400Y993075D01*
X1206900Y992775D01*
X1206400Y992575D01*
X1205800Y992375D01*
X1205200D01*
X1204600Y992275D01*
X1204200D01*
X1203800Y992375D01*
X1203400D01*
X1203100D01*
X1202700Y992475D01*
X1202300Y992575D01*
X1202000Y992675D01*
X1201600Y992775D01*
X1202400Y996575D01*
G37*
G36*
X1218600Y1000175D02*
X1218700Y999675D01*
X1218800Y999175D01*
X1218900Y998775D01*
X1219100Y998375D01*
X1219300Y997975D01*
X1219500Y997675D01*
X1219800Y997275D01*
X1220100Y997075D01*
X1220400Y996775D01*
X1220800Y996575D01*
X1221200Y996375D01*
X1221600Y996275D01*
X1222100Y996175D01*
X1222600Y996075D01*
X1223100Y995975D01*
X1223600D01*
X1224200D01*
X1224800Y996075D01*
X1225300Y996175D01*
X1225800Y996275D01*
X1226300Y996475D01*
X1226700Y996675D01*
X1227200Y996875D01*
X1227500Y997175D01*
X1227900Y997475D01*
X1228200Y997775D01*
X1228500Y998175D01*
X1228800Y998575D01*
X1229000Y999075D01*
X1229200Y999575D01*
X1229400Y1000075D01*
X1229500Y1000675D01*
X1229600Y1001075D01*
X1229700Y1001575D01*
Y1002075D01*
X1229800Y1002775D01*
Y1003575D01*
Y1004475D01*
Y1005475D01*
X1229900Y1006575D01*
X1229500Y1006175D01*
X1229200Y1005775D01*
X1228900Y1005375D01*
X1228600Y1005075D01*
X1228200Y1004775D01*
X1227900Y1004475D01*
X1227500Y1004175D01*
X1227100Y1003975D01*
X1226700Y1003775D01*
X1226400Y1003575D01*
X1225900Y1003475D01*
X1225500Y1003275D01*
X1225100Y1003175D01*
X1224700D01*
X1224200Y1003075D01*
X1223800D01*
X1222800Y1003175D01*
X1221900Y1003275D01*
X1221000Y1003575D01*
X1220200Y1003875D01*
X1219400Y1004375D01*
X1218600Y1004975D01*
X1217900Y1005675D01*
X1217300Y1006375D01*
X1216600Y1007375D01*
X1215900Y1008475D01*
X1215400Y1009675D01*
X1215000Y1010875D01*
X1214700Y1012175D01*
X1214500Y1013575D01*
X1214300Y1015075D01*
Y1016575D01*
Y1017675D01*
X1214400Y1018675D01*
X1214500Y1019675D01*
X1214600Y1020675D01*
X1214800Y1021575D01*
X1215000Y1022475D01*
X1215300Y1023275D01*
X1215600Y1024075D01*
X1215900Y1024875D01*
X1216300Y1025575D01*
X1216700Y1026275D01*
X1217100Y1026875D01*
X1217500Y1027475D01*
X1218000Y1027975D01*
X1218500Y1028475D01*
X1219000Y1028875D01*
X1219600Y1029175D01*
X1220100Y1029475D01*
X1220700Y1029775D01*
X1221300Y1029975D01*
X1221900Y1030175D01*
X1222500Y1030275D01*
X1223100D01*
X1223800Y1030375D01*
X1224300Y1030275D01*
X1224700D01*
X1225200Y1030175D01*
X1225600Y1030075D01*
X1226100Y1029975D01*
X1226500Y1029775D01*
X1226900Y1029575D01*
X1227300Y1029375D01*
X1227700Y1029175D01*
X1228100Y1028875D01*
X1228500Y1028575D01*
X1228800Y1028175D01*
X1229200Y1027875D01*
X1229500Y1027475D01*
X1229800Y1026975D01*
X1230200Y1026575D01*
Y1029775D01*
X1233600D01*
Y1006775D01*
X1233500Y1005275D01*
Y1003875D01*
X1233400Y1002575D01*
X1233300Y1001475D01*
X1233200Y1000375D01*
X1233000Y999475D01*
X1232800Y998675D01*
X1232500Y997975D01*
X1232300Y997275D01*
X1232000Y996675D01*
X1231600Y996175D01*
X1231200Y995575D01*
X1230800Y995075D01*
X1230300Y994675D01*
X1229800Y994175D01*
X1229300Y993775D01*
X1228700Y993475D01*
X1228100Y993175D01*
X1227400Y992875D01*
X1226700Y992675D01*
X1226000Y992475D01*
X1225300Y992375D01*
X1224500Y992275D01*
X1223700D01*
X1222700Y992375D01*
X1221700Y992475D01*
X1220800Y992575D01*
X1220000Y992875D01*
X1219200Y993175D01*
X1218500Y993575D01*
X1217800Y994075D01*
X1217200Y994575D01*
X1216700Y995175D01*
X1216200Y995875D01*
X1215800Y996575D01*
X1215500Y997275D01*
X1215300Y998075D01*
X1215100Y998975D01*
X1215000Y999875D01*
Y1000875D01*
X1218600Y1000175D01*
G37*
%LPC*%
G36*
X1218100Y1016875D02*
Y1015575D01*
X1218200Y1014475D01*
X1218300Y1013375D01*
X1218500Y1012375D01*
X1218800Y1011475D01*
X1219100Y1010575D01*
X1219400Y1009875D01*
X1219800Y1009175D01*
X1220300Y1008675D01*
X1220700Y1008175D01*
X1221200Y1007775D01*
X1221700Y1007375D01*
X1222300Y1007175D01*
X1222900Y1006975D01*
X1223500Y1006875D01*
X1224100Y1006775D01*
X1224700Y1006875D01*
X1225300Y1006975D01*
X1225900Y1007175D01*
X1226400Y1007375D01*
X1226900Y1007675D01*
X1227400Y1008175D01*
X1227900Y1008575D01*
X1228300Y1009175D01*
X1228800Y1009775D01*
X1229100Y1010475D01*
X1229400Y1011375D01*
X1229700Y1012275D01*
X1229900Y1013175D01*
X1230000Y1014275D01*
X1230100Y1015475D01*
Y1016675D01*
Y1017875D01*
X1230000Y1019075D01*
X1229900Y1020075D01*
X1229700Y1021075D01*
X1229400Y1021975D01*
X1229100Y1022775D01*
X1228700Y1023575D01*
X1228300Y1024175D01*
X1227800Y1024775D01*
X1227300Y1025275D01*
X1226800Y1025675D01*
X1226300Y1025975D01*
X1225700Y1026275D01*
X1225100Y1026475D01*
X1224500Y1026575D01*
X1223900Y1026675D01*
X1223300Y1026575D01*
X1222800Y1026475D01*
X1222200Y1026275D01*
X1221700Y1025975D01*
X1221200Y1025675D01*
X1220700Y1025275D01*
X1220300Y1024775D01*
X1219800Y1024175D01*
X1219400Y1023575D01*
X1219100Y1022775D01*
X1218800Y1021975D01*
X1218500Y1021175D01*
X1218300Y1020175D01*
X1218200Y1019175D01*
X1218100Y1018075D01*
Y1016875D01*
G37*
%LPD*%
G36*
X1250000Y1011875D02*
X1236900D01*
Y1016075D01*
X1250600Y1039875D01*
X1253700D01*
Y1016075D01*
X1257800D01*
Y1011875D01*
X1253700D01*
Y1003075D01*
X1250000D01*
Y1011875D01*
G37*
%LPC*%
G36*
X1250000Y1032675D02*
X1240600Y1016075D01*
X1250000D01*
Y1032675D01*
G37*
%LPD*%
G36*
X1271689Y1018734D02*
X1260072Y1039947D01*
X1264931D01*
X1270861Y1028848D01*
X1271294Y1028031D01*
X1271713Y1027225D01*
X1272120Y1026430D01*
X1272513Y1025646D01*
X1272892Y1024873D01*
X1273259Y1024111D01*
X1273611Y1023361D01*
X1273951Y1022621D01*
X1274295Y1023354D01*
X1274658Y1024110D01*
X1275041Y1024889D01*
X1275444Y1025690D01*
X1275867Y1026515D01*
X1276309Y1027362D01*
X1276771Y1028232D01*
X1277253Y1029124D01*
X1283124Y1039947D01*
X1287725D01*
X1275698Y1018734D01*
Y1003145D01*
X1271689D01*
Y1018734D01*
G37*
G36*
X1290758Y1029821D02*
X1294099D01*
Y1026054D01*
X1294383Y1026559D01*
X1294687Y1027034D01*
X1295011Y1027479D01*
X1295354Y1027895D01*
X1295716Y1028280D01*
X1296098Y1028637D01*
X1296500Y1028963D01*
X1296921Y1029260D01*
X1297357Y1029524D01*
X1297803Y1029753D01*
X1298259Y1029946D01*
X1298726Y1030105D01*
X1299202Y1030228D01*
X1299689Y1030316D01*
X1300186Y1030369D01*
X1300693Y1030387D01*
X1301256Y1030368D01*
X1301797Y1030312D01*
X1302316Y1030219D01*
X1302812Y1030089D01*
X1303287Y1029922D01*
X1303739Y1029717D01*
X1304169Y1029476D01*
X1304576Y1029197D01*
X1304958Y1028882D01*
X1305312Y1028534D01*
X1305637Y1028151D01*
X1305934Y1027735D01*
X1306202Y1027284D01*
X1306442Y1026799D01*
X1306654Y1026281D01*
X1306837Y1025728D01*
X1307170Y1026292D01*
X1307515Y1026820D01*
X1307872Y1027311D01*
X1308242Y1027766D01*
X1308623Y1028185D01*
X1309017Y1028567D01*
X1309423Y1028913D01*
X1309841Y1029222D01*
X1310272Y1029495D01*
X1310713Y1029732D01*
X1311166Y1029932D01*
X1311630Y1030096D01*
X1312105Y1030223D01*
X1312592Y1030314D01*
X1313091Y1030369D01*
X1313600Y1030387D01*
X1314366Y1030353D01*
X1315089Y1030253D01*
X1315771Y1030087D01*
X1316411Y1029854D01*
X1317009Y1029554D01*
X1317566Y1029187D01*
X1318081Y1028754D01*
X1318554Y1028254D01*
X1318978Y1027681D01*
X1319346Y1027028D01*
X1319657Y1026296D01*
X1319912Y1025483D01*
X1320110Y1024590D01*
X1320251Y1023617D01*
X1320336Y1022565D01*
X1320364Y1021432D01*
Y1003145D01*
X1316664D01*
Y1019932D01*
X1316657Y1020621D01*
X1316638Y1021257D01*
X1316605Y1021842D01*
X1316560Y1022375D01*
X1316502Y1022855D01*
X1316430Y1023283D01*
X1316346Y1023659D01*
X1316249Y1023983D01*
X1316137Y1024273D01*
X1316009Y1024546D01*
X1315865Y1024801D01*
X1315705Y1025040D01*
X1315529Y1025263D01*
X1315337Y1025468D01*
X1315128Y1025656D01*
X1314904Y1025828D01*
X1314667Y1025981D01*
X1314424Y1026113D01*
X1314174Y1026225D01*
X1313917Y1026317D01*
X1313652Y1026389D01*
X1313381Y1026440D01*
X1313102Y1026470D01*
X1312817Y1026480D01*
X1312233Y1026451D01*
X1311678Y1026362D01*
X1311149Y1026214D01*
X1310649Y1026007D01*
X1310175Y1025740D01*
X1309730Y1025415D01*
X1309311Y1025030D01*
X1308920Y1024586D01*
X1308567Y1024078D01*
X1308260Y1023503D01*
X1308001Y1022860D01*
X1307789Y1022149D01*
X1307624Y1021370D01*
X1307506Y1020523D01*
X1307435Y1019609D01*
X1307412Y1018627D01*
Y1003145D01*
X1303711D01*
Y1020459D01*
X1303695Y1021256D01*
X1303648Y1021992D01*
X1303568Y1022667D01*
X1303458Y1023281D01*
X1303315Y1023834D01*
X1303141Y1024326D01*
X1302935Y1024756D01*
X1302698Y1025125D01*
X1302433Y1025443D01*
X1302144Y1025718D01*
X1301831Y1025951D01*
X1301495Y1026142D01*
X1301134Y1026290D01*
X1300750Y1026396D01*
X1300342Y1026459D01*
X1299910Y1026480D01*
X1299295Y1026448D01*
X1298713Y1026353D01*
X1298165Y1026193D01*
X1297650Y1025969D01*
X1297168Y1025681D01*
X1296720Y1025330D01*
X1296304Y1024915D01*
X1295922Y1024435D01*
X1295579Y1023871D01*
X1295282Y1023202D01*
X1295030Y1022427D01*
X1294825Y1021546D01*
X1294665Y1020561D01*
X1294550Y1019469D01*
X1294482Y1018273D01*
X1294459Y1016971D01*
Y1003145D01*
X1290758D01*
Y1029821D01*
G37*
G36*
X1350074Y1039947D02*
Y1018690D01*
X1350057Y1017384D01*
X1350009Y1016137D01*
X1349927Y1014951D01*
X1349814Y1013824D01*
X1349667Y1012758D01*
X1349489Y1011752D01*
X1349278Y1010805D01*
X1349034Y1009919D01*
X1348747Y1009085D01*
X1348408Y1008296D01*
X1348015Y1007552D01*
X1347569Y1006854D01*
X1347069Y1006200D01*
X1346517Y1005592D01*
X1345911Y1005029D01*
X1345252Y1004510D01*
X1344543Y1004046D01*
X1343787Y1003643D01*
X1342985Y1003302D01*
X1342136Y1003024D01*
X1341241Y1002807D01*
X1340299Y1002652D01*
X1339311Y1002559D01*
X1338276Y1002528D01*
X1336832Y1002584D01*
X1335482Y1002751D01*
X1334226Y1003029D01*
X1333063Y1003419D01*
X1331994Y1003920D01*
X1331018Y1004533D01*
X1330135Y1005257D01*
X1329347Y1006092D01*
X1328651Y1007068D01*
X1328048Y1008216D01*
X1327538Y1009534D01*
X1327120Y1011023D01*
X1326796Y1012684D01*
X1326564Y1014515D01*
X1326425Y1016517D01*
X1326378Y1018690D01*
Y1039947D01*
X1330387D01*
Y1018700D01*
X1330400Y1017494D01*
X1330436Y1016374D01*
X1330496Y1015341D01*
X1330581Y1014393D01*
X1330690Y1013532D01*
X1330823Y1012758D01*
X1330981Y1012069D01*
X1331162Y1011468D01*
X1331372Y1010925D01*
X1331612Y1010417D01*
X1331883Y1009941D01*
X1332184Y1009499D01*
X1332517Y1009091D01*
X1332881Y1008715D01*
X1333275Y1008373D01*
X1333700Y1008065D01*
X1334153Y1007791D01*
X1334629Y1007554D01*
X1335130Y1007353D01*
X1335654Y1007189D01*
X1336202Y1007061D01*
X1336773Y1006970D01*
X1337369Y1006915D01*
X1337988Y1006897D01*
X1339014Y1006935D01*
X1339968Y1007048D01*
X1340848Y1007236D01*
X1341655Y1007500D01*
X1342388Y1007839D01*
X1343049Y1008253D01*
X1343637Y1008743D01*
X1344152Y1009308D01*
X1344600Y1009982D01*
X1344989Y1010799D01*
X1345317Y1011759D01*
X1345586Y1012862D01*
X1345795Y1014107D01*
X1345945Y1015495D01*
X1346035Y1017027D01*
X1346064Y1018700D01*
Y1039947D01*
X1350074D01*
G37*
G36*
X1374797Y1003145D02*
X1354802D01*
X1354811Y1003813D01*
X1354874Y1004502D01*
X1354991Y1005209D01*
X1355164Y1005937D01*
X1355391Y1006684D01*
X1355672Y1007451D01*
X1356008Y1008237D01*
X1356399Y1009043D01*
X1356860Y1009877D01*
X1357408Y1010748D01*
X1358043Y1011656D01*
X1358765Y1012601D01*
X1359574Y1013582D01*
X1360469Y1014601D01*
X1361451Y1015656D01*
X1362520Y1016748D01*
X1363765Y1018007D01*
X1364898Y1019193D01*
X1365918Y1020305D01*
X1366825Y1021343D01*
X1367621Y1022308D01*
X1368304Y1023200D01*
X1368875Y1024018D01*
X1369333Y1024762D01*
X1369710Y1025464D01*
X1370037Y1026154D01*
X1370313Y1026831D01*
X1370540Y1027496D01*
X1370716Y1028149D01*
X1370841Y1028789D01*
X1370917Y1029418D01*
X1370942Y1030034D01*
X1370916Y1030722D01*
X1370839Y1031378D01*
X1370710Y1032001D01*
X1370530Y1032591D01*
X1370299Y1033149D01*
X1370016Y1033674D01*
X1369681Y1034167D01*
X1369295Y1034626D01*
X1368872Y1035042D01*
X1368424Y1035403D01*
X1367952Y1035708D01*
X1367457Y1035957D01*
X1366937Y1036151D01*
X1366393Y1036290D01*
X1365826Y1036373D01*
X1365234Y1036401D01*
X1364601Y1036371D01*
X1363998Y1036281D01*
X1363423Y1036131D01*
X1362877Y1035922D01*
X1362361Y1035653D01*
X1361873Y1035324D01*
X1361415Y1034936D01*
X1360985Y1034487D01*
X1360596Y1033983D01*
X1360259Y1033427D01*
X1359974Y1032818D01*
X1359741Y1032158D01*
X1359559Y1031446D01*
X1359429Y1030682D01*
X1359352Y1029867D01*
X1359326Y1028999D01*
X1355522Y1029462D01*
X1355657Y1030744D01*
X1355861Y1031945D01*
X1356133Y1033064D01*
X1356474Y1034101D01*
X1356884Y1035056D01*
X1357362Y1035929D01*
X1357909Y1036720D01*
X1358525Y1037429D01*
X1359201Y1038055D01*
X1359928Y1038598D01*
X1360707Y1039057D01*
X1361537Y1039433D01*
X1362419Y1039726D01*
X1363352Y1039934D01*
X1364336Y1040060D01*
X1365372Y1040101D01*
X1366493Y1040053D01*
X1367544Y1039907D01*
X1368524Y1039664D01*
X1369434Y1039323D01*
X1370273Y1038885D01*
X1371043Y1038350D01*
X1371742Y1037718D01*
X1372371Y1036988D01*
X1372927Y1036197D01*
X1373410Y1035379D01*
X1373818Y1034534D01*
X1374152Y1033662D01*
X1374412Y1032764D01*
X1374597Y1031839D01*
X1374708Y1030888D01*
X1374746Y1029910D01*
X1374716Y1029036D01*
X1374629Y1028171D01*
X1374484Y1027314D01*
X1374280Y1026467D01*
X1374018Y1025629D01*
X1373698Y1024800D01*
X1373319Y1023980D01*
X1372883Y1023169D01*
X1372365Y1022329D01*
X1371742Y1021422D01*
X1371015Y1020447D01*
X1370183Y1019404D01*
X1369246Y1018294D01*
X1368205Y1017116D01*
X1367059Y1015871D01*
X1365808Y1014559D01*
X1365014Y1013743D01*
X1364294Y1012995D01*
X1363647Y1012315D01*
X1363074Y1011703D01*
X1362574Y1011158D01*
X1362148Y1010680D01*
X1361795Y1010270D01*
X1361516Y1009928D01*
X1361279Y1009620D01*
X1361054Y1009312D01*
X1360840Y1009004D01*
X1360638Y1008695D01*
X1360447Y1008387D01*
X1360267Y1008079D01*
X1360099Y1007771D01*
X1359942Y1007462D01*
X1374797D01*
Y1003145D01*
G37*
G36*
X1380143Y1039947D02*
X1384248D01*
X1400086Y1010986D01*
Y1039947D01*
X1403889D01*
Y1003145D01*
X1399810D01*
X1383998Y1032061D01*
Y1003145D01*
X1380143D01*
Y1039947D01*
G37*
G36*
X1418436Y1035630D02*
X1408515D01*
Y1039947D01*
X1432416D01*
Y1035630D01*
X1422445D01*
Y1003145D01*
X1418436D01*
Y1035630D01*
G37*
G36*
X1460121Y1039947D02*
Y1018690D01*
X1460105Y1017384D01*
X1460056Y1016137D01*
X1459975Y1014951D01*
X1459861Y1013824D01*
X1459715Y1012758D01*
X1459536Y1011752D01*
X1459325Y1010805D01*
X1459081Y1009919D01*
X1458795Y1009085D01*
X1458455Y1008296D01*
X1458062Y1007552D01*
X1457616Y1006854D01*
X1457117Y1006200D01*
X1456564Y1005592D01*
X1455958Y1005029D01*
X1455299Y1004510D01*
X1454590Y1004046D01*
X1453835Y1003643D01*
X1453032Y1003302D01*
X1452184Y1003024D01*
X1451288Y1002807D01*
X1450347Y1002652D01*
X1449358Y1002559D01*
X1448323Y1002528D01*
X1446880Y1002584D01*
X1445530Y1002751D01*
X1444273Y1003029D01*
X1443110Y1003419D01*
X1442041Y1003920D01*
X1441065Y1004533D01*
X1440183Y1005257D01*
X1439394Y1006092D01*
X1438698Y1007068D01*
X1438095Y1008216D01*
X1437585Y1009534D01*
X1437168Y1011023D01*
X1436843Y1012684D01*
X1436611Y1014515D01*
X1436472Y1016517D01*
X1436426Y1018690D01*
Y1039947D01*
X1440435D01*
Y1018700D01*
X1440447Y1017494D01*
X1440483Y1016374D01*
X1440544Y1015341D01*
X1440629Y1014393D01*
X1440738Y1013532D01*
X1440871Y1012758D01*
X1441028Y1012069D01*
X1441210Y1011468D01*
X1441419Y1010925D01*
X1441659Y1010417D01*
X1441930Y1009941D01*
X1442232Y1009499D01*
X1442564Y1009091D01*
X1442928Y1008715D01*
X1443322Y1008373D01*
X1443748Y1008065D01*
X1444200Y1007791D01*
X1444677Y1007554D01*
X1445177Y1007353D01*
X1445701Y1007189D01*
X1446249Y1007061D01*
X1446821Y1006970D01*
X1447416Y1006915D01*
X1448036Y1006897D01*
X1449062Y1006935D01*
X1450015Y1007048D01*
X1450895Y1007236D01*
X1451702Y1007500D01*
X1452436Y1007839D01*
X1453097Y1008253D01*
X1453684Y1008743D01*
X1454199Y1009308D01*
X1454647Y1009982D01*
X1455036Y1010799D01*
X1455365Y1011759D01*
X1455634Y1012862D01*
X1455843Y1014107D01*
X1455992Y1015495D01*
X1456082Y1017027D01*
X1456112Y1018700D01*
Y1039947D01*
X1460121D01*
G37*
G36*
X1465300Y1021275D02*
Y1023475D01*
X1465400Y1025575D01*
X1465600Y1027575D01*
X1465900Y1029375D01*
X1466200Y1031075D01*
X1466700Y1032575D01*
X1467200Y1033975D01*
X1467800Y1035275D01*
X1468400Y1036375D01*
X1469100Y1037375D01*
X1470000Y1038175D01*
X1470800Y1038875D01*
X1471800Y1039375D01*
X1472800Y1039775D01*
X1473900Y1039975D01*
X1475100Y1040075D01*
X1476200Y1039975D01*
X1477100Y1039775D01*
X1478100Y1039475D01*
X1479000Y1039075D01*
X1479800Y1038575D01*
X1480500Y1037875D01*
X1481200Y1037075D01*
X1481900Y1036175D01*
X1482600Y1034975D01*
X1483200Y1033475D01*
X1483700Y1031875D01*
X1484100Y1030075D01*
X1484500Y1028175D01*
X1484700Y1026075D01*
X1484900Y1023775D01*
Y1021275D01*
Y1018975D01*
X1484700Y1016875D01*
X1484500Y1014975D01*
X1484300Y1013175D01*
X1483900Y1011475D01*
X1483500Y1009975D01*
X1483000Y1008475D01*
X1482400Y1007275D01*
X1481800Y1006175D01*
X1481000Y1005175D01*
X1480200Y1004375D01*
X1479300Y1003675D01*
X1478400Y1003175D01*
X1477300Y1002775D01*
X1476200Y1002575D01*
X1475100Y1002475D01*
X1474000Y1002575D01*
X1473000Y1002775D01*
X1472000Y1003075D01*
X1471100Y1003575D01*
X1470300Y1004175D01*
X1469500Y1004875D01*
X1468700Y1005675D01*
X1468000Y1006675D01*
X1467400Y1007875D01*
X1466800Y1009175D01*
X1466300Y1010675D01*
X1465900Y1012475D01*
X1465600Y1014375D01*
X1465400Y1016475D01*
X1465300Y1018775D01*
Y1021275D01*
G37*
%LPC*%
G36*
X1469100Y1021275D02*
Y1019075D01*
X1469200Y1017175D01*
X1469300Y1015375D01*
X1469500Y1013775D01*
X1469700Y1012375D01*
X1470000Y1011175D01*
X1470400Y1010075D01*
X1470800Y1009275D01*
X1471200Y1008475D01*
X1471700Y1007875D01*
X1472200Y1007375D01*
X1472700Y1006975D01*
X1473300Y1006575D01*
X1473900Y1006375D01*
X1474500Y1006275D01*
X1475200Y1006175D01*
X1475800Y1006275D01*
X1476400Y1006375D01*
X1476900Y1006575D01*
X1477500Y1006975D01*
X1478000Y1007375D01*
X1478500Y1007875D01*
X1479000Y1008575D01*
X1479400Y1009275D01*
X1479800Y1010175D01*
X1480100Y1011175D01*
X1480400Y1012375D01*
X1480700Y1013775D01*
X1480900Y1015375D01*
X1481000Y1017175D01*
X1481100Y1019175D01*
Y1021275D01*
Y1023375D01*
X1481000Y1025375D01*
X1480900Y1027175D01*
X1480700Y1028775D01*
X1480400Y1030175D01*
X1480100Y1031375D01*
X1479800Y1032475D01*
X1479400Y1033275D01*
X1478900Y1033975D01*
X1478500Y1034675D01*
X1478000Y1035175D01*
X1477400Y1035575D01*
X1476800Y1035875D01*
X1476200Y1036175D01*
X1475600Y1036275D01*
X1474900Y1036375D01*
X1474300Y1036275D01*
X1473700Y1036175D01*
X1473200Y1035875D01*
X1472600Y1035575D01*
X1472100Y1035175D01*
X1471600Y1034575D01*
X1471200Y1033975D01*
X1470800Y1033275D01*
X1470400Y1032375D01*
X1470000Y1031375D01*
X1469700Y1030075D01*
X1469500Y1028675D01*
X1469300Y1027075D01*
X1469200Y1025375D01*
X1469100Y1023375D01*
Y1021275D01*
G37*
%LPD*%
G36*
X1490190Y1039947D02*
X1496198D01*
X1503335Y1013889D01*
X1504762Y1008441D01*
X1504902Y1008978D01*
X1505060Y1009573D01*
X1505235Y1010224D01*
X1505426Y1010933D01*
X1505636Y1011699D01*
X1505862Y1012523D01*
X1506106Y1013403D01*
X1506367Y1014341D01*
X1513589Y1039947D01*
X1518974D01*
Y1003145D01*
X1515119D01*
Y1034084D01*
X1506344Y1003145D01*
X1502752D01*
X1494045Y1034591D01*
Y1003145D01*
X1490190D01*
Y1039947D01*
G37*
G36*
X1524800Y1039875D02*
X1528500D01*
Y1034675D01*
X1524800D01*
Y1039875D01*
G37*
G36*
X1520800Y996575D02*
X1521100D01*
X1521400Y996475D01*
X1521600Y996375D01*
X1521800D01*
X1522000Y996275D01*
X1522200D01*
X1522400D01*
X1522600D01*
X1522900D01*
X1523100D01*
X1523400Y996375D01*
X1523600Y996475D01*
X1523800Y996575D01*
X1524000Y996775D01*
X1524100Y996975D01*
X1524300Y997175D01*
X1524400Y997475D01*
X1524500Y997775D01*
X1524600Y998275D01*
X1524700Y998775D01*
X1524800Y999375D01*
Y1000075D01*
Y1000875D01*
Y1001775D01*
Y1029775D01*
X1528500D01*
Y1001675D01*
Y1000375D01*
X1528400Y999175D01*
X1528300Y998075D01*
X1528200Y997075D01*
X1528000Y996175D01*
X1527700Y995475D01*
X1527500Y994775D01*
X1527100Y994275D01*
X1526800Y993775D01*
X1526400Y993375D01*
X1525900Y993075D01*
X1525400Y992775D01*
X1524900Y992575D01*
X1524300Y992375D01*
X1523700D01*
X1523000Y992275D01*
X1522700D01*
X1522300Y992375D01*
X1521900D01*
X1521500D01*
X1521200Y992475D01*
X1520800Y992575D01*
X1520500Y992675D01*
X1520100Y992775D01*
X1520800Y996575D01*
G37*
G36*
X1534651Y1039947D02*
X1540659D01*
X1547796Y1013889D01*
X1549223Y1008441D01*
X1549363Y1008978D01*
X1549521Y1009573D01*
X1549696Y1010224D01*
X1549887Y1010933D01*
X1550097Y1011699D01*
X1550323Y1012523D01*
X1550567Y1013403D01*
X1550828Y1014341D01*
X1558050Y1039947D01*
X1563435D01*
Y1003145D01*
X1559580D01*
Y1034084D01*
X1550805Y1003145D01*
X1547213D01*
X1538506Y1034591D01*
Y1003145D01*
X1534651D01*
Y1039947D01*
G37*
G36*
X1572019Y1013528D02*
X1572362Y1011817D01*
X1572816Y1010334D01*
X1573380Y1009080D01*
X1574055Y1008053D01*
X1574840Y1007255D01*
X1575735Y1006685D01*
X1576741Y1006343D01*
X1577858Y1006229D01*
X1578480Y1006262D01*
X1579081Y1006363D01*
X1579661Y1006531D01*
X1580220Y1006766D01*
X1580757Y1007068D01*
X1581274Y1007438D01*
X1581769Y1007874D01*
X1582243Y1008378D01*
X1582678Y1008935D01*
X1583055Y1009532D01*
X1583373Y1010168D01*
X1583634Y1010844D01*
X1583837Y1011560D01*
X1583982Y1012315D01*
X1584069Y1013110D01*
X1584098Y1013945D01*
X1584071Y1014730D01*
X1583991Y1015475D01*
X1583859Y1016181D01*
X1583673Y1016848D01*
X1583433Y1017476D01*
X1583141Y1018064D01*
X1582795Y1018613D01*
X1582397Y1019123D01*
X1581959Y1019582D01*
X1581498Y1019981D01*
X1581012Y1020318D01*
X1580502Y1020593D01*
X1579967Y1020808D01*
X1579409Y1020961D01*
X1578826Y1021053D01*
X1578219Y1021083D01*
X1577948Y1021076D01*
X1577662Y1021052D01*
X1577360Y1021013D01*
X1577043Y1020958D01*
X1576710Y1020887D01*
X1576361Y1020801D01*
X1575997Y1020699D01*
X1575617Y1020581D01*
X1576028Y1024527D01*
X1576606Y1024477D01*
X1577275Y1024504D01*
X1577911Y1024583D01*
X1578515Y1024714D01*
X1579087Y1024899D01*
X1579627Y1025136D01*
X1580134Y1025425D01*
X1580610Y1025768D01*
X1581053Y1026163D01*
X1581453Y1026602D01*
X1581800Y1027076D01*
X1582094Y1027586D01*
X1582334Y1028131D01*
X1582521Y1028712D01*
X1582655Y1029328D01*
X1582735Y1029979D01*
X1582761Y1030665D01*
X1582739Y1031297D01*
X1582672Y1031897D01*
X1582560Y1032465D01*
X1582404Y1033002D01*
X1582203Y1033506D01*
X1581957Y1033979D01*
X1581667Y1034420D01*
X1581332Y1034828D01*
X1580965Y1035197D01*
X1580578Y1035516D01*
X1580171Y1035786D01*
X1579745Y1036008D01*
X1579300Y1036179D01*
X1578835Y1036302D01*
X1578350Y1036376D01*
X1577845Y1036401D01*
X1577323Y1036375D01*
X1576821Y1036297D01*
X1576340Y1036167D01*
X1575880Y1035986D01*
X1575441Y1035753D01*
X1575022Y1035468D01*
X1574624Y1035131D01*
X1574247Y1034743D01*
X1573897Y1034302D01*
X1573580Y1033807D01*
X1573297Y1033259D01*
X1573047Y1032658D01*
X1572830Y1032003D01*
X1572646Y1031295D01*
X1572496Y1030534D01*
X1572379Y1029719D01*
X1568678Y1030541D01*
X1568881Y1031687D01*
X1569139Y1032761D01*
X1569452Y1033763D01*
X1569819Y1034692D01*
X1570242Y1035549D01*
X1570719Y1036334D01*
X1571252Y1037046D01*
X1571839Y1037686D01*
X1572470Y1038252D01*
X1573132Y1038743D01*
X1573827Y1039158D01*
X1574554Y1039498D01*
X1575314Y1039762D01*
X1576105Y1039950D01*
X1576929Y1040064D01*
X1577784Y1040101D01*
X1578683Y1040059D01*
X1579547Y1039932D01*
X1580376Y1039720D01*
X1581171Y1039424D01*
X1581932Y1039043D01*
X1582658Y1038578D01*
X1583349Y1038027D01*
X1584006Y1037392D01*
X1584606Y1036693D01*
X1585126Y1035950D01*
X1585565Y1035163D01*
X1585925Y1034332D01*
X1586205Y1033458D01*
X1586405Y1032539D01*
X1586525Y1031576D01*
X1586565Y1030570D01*
X1586548Y1029952D01*
X1586497Y1029352D01*
X1586412Y1028770D01*
X1586293Y1028206D01*
X1586140Y1027660D01*
X1585952Y1027132D01*
X1585731Y1026622D01*
X1585476Y1026131D01*
X1585190Y1025661D01*
X1584877Y1025217D01*
X1584538Y1024799D01*
X1584171Y1024406D01*
X1583777Y1024040D01*
X1583357Y1023699D01*
X1582909Y1023384D01*
X1582435Y1023095D01*
X1582876Y1022960D01*
X1583299Y1022804D01*
X1583702Y1022628D01*
X1584085Y1022431D01*
X1584448Y1022214D01*
X1584792Y1021976D01*
X1585116Y1021719D01*
X1585421Y1021440D01*
X1585709Y1021140D01*
X1585982Y1020815D01*
X1586242Y1020466D01*
X1586487Y1020092D01*
X1586719Y1019694D01*
X1586936Y1019272D01*
X1587139Y1018826D01*
X1587328Y1018355D01*
X1587499Y1017865D01*
X1587646Y1017361D01*
X1587771Y1016843D01*
X1587874Y1016311D01*
X1587953Y1015764D01*
X1588010Y1015204D01*
X1588044Y1014629D01*
X1588056Y1014041D01*
X1588009Y1012803D01*
X1587869Y1011623D01*
X1587636Y1010500D01*
X1587310Y1009435D01*
X1586890Y1008427D01*
X1586377Y1007478D01*
X1585771Y1006585D01*
X1585071Y1005751D01*
X1584307Y1004996D01*
X1583505Y1004341D01*
X1582667Y1003787D01*
X1581792Y1003334D01*
X1580880Y1002981D01*
X1579931Y1002729D01*
X1578946Y1002578D01*
X1577923Y1002528D01*
X1576976Y1002572D01*
X1576066Y1002704D01*
X1575192Y1002924D01*
X1574356Y1003232D01*
X1573556Y1003628D01*
X1572793Y1004112D01*
X1572067Y1004684D01*
X1571378Y1005344D01*
X1570743Y1006078D01*
X1570180Y1006873D01*
X1569689Y1007728D01*
X1569271Y1008643D01*
X1568924Y1009619D01*
X1568650Y1010656D01*
X1568448Y1011753D01*
X1568318Y1012911D01*
X1572019Y1013528D01*
G37*
G36*
X1593196Y1039947D02*
X1597301D01*
X1613139Y1010986D01*
Y1039947D01*
X1616942D01*
Y1003145D01*
X1612863D01*
X1597051Y1032061D01*
Y1003145D01*
X1593196D01*
Y1039947D01*
G37*
G36*
X1621062Y1039947D02*
X1625138D01*
X1629723Y1015822D01*
X1629901Y1014892D01*
X1630075Y1013958D01*
X1630243Y1013022D01*
X1630405Y1012082D01*
X1630562Y1011139D01*
X1630714Y1010193D01*
X1630860Y1009244D01*
X1631000Y1008291D01*
X1632373Y1015094D01*
X1638192Y1039947D01*
X1642922D01*
X1647244Y1021320D01*
X1647628Y1019628D01*
X1647986Y1017955D01*
X1648319Y1016299D01*
X1648627Y1014661D01*
X1648909Y1013042D01*
X1649167Y1011440D01*
X1649400Y1009857D01*
X1649607Y1008291D01*
X1649757Y1009202D01*
X1649917Y1010138D01*
X1650087Y1011100D01*
X1650267Y1012088D01*
X1650457Y1013102D01*
X1650658Y1014142D01*
X1650869Y1015208D01*
X1651090Y1016299D01*
X1655840Y1039947D01*
X1659924D01*
X1651630Y1003145D01*
X1647725D01*
X1641359Y1031186D01*
X1640407Y1035503D01*
X1640298Y1034909D01*
X1640189Y1034330D01*
X1640080Y1033767D01*
X1639969Y1033219D01*
X1639858Y1032687D01*
X1639746Y1032171D01*
X1639633Y1031671D01*
X1639519Y1031186D01*
X1633055Y1003145D01*
X1629021D01*
X1621062Y1039947D01*
G37*
G36*
X1663408Y1039947D02*
X1669416D01*
X1676553Y1013889D01*
X1677980Y1008441D01*
X1678120Y1008978D01*
X1678278Y1009573D01*
X1678453Y1010224D01*
X1678644Y1010933D01*
X1678854Y1011699D01*
X1679080Y1012523D01*
X1679324Y1013403D01*
X1679584Y1014341D01*
X1686807Y1039947D01*
X1692192D01*
Y1003145D01*
X1688337D01*
Y1034084D01*
X1679562Y1003145D01*
X1675970D01*
X1667263Y1034591D01*
Y1003145D01*
X1663408D01*
Y1039947D01*
G37*
G36*
X1695430Y1029821D02*
X1699245D01*
X1702746Y1014423D01*
X1704040Y1008696D01*
X1705182Y1014197D01*
X1708607Y1029821D01*
X1712530D01*
X1715787Y1014357D01*
X1716890Y1009261D01*
X1718145Y1014408D01*
X1721886Y1029821D01*
X1725499D01*
X1718699Y1003145D01*
X1714814D01*
X1711299Y1019110D01*
X1710465Y1023653D01*
X1706082Y1003145D01*
X1702164D01*
X1695430Y1029821D01*
G37*
G36*
X1728943Y1039947D02*
X1734951D01*
X1742088Y1013889D01*
X1743515Y1008441D01*
X1743655Y1008978D01*
X1743813Y1009573D01*
X1743988Y1010224D01*
X1744179Y1010933D01*
X1744389Y1011699D01*
X1744615Y1012523D01*
X1744859Y1013403D01*
X1745120Y1014341D01*
X1752342Y1039947D01*
X1757727D01*
Y1003145D01*
X1753872D01*
Y1034084D01*
X1745097Y1003145D01*
X1741505D01*
X1732798Y1034591D01*
Y1003145D01*
X1728943D01*
Y1039947D01*
G37*
G36*
X1764100Y1039875D02*
X1774500D01*
X1775400D01*
X1776300D01*
X1777100Y1039775D01*
X1777900D01*
X1778600Y1039675D01*
X1779200Y1039475D01*
X1779800Y1039375D01*
X1780300Y1039175D01*
X1781000Y1038975D01*
X1781600Y1038675D01*
X1782200Y1038375D01*
X1782800Y1037975D01*
X1783300Y1037575D01*
X1783900Y1037075D01*
X1784400Y1036575D01*
X1784900Y1035975D01*
X1785400Y1035375D01*
X1785800Y1034775D01*
X1786200Y1034075D01*
X1786600Y1033375D01*
X1787000Y1032575D01*
X1787300Y1031775D01*
X1787600Y1030975D01*
X1787900Y1030075D01*
X1788200Y1029175D01*
X1788400Y1028275D01*
X1788600Y1027275D01*
X1788700Y1026275D01*
X1788800Y1025175D01*
X1788900Y1024075D01*
X1789000Y1022875D01*
Y1021675D01*
Y1020175D01*
X1788900Y1018675D01*
X1788700Y1017275D01*
X1788500Y1015875D01*
X1788300Y1014575D01*
X1788000Y1013375D01*
X1787600Y1012175D01*
X1787100Y1011075D01*
X1786700Y1010075D01*
X1786200Y1009075D01*
X1785600Y1008175D01*
X1785100Y1007375D01*
X1784500Y1006675D01*
X1783800Y1005975D01*
X1783100Y1005375D01*
X1782400Y1004875D01*
X1781700Y1004475D01*
X1780900Y1004075D01*
X1780000Y1003775D01*
X1779100Y1003575D01*
X1778200Y1003375D01*
X1777100Y1003175D01*
X1776100Y1003075D01*
X1774900D01*
X1764100D01*
Y1039875D01*
G37*
%LPC*%
G36*
X1774500Y1007375D02*
X1775400Y1007475D01*
X1776300D01*
X1777100Y1007575D01*
X1777900Y1007775D01*
X1778600Y1007875D01*
X1779200Y1008175D01*
X1779800Y1008375D01*
X1780400Y1008675D01*
X1780800Y1008975D01*
X1781300Y1009375D01*
X1781700Y1009875D01*
X1782100Y1010375D01*
X1782500Y1010875D01*
X1782800Y1011475D01*
X1783200Y1012075D01*
X1783400Y1012775D01*
X1783800Y1013775D01*
X1784100Y1014775D01*
X1784300Y1015775D01*
X1784500Y1016875D01*
X1784700Y1018075D01*
X1784800Y1019175D01*
Y1020475D01*
X1784900Y1021775D01*
X1784800Y1023075D01*
Y1024375D01*
X1784700Y1025575D01*
X1784500Y1026775D01*
X1784300Y1027775D01*
X1784000Y1028775D01*
X1783700Y1029675D01*
X1783400Y1030575D01*
X1783000Y1031375D01*
X1782500Y1032075D01*
X1782100Y1032675D01*
X1781600Y1033275D01*
X1781100Y1033775D01*
X1780600Y1034175D01*
X1780000Y1034575D01*
X1779500Y1034875D01*
X1779000Y1034975D01*
X1778500Y1035175D01*
X1778000Y1035275D01*
X1777400Y1035375D01*
X1776700Y1035475D01*
X1776000Y1035575D01*
X1775200D01*
X1774400D01*
X1768100D01*
Y1007375D01*
X1774500D01*
G37*
%LPD*%
G36*
X1817600Y1007075D02*
X1818300Y1006475D01*
X1818900Y1005975D01*
X1819600Y1005475D01*
X1820200Y1004975D01*
X1820800Y1004575D01*
X1821500Y1004275D01*
X1822100Y1003875D01*
X1822700Y1003675D01*
X1821500Y1000175D01*
X1820700Y1000575D01*
X1819800Y1001075D01*
X1819000Y1001575D01*
X1818200Y1002075D01*
X1817400Y1002675D01*
X1816600Y1003275D01*
X1815800Y1003975D01*
X1815000Y1004775D01*
X1814200Y1004275D01*
X1813300Y1003775D01*
X1812400Y1003375D01*
X1811500Y1003075D01*
X1810600Y1002775D01*
X1809600Y1002575D01*
X1808600Y1002475D01*
X1807600D01*
X1806000Y1002575D01*
X1804500Y1002875D01*
X1803000Y1003275D01*
X1801600Y1003975D01*
X1800300Y1004775D01*
X1799100Y1005775D01*
X1798000Y1006875D01*
X1796900Y1008275D01*
X1796000Y1009575D01*
X1795300Y1011075D01*
X1794600Y1012575D01*
X1794100Y1014175D01*
X1793700Y1015875D01*
X1793400Y1017675D01*
X1793300Y1019475D01*
X1793200Y1021475D01*
Y1022975D01*
X1793300Y1024375D01*
X1793500Y1025675D01*
X1793700Y1027075D01*
X1794000Y1028275D01*
X1794300Y1029475D01*
X1794700Y1030675D01*
X1795200Y1031775D01*
X1795700Y1032875D01*
X1796200Y1033875D01*
X1796800Y1034775D01*
X1797500Y1035575D01*
X1798100Y1036375D01*
X1798900Y1037075D01*
X1799600Y1037775D01*
X1800400Y1038375D01*
X1801200Y1038875D01*
X1802100Y1039275D01*
X1802900Y1039675D01*
X1803800Y1039975D01*
X1804700Y1040175D01*
X1805700Y1040375D01*
X1806700Y1040475D01*
X1807700D01*
X1808700D01*
X1809600Y1040375D01*
X1810600Y1040175D01*
X1811500Y1039975D01*
X1812400Y1039675D01*
X1813300Y1039275D01*
X1814100Y1038775D01*
X1814900Y1038275D01*
X1815700Y1037675D01*
X1816500Y1036975D01*
X1817200Y1036275D01*
X1817900Y1035475D01*
X1818500Y1034675D01*
X1819100Y1033775D01*
X1819600Y1032775D01*
X1820100Y1031775D01*
X1820600Y1030675D01*
X1821000Y1029475D01*
X1821300Y1028275D01*
X1821600Y1027075D01*
X1821800Y1025775D01*
X1822000Y1024375D01*
X1822100Y1022975D01*
Y1021575D01*
Y1020475D01*
X1822000Y1019275D01*
X1821900Y1018275D01*
X1821800Y1017175D01*
X1821600Y1016175D01*
X1821400Y1015175D01*
X1821200Y1014175D01*
X1820900Y1013275D01*
X1820600Y1012375D01*
X1820200Y1011475D01*
X1819900Y1010675D01*
X1819500Y1009875D01*
X1819000Y1009075D01*
X1818600Y1008375D01*
X1818100Y1007675D01*
X1817600Y1007075D01*
Y1006975D01*
Y1007075D01*
G37*
%LPC*%
G36*
X1808700Y1013275D02*
X1809600Y1012975D01*
X1810400Y1012575D01*
X1811200Y1012275D01*
X1811900Y1011775D01*
X1812600Y1011375D01*
X1813200Y1010875D01*
X1813900Y1010275D01*
X1814400Y1009775D01*
X1815300Y1010775D01*
X1816000Y1011975D01*
X1816600Y1013275D01*
X1817100Y1014675D01*
X1817500Y1016275D01*
X1817700Y1017875D01*
X1817900Y1019675D01*
X1818000Y1021575D01*
X1817900Y1022775D01*
Y1023875D01*
X1817800Y1024975D01*
X1817600Y1025975D01*
X1817400Y1026975D01*
X1817200Y1027875D01*
X1816900Y1028775D01*
X1816600Y1029675D01*
X1816300Y1030475D01*
X1815900Y1031175D01*
X1815500Y1031875D01*
X1815000Y1032575D01*
X1814500Y1033175D01*
X1814000Y1033675D01*
X1813500Y1034175D01*
X1812900Y1034675D01*
X1812300Y1035075D01*
X1811700Y1035375D01*
X1811100Y1035675D01*
X1810400Y1035875D01*
X1809800Y1036075D01*
X1809100Y1036275D01*
X1808400D01*
X1807700Y1036375D01*
X1806600Y1036275D01*
X1805600Y1036075D01*
X1804600Y1035775D01*
X1803600Y1035375D01*
X1802700Y1034875D01*
X1801800Y1034275D01*
X1801000Y1033475D01*
X1800300Y1032575D01*
X1799600Y1031575D01*
X1799000Y1030475D01*
X1798500Y1029275D01*
X1798000Y1027975D01*
X1797700Y1026475D01*
X1797500Y1024975D01*
X1797400Y1023275D01*
X1797300Y1021475D01*
X1797400Y1019675D01*
X1797500Y1018075D01*
X1797700Y1016475D01*
X1798100Y1015075D01*
X1798500Y1013775D01*
X1799000Y1012475D01*
X1799600Y1011375D01*
X1800300Y1010375D01*
X1801100Y1009575D01*
X1801900Y1008775D01*
X1802700Y1008075D01*
X1803600Y1007575D01*
X1804600Y1007175D01*
X1805600Y1006875D01*
X1806600Y1006675D01*
X1807700D01*
X1808200D01*
X1808700D01*
X1809300Y1006775D01*
X1809800Y1006875D01*
X1810300Y1006975D01*
X1810800Y1007175D01*
X1811200Y1007375D01*
X1811700Y1007575D01*
X1811300Y1007975D01*
X1810800Y1008275D01*
X1810300Y1008575D01*
X1809800Y1008875D01*
X1809300Y1009175D01*
X1808800Y1009375D01*
X1808300Y1009575D01*
X1807800Y1009775D01*
X1808700Y1013175D01*
Y1013275D01*
G37*
%LPD*%
G36*
X1845364Y1003145D02*
X1825369D01*
X1825378Y1003813D01*
X1825441Y1004502D01*
X1825558Y1005209D01*
X1825731Y1005937D01*
X1825958Y1006684D01*
X1826239Y1007451D01*
X1826575Y1008237D01*
X1826966Y1009043D01*
X1827427Y1009877D01*
X1827975Y1010748D01*
X1828610Y1011656D01*
X1829332Y1012601D01*
X1830141Y1013582D01*
X1831036Y1014601D01*
X1832018Y1015656D01*
X1833087Y1016748D01*
X1834332Y1018007D01*
X1835465Y1019193D01*
X1836485Y1020305D01*
X1837392Y1021343D01*
X1838188Y1022308D01*
X1838871Y1023200D01*
X1839442Y1024018D01*
X1839900Y1024762D01*
X1840277Y1025464D01*
X1840604Y1026154D01*
X1840880Y1026831D01*
X1841107Y1027496D01*
X1841283Y1028149D01*
X1841408Y1028789D01*
X1841484Y1029418D01*
X1841509Y1030034D01*
X1841483Y1030722D01*
X1841406Y1031378D01*
X1841277Y1032001D01*
X1841097Y1032591D01*
X1840866Y1033149D01*
X1840583Y1033674D01*
X1840248Y1034167D01*
X1839862Y1034626D01*
X1839439Y1035042D01*
X1838991Y1035403D01*
X1838519Y1035708D01*
X1838024Y1035957D01*
X1837504Y1036151D01*
X1836960Y1036290D01*
X1836393Y1036373D01*
X1835801Y1036401D01*
X1835168Y1036371D01*
X1834565Y1036281D01*
X1833990Y1036131D01*
X1833444Y1035922D01*
X1832928Y1035653D01*
X1832440Y1035324D01*
X1831982Y1034936D01*
X1831552Y1034487D01*
X1831163Y1033983D01*
X1830826Y1033427D01*
X1830541Y1032818D01*
X1830308Y1032158D01*
X1830126Y1031446D01*
X1829996Y1030682D01*
X1829919Y1029867D01*
X1829893Y1028999D01*
X1826089Y1029462D01*
X1826224Y1030744D01*
X1826428Y1031945D01*
X1826700Y1033064D01*
X1827041Y1034101D01*
X1827451Y1035056D01*
X1827929Y1035929D01*
X1828476Y1036720D01*
X1829092Y1037429D01*
X1829768Y1038055D01*
X1830495Y1038598D01*
X1831274Y1039057D01*
X1832104Y1039433D01*
X1832986Y1039726D01*
X1833919Y1039934D01*
X1834903Y1040060D01*
X1835939Y1040101D01*
X1837060Y1040053D01*
X1838111Y1039907D01*
X1839091Y1039664D01*
X1840001Y1039323D01*
X1840840Y1038885D01*
X1841610Y1038350D01*
X1842309Y1037718D01*
X1842938Y1036988D01*
X1843494Y1036197D01*
X1843977Y1035379D01*
X1844385Y1034534D01*
X1844719Y1033662D01*
X1844979Y1032764D01*
X1845164Y1031839D01*
X1845275Y1030888D01*
X1845313Y1029910D01*
X1845283Y1029036D01*
X1845196Y1028171D01*
X1845051Y1027314D01*
X1844847Y1026467D01*
X1844585Y1025629D01*
X1844265Y1024800D01*
X1843886Y1023980D01*
X1843450Y1023169D01*
X1842932Y1022329D01*
X1842309Y1021422D01*
X1841582Y1020447D01*
X1840750Y1019404D01*
X1839813Y1018294D01*
X1838772Y1017116D01*
X1837626Y1015871D01*
X1836375Y1014559D01*
X1835581Y1013743D01*
X1834861Y1012995D01*
X1834214Y1012315D01*
X1833641Y1011703D01*
X1833141Y1011158D01*
X1832715Y1010680D01*
X1832362Y1010270D01*
X1832083Y1009928D01*
X1831846Y1009620D01*
X1831621Y1009312D01*
X1831407Y1009004D01*
X1831205Y1008695D01*
X1831014Y1008387D01*
X1830834Y1008079D01*
X1830666Y1007771D01*
X1830509Y1007462D01*
X1845364D01*
Y1003145D01*
G37*
G36*
X1848499Y1007638D02*
X1863987Y1031253D01*
X1864388Y1031861D01*
X1864787Y1032451D01*
X1865183Y1033024D01*
X1865577Y1033580D01*
X1865969Y1034118D01*
X1866358Y1034639D01*
X1866745Y1035143D01*
X1867129Y1035630D01*
X1850196D01*
Y1039947D01*
X1871835D01*
Y1035630D01*
X1854920Y1010052D01*
X1853088Y1007462D01*
X1872349D01*
Y1003145D01*
X1848499D01*
Y1007638D01*
G37*
G36*
X1876500Y1039875D02*
X1886900D01*
X1887800D01*
X1888700D01*
X1889500Y1039775D01*
X1890300D01*
X1891000Y1039675D01*
X1891600Y1039475D01*
X1892200Y1039375D01*
X1892700Y1039175D01*
X1893400Y1038975D01*
X1894000Y1038675D01*
X1894600Y1038375D01*
X1895200Y1037975D01*
X1895800Y1037575D01*
X1896300Y1037075D01*
X1896800Y1036575D01*
X1897300Y1035975D01*
X1897800Y1035375D01*
X1898200Y1034775D01*
X1898600Y1034075D01*
X1899000Y1033375D01*
X1899400Y1032575D01*
X1899700Y1031775D01*
X1900000Y1030975D01*
X1900300Y1030075D01*
X1900600Y1029175D01*
X1900800Y1028275D01*
X1901000Y1027275D01*
X1901100Y1026275D01*
X1901200Y1025175D01*
X1901300Y1024075D01*
X1901400Y1022875D01*
Y1021675D01*
Y1020175D01*
X1901300Y1018675D01*
X1901100Y1017275D01*
X1900900Y1015875D01*
X1900700Y1014575D01*
X1900400Y1013375D01*
X1900000Y1012175D01*
X1899600Y1011075D01*
X1899100Y1010075D01*
X1898600Y1009075D01*
X1898000Y1008175D01*
X1897500Y1007375D01*
X1896900Y1006675D01*
X1896200Y1005975D01*
X1895600Y1005375D01*
X1894900Y1004875D01*
X1894100Y1004475D01*
X1893300Y1004075D01*
X1892500Y1003775D01*
X1891500Y1003575D01*
X1890600Y1003375D01*
X1889600Y1003175D01*
X1888500Y1003075D01*
X1887300D01*
X1876500D01*
Y1039875D01*
G37*
%LPC*%
G36*
X1886900Y1007375D02*
X1887800Y1007475D01*
X1888700D01*
X1889500Y1007575D01*
X1890300Y1007775D01*
X1891000Y1007875D01*
X1891700Y1008175D01*
X1892200Y1008375D01*
X1892800Y1008675D01*
X1893300Y1008975D01*
X1893700Y1009375D01*
X1894100Y1009875D01*
X1894500Y1010375D01*
X1894900Y1010875D01*
X1895300Y1011475D01*
X1895600Y1012075D01*
X1895900Y1012775D01*
X1896200Y1013775D01*
X1896500Y1014775D01*
X1896700Y1015775D01*
X1896900Y1016875D01*
X1897100Y1018075D01*
X1897200Y1019175D01*
X1897300Y1020475D01*
Y1021775D01*
Y1023075D01*
X1897200Y1024375D01*
X1897100Y1025575D01*
X1896900Y1026775D01*
X1896700Y1027775D01*
X1896400Y1028775D01*
X1896100Y1029675D01*
X1895800Y1030575D01*
X1895400Y1031375D01*
X1895000Y1032075D01*
X1894500Y1032675D01*
X1894000Y1033275D01*
X1893500Y1033775D01*
X1893000Y1034175D01*
X1892500Y1034575D01*
X1891900Y1034875D01*
X1891400Y1034975D01*
X1891000Y1035175D01*
X1890400Y1035275D01*
X1889800Y1035375D01*
X1889100Y1035475D01*
X1888400Y1035575D01*
X1887600D01*
X1886800D01*
X1880500D01*
Y1007375D01*
X1886900D01*
G37*
%LPD*%
G36*
X1906581Y1039947D02*
X1910282D01*
Y1019040D01*
X1919045Y1029821D01*
X1923871D01*
X1915511Y1019916D01*
X1924700Y1003145D01*
X1920158D01*
X1912864Y1016779D01*
X1910282Y1013720D01*
Y1003145D01*
X1906581D01*
Y1039947D01*
G37*
G36*
X1938300Y1011875D02*
X1925300D01*
Y1016075D01*
X1939000Y1039875D01*
X1942000D01*
Y1016075D01*
X1946200D01*
Y1011875D01*
X1942000D01*
Y1003075D01*
X1938300D01*
Y1011875D01*
G37*
%LPC*%
G36*
X1938300Y1032675D02*
X1929000Y1016075D01*
X1938300D01*
Y1032675D01*
G37*
%LPD*%
G36*
X1960037Y1018734D02*
X1948421Y1039947D01*
X1953280D01*
X1959209Y1028848D01*
X1959642Y1028031D01*
X1960062Y1027225D01*
X1960468Y1026430D01*
X1960861Y1025646D01*
X1961241Y1024873D01*
X1961607Y1024111D01*
X1961960Y1023361D01*
X1962300Y1022621D01*
X1962644Y1023354D01*
X1963007Y1024110D01*
X1963390Y1024889D01*
X1963793Y1025690D01*
X1964216Y1026515D01*
X1964658Y1027362D01*
X1965120Y1028232D01*
X1965601Y1029124D01*
X1971473Y1039947D01*
X1976074D01*
X1964047Y1018734D01*
Y1003145D01*
X1960037D01*
Y1018734D01*
G37*
G36*
X1979107Y1029821D02*
X1982448D01*
Y1026054D01*
X1982732Y1026559D01*
X1983036Y1027034D01*
X1983360Y1027479D01*
X1983703Y1027895D01*
X1984065Y1028280D01*
X1984447Y1028637D01*
X1984849Y1028963D01*
X1985270Y1029260D01*
X1985706Y1029524D01*
X1986152Y1029753D01*
X1986608Y1029946D01*
X1987075Y1030105D01*
X1987551Y1030228D01*
X1988038Y1030316D01*
X1988535Y1030369D01*
X1989041Y1030387D01*
X1989605Y1030368D01*
X1990146Y1030312D01*
X1990665Y1030219D01*
X1991161Y1030089D01*
X1991636Y1029922D01*
X1992088Y1029717D01*
X1992517Y1029476D01*
X1992925Y1029197D01*
X1993307Y1028882D01*
X1993661Y1028534D01*
X1993986Y1028151D01*
X1994283Y1027735D01*
X1994551Y1027284D01*
X1994791Y1026799D01*
X1995002Y1026281D01*
X1995185Y1025728D01*
X1995518Y1026292D01*
X1995863Y1026820D01*
X1996221Y1027311D01*
X1996590Y1027766D01*
X1996972Y1028185D01*
X1997366Y1028567D01*
X1997772Y1028913D01*
X1998190Y1029222D01*
X1998620Y1029495D01*
X1999062Y1029732D01*
X1999515Y1029932D01*
X1999979Y1030096D01*
X2000454Y1030223D01*
X2000941Y1030314D01*
X2001440Y1030369D01*
X2001949Y1030387D01*
X2002714Y1030353D01*
X2003438Y1030253D01*
X2004119Y1030087D01*
X2004759Y1029854D01*
X2005358Y1029554D01*
X2005915Y1029187D01*
X2006430Y1028754D01*
X2006903Y1028254D01*
X2007327Y1027681D01*
X2007695Y1027028D01*
X2008006Y1026296D01*
X2008261Y1025483D01*
X2008459Y1024590D01*
X2008600Y1023617D01*
X2008685Y1022565D01*
X2008713Y1021432D01*
Y1003145D01*
X2005012D01*
Y1019932D01*
X2005006Y1020621D01*
X2004986Y1021257D01*
X2004954Y1021842D01*
X2004909Y1022375D01*
X2004850Y1022855D01*
X2004779Y1023283D01*
X2004695Y1023659D01*
X2004598Y1023983D01*
X2004486Y1024273D01*
X2004358Y1024546D01*
X2004214Y1024801D01*
X2004054Y1025040D01*
X2003878Y1025263D01*
X2003685Y1025468D01*
X2003477Y1025656D01*
X2003252Y1025828D01*
X2003016Y1025981D01*
X2002773Y1026113D01*
X2002523Y1026225D01*
X2002265Y1026317D01*
X2002001Y1026389D01*
X2001730Y1026440D01*
X2001451Y1026470D01*
X2001165Y1026480D01*
X2000582Y1026451D01*
X2000027Y1026362D01*
X1999498Y1026214D01*
X1998998Y1026007D01*
X1998524Y1025740D01*
X1998078Y1025415D01*
X1997660Y1025030D01*
X1997269Y1024586D01*
X1996915Y1024078D01*
X1996609Y1023503D01*
X1996350Y1022860D01*
X1996138Y1022149D01*
X1995973Y1021370D01*
X1995855Y1020523D01*
X1995784Y1019609D01*
X1995760Y1018627D01*
Y1003145D01*
X1992060D01*
Y1020459D01*
X1992044Y1021256D01*
X1991996Y1021992D01*
X1991917Y1022667D01*
X1991806Y1023281D01*
X1991664Y1023834D01*
X1991490Y1024326D01*
X1991284Y1024756D01*
X1991047Y1025125D01*
X1990782Y1025443D01*
X1990493Y1025718D01*
X1990180Y1025951D01*
X1989843Y1026142D01*
X1989483Y1026290D01*
X1989099Y1026396D01*
X1988690Y1026459D01*
X1988258Y1026480D01*
X1987644Y1026448D01*
X1987062Y1026353D01*
X1986514Y1026193D01*
X1985999Y1025969D01*
X1985517Y1025681D01*
X1985068Y1025330D01*
X1984653Y1024915D01*
X1984270Y1024435D01*
X1983928Y1023871D01*
X1983630Y1023202D01*
X1983379Y1022427D01*
X1983173Y1021546D01*
X1983013Y1020561D01*
X1982899Y1019469D01*
X1982830Y1018273D01*
X1982808Y1016971D01*
Y1003145D01*
X1979107D01*
Y1029821D01*
G37*
G36*
X2014700Y1039875D02*
X2028000D01*
X2029100D01*
X2030000D01*
X2030900Y1039775D01*
X2031700Y1039675D01*
X2032400Y1039475D01*
X2033100Y1039275D01*
X2033700Y1039075D01*
X2034200Y1038875D01*
X2034700Y1038575D01*
X2035200Y1038275D01*
X2035600Y1037875D01*
X2036000Y1037475D01*
X2036400Y1037075D01*
X2036800Y1036575D01*
X2037200Y1035975D01*
X2037500Y1035475D01*
X2037800Y1034875D01*
X2038100Y1034175D01*
X2038300Y1033575D01*
X2038500Y1032875D01*
X2038600Y1032175D01*
X2038700Y1031375D01*
X2038800Y1030675D01*
Y1029875D01*
Y1028875D01*
X2038600Y1027875D01*
X2038500Y1026975D01*
X2038200Y1026075D01*
X2037900Y1025275D01*
X2037600Y1024475D01*
X2037100Y1023775D01*
X2036600Y1023075D01*
X2036000Y1022475D01*
X2035400Y1021975D01*
X2034700Y1021475D01*
X2034000Y1020975D01*
X2033100Y1020575D01*
X2032300Y1020275D01*
X2031300Y1020075D01*
X2030300Y1019875D01*
X2030700Y1019575D01*
X2031100Y1019275D01*
X2031500Y1019075D01*
X2031800Y1018775D01*
X2032100Y1018575D01*
X2032400Y1018275D01*
X2032600Y1018075D01*
X2032900Y1017775D01*
X2033300Y1017275D01*
X2033700Y1016675D01*
X2034100Y1016175D01*
X2034500Y1015575D01*
X2034900Y1014975D01*
X2035300Y1014375D01*
X2035700Y1013775D01*
X2036000Y1013075D01*
X2041300Y1003075D01*
X2036200D01*
X2032200Y1010775D01*
X2031600Y1011775D01*
X2031100Y1012775D01*
X2030600Y1013675D01*
X2030200Y1014475D01*
X2029700Y1015175D01*
X2029300Y1015775D01*
X2029000Y1016375D01*
X2028700Y1016775D01*
X2028400Y1017175D01*
X2028100Y1017475D01*
X2027800Y1017775D01*
X2027500Y1018075D01*
X2027200Y1018375D01*
X2026900Y1018575D01*
X2026700Y1018775D01*
X2026400Y1018875D01*
X2026100Y1018975D01*
X2025800Y1019175D01*
X2025400Y1019275D01*
X2025100D01*
X2024600Y1019375D01*
X2024200D01*
X2023800Y1019475D01*
X2023300D01*
X2018700D01*
Y1003075D01*
X2014700D01*
Y1039875D01*
G37*
%LPC*%
G36*
X2027300Y1023675D02*
X2027900D01*
X2028600D01*
X2029200Y1023775D01*
X2029700D01*
X2030200Y1023875D01*
X2030700Y1024075D01*
X2031100Y1024175D01*
X2031500Y1024375D01*
X2031900Y1024475D01*
X2032200Y1024675D01*
X2032500Y1024975D01*
X2032800Y1025175D01*
X2033100Y1025475D01*
X2033400Y1025775D01*
X2033600Y1026075D01*
X2033800Y1026475D01*
X2034000Y1026875D01*
X2034200Y1027275D01*
X2034300Y1027675D01*
X2034500Y1028075D01*
X2034600Y1028475D01*
Y1028875D01*
X2034700Y1029375D01*
Y1029875D01*
X2034600Y1030575D01*
Y1031175D01*
X2034400Y1031775D01*
X2034300Y1032375D01*
X2034000Y1032875D01*
X2033800Y1033375D01*
X2033400Y1033775D01*
X2033000Y1034275D01*
X2032600Y1034575D01*
X2032100Y1034975D01*
X2031600Y1035175D01*
X2031000Y1035475D01*
X2030400Y1035575D01*
X2029700Y1035775D01*
X2029000D01*
X2028200Y1035875D01*
X2018700D01*
Y1023675D01*
X2027300D01*
G37*
%LPD*%
G36*
X2044600Y1039875D02*
X2048300D01*
Y1034675D01*
X2044600D01*
Y1039875D01*
G37*
G36*
X2044600Y1029775D02*
X2048300D01*
Y1003075D01*
X2044600D01*
Y1029775D01*
G37*
G36*
X2052198Y1007638D02*
X2067685Y1031253D01*
X2068086Y1031861D01*
X2068485Y1032451D01*
X2068881Y1033024D01*
X2069275Y1033580D01*
X2069667Y1034118D01*
X2070056Y1034639D01*
X2070443Y1035143D01*
X2070828Y1035630D01*
X2053894D01*
Y1039947D01*
X2075533D01*
Y1035630D01*
X2058619Y1010052D01*
X2056787Y1007462D01*
X2076047D01*
Y1003145D01*
X2052198D01*
Y1007638D01*
G37*
G36*
X2077597Y1039947D02*
X2081673D01*
X2086257Y1015822D01*
X2086436Y1014892D01*
X2086610Y1013958D01*
X2086778Y1013022D01*
X2086940Y1012082D01*
X2087097Y1011139D01*
X2087249Y1010193D01*
X2087395Y1009244D01*
X2087535Y1008291D01*
X2088908Y1015094D01*
X2094727Y1039947D01*
X2099457D01*
X2103779Y1021320D01*
X2104162Y1019628D01*
X2104521Y1017955D01*
X2104854Y1016299D01*
X2105162Y1014661D01*
X2105444Y1013042D01*
X2105702Y1011440D01*
X2105935Y1009857D01*
X2106142Y1008291D01*
X2106292Y1009202D01*
X2106451Y1010138D01*
X2106621Y1011100D01*
X2106802Y1012088D01*
X2106992Y1013102D01*
X2107193Y1014142D01*
X2107403Y1015208D01*
X2107624Y1016299D01*
X2112375Y1039947D01*
X2116459D01*
X2108165Y1003145D01*
X2104259D01*
X2097894Y1031186D01*
X2096941Y1035503D01*
X2096833Y1034909D01*
X2096724Y1034330D01*
X2096614Y1033767D01*
X2096504Y1033219D01*
X2096392Y1032687D01*
X2096280Y1032171D01*
X2096168Y1031671D01*
X2096054Y1031186D01*
X2089589Y1003145D01*
X2085556D01*
X2077597Y1039947D01*
G37*
G36*
X2120000Y1039875D02*
X2133400D01*
X2134400D01*
X2135300D01*
X2136200Y1039775D01*
X2137000Y1039675D01*
X2137700Y1039475D01*
X2138400Y1039275D01*
X2139000Y1039075D01*
X2139500Y1038875D01*
X2140000Y1038575D01*
X2140500Y1038275D01*
X2140900Y1037875D01*
X2141400Y1037475D01*
X2141800Y1037075D01*
X2142100Y1036575D01*
X2142500Y1035975D01*
X2142800Y1035475D01*
X2143100Y1034875D01*
X2143400Y1034175D01*
X2143600Y1033575D01*
X2143800Y1032875D01*
X2143900Y1032175D01*
X2144000Y1031375D01*
X2144100Y1030675D01*
Y1029875D01*
Y1028875D01*
X2144000Y1027875D01*
X2143800Y1026975D01*
X2143600Y1026075D01*
X2143300Y1025275D01*
X2142900Y1024475D01*
X2142400Y1023775D01*
X2141900Y1023075D01*
X2141400Y1022475D01*
X2140700Y1021975D01*
X2140000Y1021475D01*
X2139300Y1020975D01*
X2138400Y1020575D01*
X2137600Y1020275D01*
X2136600Y1020075D01*
X2135600Y1019875D01*
X2136000Y1019575D01*
X2136400Y1019275D01*
X2136800Y1019075D01*
X2137100Y1018775D01*
X2137400Y1018575D01*
X2137700Y1018275D01*
X2138000Y1018075D01*
X2138200Y1017775D01*
X2138600Y1017275D01*
X2139100Y1016675D01*
X2139500Y1016175D01*
X2139900Y1015575D01*
X2140200Y1014975D01*
X2140600Y1014375D01*
X2141000Y1013775D01*
X2141300Y1013075D01*
X2146600Y1003075D01*
X2141600D01*
X2137500Y1010775D01*
X2137000Y1011775D01*
X2136400Y1012775D01*
X2135900Y1013675D01*
X2135500Y1014475D01*
X2135000Y1015175D01*
X2134700Y1015775D01*
X2134300Y1016375D01*
X2134000Y1016775D01*
X2133700Y1017175D01*
X2133400Y1017475D01*
X2133100Y1017775D01*
X2132800Y1018075D01*
X2132500Y1018375D01*
X2132300Y1018575D01*
X2132000Y1018775D01*
X2131700Y1018875D01*
X2131400Y1018975D01*
X2131100Y1019175D01*
X2130700Y1019275D01*
X2130400D01*
X2130000Y1019375D01*
X2129500D01*
X2129100Y1019475D01*
X2128600D01*
X2124000D01*
Y1003075D01*
X2120000D01*
Y1039875D01*
G37*
%LPC*%
G36*
X2132600Y1023675D02*
X2133300D01*
X2133900D01*
X2134500Y1023775D01*
X2135000D01*
X2135600Y1023875D01*
X2136000Y1024075D01*
X2136400Y1024175D01*
X2136800Y1024375D01*
X2137200Y1024475D01*
X2137500Y1024675D01*
X2137800Y1024975D01*
X2138100Y1025175D01*
X2138400Y1025475D01*
X2138700Y1025775D01*
X2138900Y1026075D01*
X2139100Y1026475D01*
X2139300Y1026875D01*
X2139500Y1027275D01*
X2139700Y1027675D01*
X2139800Y1028075D01*
X2139900Y1028475D01*
Y1028875D01*
X2140000Y1029375D01*
Y1029875D01*
Y1030575D01*
X2139900Y1031175D01*
X2139800Y1031775D01*
X2139600Y1032375D01*
X2139400Y1032875D01*
X2139100Y1033375D01*
X2138700Y1033775D01*
X2138400Y1034275D01*
X2137900Y1034575D01*
X2137400Y1034975D01*
X2136900Y1035175D01*
X2136300Y1035475D01*
X2135700Y1035575D01*
X2135000Y1035775D01*
X2134300D01*
X2133500Y1035875D01*
X2124000D01*
Y1023675D01*
X2132600D01*
G37*
%LPD*%
G36*
X2149858Y1039947D02*
X2153558D01*
Y1003145D01*
X2149858D01*
Y1039947D01*
G37*
G36*
X2158700Y1020975D02*
X2158800Y1023275D01*
X2159000Y1025475D01*
X2159300Y1027475D01*
X2159700Y1029275D01*
X2160300Y1031075D01*
X2161000Y1032675D01*
X2161900Y1034175D01*
X2162800Y1035475D01*
X2163900Y1036675D01*
X2165000Y1037675D01*
X2166200Y1038575D01*
X2167500Y1039275D01*
X2168800Y1039775D01*
X2170200Y1040175D01*
X2171700Y1040475D01*
X2173200D01*
X2174200D01*
X2175100Y1040375D01*
X2176100Y1040175D01*
X2177000Y1039975D01*
X2177900Y1039675D01*
X2178800Y1039275D01*
X2179600Y1038775D01*
X2180500Y1038275D01*
X2181300Y1037675D01*
X2182000Y1036975D01*
X2182700Y1036275D01*
X2183400Y1035475D01*
X2184000Y1034675D01*
X2184600Y1033675D01*
X2185200Y1032775D01*
X2185700Y1031675D01*
X2186100Y1030575D01*
X2186500Y1029475D01*
X2186800Y1028275D01*
X2187100Y1026975D01*
X2187300Y1025675D01*
X2187500Y1024375D01*
X2187600Y1022875D01*
Y1021475D01*
X2187500Y1019475D01*
X2187400Y1017575D01*
X2187100Y1015775D01*
X2186700Y1014075D01*
X2186100Y1012475D01*
X2185500Y1010875D01*
X2184700Y1009475D01*
X2183900Y1008175D01*
X2182800Y1006775D01*
X2181700Y1005675D01*
X2180400Y1004675D01*
X2179100Y1003875D01*
X2177800Y1003275D01*
X2176300Y1002875D01*
X2174800Y1002575D01*
X2173100Y1002475D01*
X2171500Y1002575D01*
X2170000Y1002875D01*
X2168500Y1003275D01*
X2167100Y1003975D01*
X2165800Y1004775D01*
X2164600Y1005775D01*
X2163500Y1006975D01*
X2162400Y1008275D01*
X2161500Y1009675D01*
X2160800Y1011075D01*
X2160100Y1012575D01*
X2159600Y1014075D01*
X2159200Y1015775D01*
X2158900Y1017375D01*
X2158800Y1019175D01*
X2158700Y1020975D01*
G37*
%LPC*%
G36*
X2162800Y1020975D02*
X2162900Y1019275D01*
X2163000Y1017775D01*
X2163200Y1016275D01*
X2163600Y1014875D01*
X2164000Y1013675D01*
X2164500Y1012475D01*
X2165100Y1011375D01*
X2165800Y1010375D01*
X2166600Y1009475D01*
X2167400Y1008775D01*
X2168300Y1008075D01*
X2169100Y1007575D01*
X2170100Y1007175D01*
X2171100Y1006875D01*
X2172100Y1006675D01*
X2173100D01*
X2174200D01*
X2175200Y1006875D01*
X2176200Y1007175D01*
X2177200Y1007575D01*
X2178100Y1008075D01*
X2178900Y1008775D01*
X2179700Y1009575D01*
X2180500Y1010475D01*
X2181200Y1011475D01*
X2181800Y1012575D01*
X2182300Y1013775D01*
X2182700Y1015075D01*
X2183100Y1016575D01*
X2183300Y1018075D01*
X2183400Y1019775D01*
X2183500Y1021575D01*
Y1022775D01*
X2183400Y1023875D01*
X2183300Y1024975D01*
X2183100Y1026075D01*
X2182900Y1027075D01*
X2182600Y1028075D01*
X2182300Y1029075D01*
X2181900Y1030075D01*
X2181600Y1030775D01*
X2181300Y1031375D01*
X2180900Y1032075D01*
X2180500Y1032675D01*
X2180000Y1033175D01*
X2179500Y1033675D01*
X2179000Y1034175D01*
X2178400Y1034675D01*
X2177800Y1035075D01*
X2177200Y1035375D01*
X2176500Y1035675D01*
X2175900Y1035875D01*
X2175200Y1036075D01*
X2174600Y1036275D01*
X2173900D01*
X2173200Y1036375D01*
X2172100Y1036275D01*
X2171000Y1036075D01*
X2170000Y1035775D01*
X2169100Y1035375D01*
X2168200Y1034875D01*
X2167300Y1034275D01*
X2166500Y1033475D01*
X2165700Y1032575D01*
X2165100Y1031575D01*
X2164500Y1030475D01*
X2164000Y1029175D01*
X2163500Y1027775D01*
X2163200Y1026275D01*
X2163000Y1024675D01*
X2162900Y1022875D01*
X2162800Y1020975D01*
G37*
%LPD*%
G36*
X2192500Y1039875D02*
X2202900D01*
X2203900D01*
X2204700D01*
X2205600Y1039775D01*
X2206300D01*
X2207000Y1039675D01*
X2207700Y1039475D01*
X2208300Y1039375D01*
X2208800Y1039175D01*
X2209400Y1038975D01*
X2210100Y1038675D01*
X2210700Y1038375D01*
X2211300Y1037975D01*
X2211800Y1037575D01*
X2212400Y1037075D01*
X2212900Y1036575D01*
X2213400Y1035975D01*
X2213800Y1035375D01*
X2214300Y1034775D01*
X2214700Y1034075D01*
X2215100Y1033375D01*
X2215400Y1032575D01*
X2215800Y1031775D01*
X2216100Y1030975D01*
X2216400Y1030075D01*
X2216600Y1029175D01*
X2216800Y1028275D01*
X2217000Y1027275D01*
X2217200Y1026275D01*
X2217300Y1025175D01*
X2217400Y1024075D01*
Y1022875D01*
X2217500Y1021675D01*
X2217400Y1020175D01*
X2217300Y1018675D01*
X2217200Y1017275D01*
X2217000Y1015875D01*
X2216700Y1014575D01*
X2216400Y1013375D01*
X2216000Y1012175D01*
X2215600Y1011075D01*
X2215100Y1010075D01*
X2214600Y1009075D01*
X2214100Y1008175D01*
X2213500Y1007375D01*
X2212900Y1006675D01*
X2212300Y1005975D01*
X2211600Y1005375D01*
X2210900Y1004875D01*
X2210200Y1004475D01*
X2209400Y1004075D01*
X2208500Y1003775D01*
X2207600Y1003575D01*
X2206600Y1003375D01*
X2205600Y1003175D01*
X2204500Y1003075D01*
X2203400D01*
X2192500D01*
Y1039875D01*
G37*
%LPC*%
G36*
X2202900Y1007375D02*
X2203900Y1007475D01*
X2204800D01*
X2205600Y1007575D01*
X2206400Y1007775D01*
X2207100Y1007875D01*
X2207700Y1008175D01*
X2208300Y1008375D01*
X2208800Y1008675D01*
X2209300Y1008975D01*
X2209800Y1009375D01*
X2210200Y1009875D01*
X2210600Y1010375D01*
X2211000Y1010875D01*
X2211300Y1011475D01*
X2211600Y1012075D01*
X2211900Y1012775D01*
X2212200Y1013775D01*
X2212500Y1014775D01*
X2212800Y1015775D01*
X2213000Y1016875D01*
X2213100Y1018075D01*
X2213200Y1019175D01*
X2213300Y1020475D01*
Y1021775D01*
Y1023075D01*
X2213200Y1024375D01*
X2213100Y1025575D01*
X2213000Y1026775D01*
X2212700Y1027775D01*
X2212500Y1028775D01*
X2212200Y1029675D01*
X2211800Y1030575D01*
X2211400Y1031375D01*
X2211000Y1032075D01*
X2210600Y1032675D01*
X2210100Y1033275D01*
X2209600Y1033775D01*
X2209100Y1034175D01*
X2208500Y1034575D01*
X2207900Y1034875D01*
X2207500Y1034975D01*
X2207000Y1035175D01*
X2206500Y1035275D01*
X2205900Y1035375D01*
X2205200Y1035475D01*
X2204500Y1035575D01*
X2203700D01*
X2202800D01*
X2196500D01*
Y1007375D01*
X2202900D01*
G37*
%LPD*%
G36*
X2220019Y1039947D02*
X2224336D01*
X2232188Y1013209D01*
X2232410Y1012434D01*
X2232625Y1011666D01*
X2232833Y1010906D01*
X2233034Y1010152D01*
X2233228Y1009405D01*
X2233415Y1008665D01*
X2233595Y1007932D01*
X2233768Y1007205D01*
X2233948Y1007959D01*
X2234133Y1008712D01*
X2234325Y1009464D01*
X2234523Y1010215D01*
X2234728Y1010965D01*
X2234939Y1011714D01*
X2235156Y1012462D01*
X2235379Y1013209D01*
X2243560Y1039947D01*
X2247627D01*
X2235816Y1003145D01*
X2231686D01*
X2220019Y1039947D01*
G37*
G36*
X2250653Y1039947D02*
X2254354D01*
Y1026706D01*
X2254685Y1027152D01*
X2255027Y1027569D01*
X2255379Y1027957D01*
X2255742Y1028317D01*
X2256115Y1028647D01*
X2256499Y1028949D01*
X2256893Y1029222D01*
X2257298Y1029467D01*
X2257714Y1029682D01*
X2258140Y1029869D01*
X2258577Y1030027D01*
X2259024Y1030157D01*
X2259482Y1030257D01*
X2259951Y1030329D01*
X2260430Y1030372D01*
X2260919Y1030387D01*
X2261767Y1030352D01*
X2262569Y1030248D01*
X2263326Y1030075D01*
X2264036Y1029832D01*
X2264701Y1029520D01*
X2265320Y1029138D01*
X2265893Y1028687D01*
X2266420Y1028167D01*
X2266893Y1027554D01*
X2267303Y1026826D01*
X2267649Y1025982D01*
X2267933Y1025022D01*
X2268154Y1023947D01*
X2268311Y1022755D01*
X2268406Y1021449D01*
X2268437Y1020026D01*
Y1003145D01*
X2264737D01*
Y1020014D01*
X2264717Y1020848D01*
X2264660Y1021621D01*
X2264564Y1022333D01*
X2264430Y1022984D01*
X2264258Y1023574D01*
X2264047Y1024102D01*
X2263798Y1024570D01*
X2263511Y1024977D01*
X2263190Y1025329D01*
X2262840Y1025634D01*
X2262461Y1025893D01*
X2262053Y1026104D01*
X2261617Y1026269D01*
X2261151Y1026386D01*
X2260657Y1026457D01*
X2260133Y1026480D01*
X2259544Y1026450D01*
X2258977Y1026360D01*
X2258432Y1026209D01*
X2257909Y1025998D01*
X2257409Y1025726D01*
X2256931Y1025395D01*
X2256476Y1025003D01*
X2256042Y1024550D01*
X2255647Y1024021D01*
X2255304Y1023399D01*
X2255013Y1022684D01*
X2254776Y1021875D01*
X2254591Y1020973D01*
X2254459Y1019978D01*
X2254380Y1018889D01*
X2254354Y1017708D01*
Y1003145D01*
X2250653D01*
Y1039947D01*
G37*
G36*
X1057127Y999813D02*
Y996823D01*
X1029261D01*
Y999813D01*
X1057127D01*
G37*
D02*
M02*
